<?xml version="1.0" encoding="utf-8" standalone="no"?>
<!DOCTYPE svg PUBLIC "-//W3C//DTD SVG 1.1//EN"
  "http://www.w3.org/Graphics/SVG/1.1/DTD/svg11.dtd">
<svg xmlns:xlink="http://www.w3.org/1999/xlink" width="720pt" height="432pt" viewBox="0 0 720 432" xmlns="http://www.w3.org/2000/svg" version="1.1">
 <metadata>
  <rdf:RDF xmlns:dc="http://purl.org/dc/elements/1.1/" xmlns:cc="http://creativecommons.org/ns#" xmlns:rdf="http://www.w3.org/1999/02/22-rdf-syntax-ns#">
   <cc:Work>
    <dc:type rdf:resource="http://purl.org/dc/dcmitype/StillImage"/>
    <dc:date>2025-11-27T17:39:11.445083</dc:date>
    <dc:format>image/svg+xml</dc:format>
    <dc:creator>
     <cc:Agent>
      <dc:title>Matplotlib v3.7.2, https://matplotlib.org/</dc:title>
     </cc:Agent>
    </dc:creator>
   </cc:Work>
  </rdf:RDF>
 </metadata>
 <defs>
  <style type="text/css">*{stroke-linejoin: round; stroke-linecap: butt}</style>
 </defs>
 <g id="figure_1">
  <g id="patch_1">
   <path d="M 0 432 
L 720 432 
L 720 0 
L 0 0 
L 0 432 
z
" style="fill: none"/>
  </g>
  <g id="axes_1">
   <g id="patch_2">
    <path d="M 72.542 377.08 
L 709.2 377.08 
L 709.2 14.896978 
L 72.542 14.896978 
L 72.542 377.08 
z
" style="fill: none"/>
   </g>
   <g id="matplotlib.axis_1">
    <g id="xtick_1">
     <g id="line2d_1">
      <path d="M 101.481 377.08 
L 101.481 14.896978 
" clip-path="url(#pba7acca13b)" style="fill: none; stroke-dasharray: 2.96,1.28; stroke-dashoffset: 0; stroke: #b0b0b0; stroke-opacity: 0.01; stroke-width: 0.8"/>
     </g>
     <g id="line2d_2">
      <defs>
       <path id="mc8fc2c24c6" d="M 0 0 
L 0 3.5 
" style="stroke: #000000; stroke-width: 0.8"/>
      </defs>
      <g>
       <use xlink:href="#mc8fc2c24c6" x="101.481" y="377.08" style="stroke: #000000; stroke-width: 0.8"/>
      </g>
     </g>
     <g id="text_1">
      <!-- 0.00 -->
      <g transform="translate(88.121625 393.198125) scale(0.12 -0.12)">
       <defs>
        <path id="DejaVuSans-30" d="M 2034 4250 
Q 1547 4250 1301 3770 
Q 1056 3291 1056 2328 
Q 1056 1369 1301 889 
Q 1547 409 2034 409 
Q 2525 409 2770 889 
Q 3016 1369 3016 2328 
Q 3016 3291 2770 3770 
Q 2525 4250 2034 4250 
z
M 2034 4750 
Q 2819 4750 3233 4129 
Q 3647 3509 3647 2328 
Q 3647 1150 3233 529 
Q 2819 -91 2034 -91 
Q 1250 -91 836 529 
Q 422 1150 422 2328 
Q 422 3509 836 4129 
Q 1250 4750 2034 4750 
z
" transform="scale(0.015625)"/>
        <path id="DejaVuSans-2e" d="M 684 794 
L 1344 794 
L 1344 0 
L 684 0 
L 684 794 
z
" transform="scale(0.015625)"/>
       </defs>
       <use xlink:href="#DejaVuSans-30"/>
       <use xlink:href="#DejaVuSans-2e" x="63.623047"/>
       <use xlink:href="#DejaVuSans-30" x="95.410156"/>
       <use xlink:href="#DejaVuSans-30" x="159.033203"/>
      </g>
     </g>
    </g>
    <g id="xtick_2">
     <g id="line2d_3">
      <path d="M 197.944333 377.08 
L 197.944333 14.896978 
" clip-path="url(#pba7acca13b)" style="fill: none; stroke-dasharray: 2.96,1.28; stroke-dashoffset: 0; stroke: #b0b0b0; stroke-opacity: 0.01; stroke-width: 0.8"/>
     </g>
     <g id="line2d_4">
      <g>
       <use xlink:href="#mc8fc2c24c6" x="197.944333" y="377.08" style="stroke: #000000; stroke-width: 0.8"/>
      </g>
     </g>
     <g id="text_2">
      <!-- 1.57 -->
      <g transform="translate(184.584958 393.198125) scale(0.12 -0.12)">
       <defs>
        <path id="DejaVuSans-31" d="M 794 531 
L 1825 531 
L 1825 4091 
L 703 3866 
L 703 4441 
L 1819 4666 
L 2450 4666 
L 2450 531 
L 3481 531 
L 3481 0 
L 794 0 
L 794 531 
z
" transform="scale(0.015625)"/>
        <path id="DejaVuSans-35" d="M 691 4666 
L 3169 4666 
L 3169 4134 
L 1269 4134 
L 1269 2991 
Q 1406 3038 1543 3061 
Q 1681 3084 1819 3084 
Q 2600 3084 3056 2656 
Q 3513 2228 3513 1497 
Q 3513 744 3044 326 
Q 2575 -91 1722 -91 
Q 1428 -91 1123 -41 
Q 819 9 494 109 
L 494 744 
Q 775 591 1075 516 
Q 1375 441 1709 441 
Q 2250 441 2565 725 
Q 2881 1009 2881 1497 
Q 2881 1984 2565 2268 
Q 2250 2553 1709 2553 
Q 1456 2553 1204 2497 
Q 953 2441 691 2322 
L 691 4666 
z
" transform="scale(0.015625)"/>
        <path id="DejaVuSans-37" d="M 525 4666 
L 3525 4666 
L 3525 4397 
L 1831 0 
L 1172 0 
L 2766 4134 
L 525 4134 
L 525 4666 
z
" transform="scale(0.015625)"/>
       </defs>
       <use xlink:href="#DejaVuSans-31"/>
       <use xlink:href="#DejaVuSans-2e" x="63.623047"/>
       <use xlink:href="#DejaVuSans-35" x="95.410156"/>
       <use xlink:href="#DejaVuSans-37" x="159.033203"/>
      </g>
     </g>
    </g>
    <g id="xtick_3">
     <g id="line2d_5">
      <path d="M 294.407667 377.08 
L 294.407667 14.896978 
" clip-path="url(#pba7acca13b)" style="fill: none; stroke-dasharray: 2.96,1.28; stroke-dashoffset: 0; stroke: #b0b0b0; stroke-opacity: 0.01; stroke-width: 0.8"/>
     </g>
     <g id="line2d_6">
      <g>
       <use xlink:href="#mc8fc2c24c6" x="294.407667" y="377.08" style="stroke: #000000; stroke-width: 0.8"/>
      </g>
     </g>
     <g id="text_3">
      <!-- 3.14 -->
      <g transform="translate(281.048292 393.198125) scale(0.12 -0.12)">
       <defs>
        <path id="DejaVuSans-33" d="M 2597 2516 
Q 3050 2419 3304 2112 
Q 3559 1806 3559 1356 
Q 3559 666 3084 287 
Q 2609 -91 1734 -91 
Q 1441 -91 1130 -33 
Q 819 25 488 141 
L 488 750 
Q 750 597 1062 519 
Q 1375 441 1716 441 
Q 2309 441 2620 675 
Q 2931 909 2931 1356 
Q 2931 1769 2642 2001 
Q 2353 2234 1838 2234 
L 1294 2234 
L 1294 2753 
L 1863 2753 
Q 2328 2753 2575 2939 
Q 2822 3125 2822 3475 
Q 2822 3834 2567 4026 
Q 2313 4219 1838 4219 
Q 1578 4219 1281 4162 
Q 984 4106 628 3988 
L 628 4550 
Q 988 4650 1302 4700 
Q 1616 4750 1894 4750 
Q 2613 4750 3031 4423 
Q 3450 4097 3450 3541 
Q 3450 3153 3228 2886 
Q 3006 2619 2597 2516 
z
" transform="scale(0.015625)"/>
        <path id="DejaVuSans-34" d="M 2419 4116 
L 825 1625 
L 2419 1625 
L 2419 4116 
z
M 2253 4666 
L 3047 4666 
L 3047 1625 
L 3713 1625 
L 3713 1100 
L 3047 1100 
L 3047 0 
L 2419 0 
L 2419 1100 
L 313 1100 
L 313 1709 
L 2253 4666 
z
" transform="scale(0.015625)"/>
       </defs>
       <use xlink:href="#DejaVuSans-33"/>
       <use xlink:href="#DejaVuSans-2e" x="63.623047"/>
       <use xlink:href="#DejaVuSans-31" x="95.410156"/>
       <use xlink:href="#DejaVuSans-34" x="159.033203"/>
      </g>
     </g>
    </g>
    <g id="xtick_4">
     <g id="line2d_7">
      <path d="M 390.871 377.08 
L 390.871 14.896978 
" clip-path="url(#pba7acca13b)" style="fill: none; stroke-dasharray: 2.96,1.28; stroke-dashoffset: 0; stroke: #b0b0b0; stroke-opacity: 0.01; stroke-width: 0.8"/>
     </g>
     <g id="line2d_8">
      <g>
       <use xlink:href="#mc8fc2c24c6" x="390.871" y="377.08" style="stroke: #000000; stroke-width: 0.8"/>
      </g>
     </g>
     <g id="text_4">
      <!-- 4.71 -->
      <g transform="translate(377.511625 393.198125) scale(0.12 -0.12)">
       <use xlink:href="#DejaVuSans-34"/>
       <use xlink:href="#DejaVuSans-2e" x="63.623047"/>
       <use xlink:href="#DejaVuSans-37" x="95.410156"/>
       <use xlink:href="#DejaVuSans-31" x="159.033203"/>
      </g>
     </g>
    </g>
    <g id="xtick_5">
     <g id="line2d_9">
      <path d="M 487.334333 377.08 
L 487.334333 14.896978 
" clip-path="url(#pba7acca13b)" style="fill: none; stroke-dasharray: 2.96,1.28; stroke-dashoffset: 0; stroke: #b0b0b0; stroke-opacity: 0.01; stroke-width: 0.8"/>
     </g>
     <g id="line2d_10">
      <g>
       <use xlink:href="#mc8fc2c24c6" x="487.334333" y="377.08" style="stroke: #000000; stroke-width: 0.8"/>
      </g>
     </g>
     <g id="text_5">
      <!-- 6.28 -->
      <g transform="translate(473.974958 393.198125) scale(0.12 -0.12)">
       <defs>
        <path id="DejaVuSans-36" d="M 2113 2584 
Q 1688 2584 1439 2293 
Q 1191 2003 1191 1497 
Q 1191 994 1439 701 
Q 1688 409 2113 409 
Q 2538 409 2786 701 
Q 3034 994 3034 1497 
Q 3034 2003 2786 2293 
Q 2538 2584 2113 2584 
z
M 3366 4563 
L 3366 3988 
Q 3128 4100 2886 4159 
Q 2644 4219 2406 4219 
Q 1781 4219 1451 3797 
Q 1122 3375 1075 2522 
Q 1259 2794 1537 2939 
Q 1816 3084 2150 3084 
Q 2853 3084 3261 2657 
Q 3669 2231 3669 1497 
Q 3669 778 3244 343 
Q 2819 -91 2113 -91 
Q 1303 -91 875 529 
Q 447 1150 447 2328 
Q 447 3434 972 4092 
Q 1497 4750 2381 4750 
Q 2619 4750 2861 4703 
Q 3103 4656 3366 4563 
z
" transform="scale(0.015625)"/>
        <path id="DejaVuSans-32" d="M 1228 531 
L 3431 531 
L 3431 0 
L 469 0 
L 469 531 
Q 828 903 1448 1529 
Q 2069 2156 2228 2338 
Q 2531 2678 2651 2914 
Q 2772 3150 2772 3378 
Q 2772 3750 2511 3984 
Q 2250 4219 1831 4219 
Q 1534 4219 1204 4116 
Q 875 4013 500 3803 
L 500 4441 
Q 881 4594 1212 4672 
Q 1544 4750 1819 4750 
Q 2544 4750 2975 4387 
Q 3406 4025 3406 3419 
Q 3406 3131 3298 2873 
Q 3191 2616 2906 2266 
Q 2828 2175 2409 1742 
Q 1991 1309 1228 531 
z
" transform="scale(0.015625)"/>
        <path id="DejaVuSans-38" d="M 2034 2216 
Q 1584 2216 1326 1975 
Q 1069 1734 1069 1313 
Q 1069 891 1326 650 
Q 1584 409 2034 409 
Q 2484 409 2743 651 
Q 3003 894 3003 1313 
Q 3003 1734 2745 1975 
Q 2488 2216 2034 2216 
z
M 1403 2484 
Q 997 2584 770 2862 
Q 544 3141 544 3541 
Q 544 4100 942 4425 
Q 1341 4750 2034 4750 
Q 2731 4750 3128 4425 
Q 3525 4100 3525 3541 
Q 3525 3141 3298 2862 
Q 3072 2584 2669 2484 
Q 3125 2378 3379 2068 
Q 3634 1759 3634 1313 
Q 3634 634 3220 271 
Q 2806 -91 2034 -91 
Q 1263 -91 848 271 
Q 434 634 434 1313 
Q 434 1759 690 2068 
Q 947 2378 1403 2484 
z
M 1172 3481 
Q 1172 3119 1398 2916 
Q 1625 2713 2034 2713 
Q 2441 2713 2670 2916 
Q 2900 3119 2900 3481 
Q 2900 3844 2670 4047 
Q 2441 4250 2034 4250 
Q 1625 4250 1398 4047 
Q 1172 3844 1172 3481 
z
" transform="scale(0.015625)"/>
       </defs>
       <use xlink:href="#DejaVuSans-36"/>
       <use xlink:href="#DejaVuSans-2e" x="63.623047"/>
       <use xlink:href="#DejaVuSans-32" x="95.410156"/>
       <use xlink:href="#DejaVuSans-38" x="159.033203"/>
      </g>
     </g>
    </g>
    <g id="xtick_6">
     <g id="line2d_11">
      <path d="M 583.797667 377.08 
L 583.797667 14.896978 
" clip-path="url(#pba7acca13b)" style="fill: none; stroke-dasharray: 2.96,1.28; stroke-dashoffset: 0; stroke: #b0b0b0; stroke-opacity: 0.01; stroke-width: 0.8"/>
     </g>
     <g id="line2d_12">
      <g>
       <use xlink:href="#mc8fc2c24c6" x="583.797667" y="377.08" style="stroke: #000000; stroke-width: 0.8"/>
      </g>
     </g>
     <g id="text_6">
      <!-- 7.85 -->
      <g transform="translate(570.438292 393.198125) scale(0.12 -0.12)">
       <use xlink:href="#DejaVuSans-37"/>
       <use xlink:href="#DejaVuSans-2e" x="63.623047"/>
       <use xlink:href="#DejaVuSans-38" x="95.410156"/>
       <use xlink:href="#DejaVuSans-35" x="159.033203"/>
      </g>
     </g>
    </g>
    <g id="xtick_7">
     <g id="line2d_13">
      <path d="M 680.261 377.08 
L 680.261 14.896978 
" clip-path="url(#pba7acca13b)" style="fill: none; stroke-dasharray: 2.96,1.28; stroke-dashoffset: 0; stroke: #b0b0b0; stroke-opacity: 0.01; stroke-width: 0.8"/>
     </g>
     <g id="line2d_14">
      <g>
       <use xlink:href="#mc8fc2c24c6" x="680.261" y="377.08" style="stroke: #000000; stroke-width: 0.8"/>
      </g>
     </g>
     <g id="text_7">
      <!-- 9.42 -->
      <g transform="translate(666.901625 393.198125) scale(0.12 -0.12)">
       <defs>
        <path id="DejaVuSans-39" d="M 703 97 
L 703 672 
Q 941 559 1184 500 
Q 1428 441 1663 441 
Q 2288 441 2617 861 
Q 2947 1281 2994 2138 
Q 2813 1869 2534 1725 
Q 2256 1581 1919 1581 
Q 1219 1581 811 2004 
Q 403 2428 403 3163 
Q 403 3881 828 4315 
Q 1253 4750 1959 4750 
Q 2769 4750 3195 4129 
Q 3622 3509 3622 2328 
Q 3622 1225 3098 567 
Q 2575 -91 1691 -91 
Q 1453 -91 1209 -44 
Q 966 3 703 97 
z
M 1959 2075 
Q 2384 2075 2632 2365 
Q 2881 2656 2881 3163 
Q 2881 3666 2632 3958 
Q 2384 4250 1959 4250 
Q 1534 4250 1286 3958 
Q 1038 3666 1038 3163 
Q 1038 2656 1286 2365 
Q 1534 2075 1959 2075 
z
" transform="scale(0.015625)"/>
       </defs>
       <use xlink:href="#DejaVuSans-39"/>
       <use xlink:href="#DejaVuSans-2e" x="63.623047"/>
       <use xlink:href="#DejaVuSans-34" x="95.410156"/>
       <use xlink:href="#DejaVuSans-32" x="159.033203"/>
      </g>
     </g>
    </g>
    <g id="text_8">
     <!-- $p/T$ -->
     <g transform="translate(378.141 414.092187) scale(0.19 -0.19)">
      <defs>
       <path id="STIXGeneral-Italic-70" d="M 1376 2739 
L 1190 2099 
Q 1670 2822 2285 2822 
Q 2637 2822 2829 2611 
Q 3021 2400 3021 2022 
Q 3021 1235 2422 582 
Q 1824 -70 1120 -70 
Q 890 -70 678 38 
Q 422 -1018 422 -1024 
Q 422 -1126 508 -1168 
Q 595 -1210 819 -1210 
L 819 -1312 
L -480 -1312 
L -480 -1210 
Q -275 -1203 -188 -1120 
Q -102 -1037 -45 -806 
L 691 1958 
Q 794 2330 794 2413 
Q 794 2586 512 2586 
L 371 2586 
L 358 2682 
L 1357 2822 
Q 1389 2822 1389 2797 
Q 1382 2765 1376 2739 
z
M 2445 2003 
Q 2445 2285 2352 2416 
Q 2259 2547 2048 2547 
Q 1798 2547 1548 2329 
Q 1299 2112 1184 1818 
Q 1043 1453 905 953 
Q 768 454 768 294 
Q 768 186 854 118 
Q 941 51 1075 51 
Q 1574 51 2003 659 
Q 2445 1274 2445 2003 
z
" transform="scale(0.015625)"/>
       <path id="STIXGeneral-Regular-2f" d="M 1837 4326 
L 378 -90 
L -58 -90 
L 1408 4326 
L 1837 4326 
z
" transform="scale(0.015625)"/>
       <path id="STIXGeneral-Italic-54" d="M 4051 4179 
L 3770 3130 
L 3661 3142 
Q 3680 3302 3680 3437 
Q 3680 3955 3034 3955 
L 2662 3955 
L 1786 819 
Q 1696 506 1696 397 
Q 1696 250 1766 195 
Q 1837 141 2035 122 
L 2259 102 
L 2259 0 
L 416 0 
L 416 102 
Q 749 134 889 230 
Q 1030 326 1101 582 
L 2016 3955 
Q 1254 3955 988 3817 
Q 723 3680 493 3162 
L 378 3187 
L 646 4179 
L 4051 4179 
z
" transform="scale(0.015625)"/>
      </defs>
      <use xlink:href="#STIXGeneral-Italic-70" transform="translate(0 0.40625)"/>
      <use xlink:href="#STIXGeneral-Regular-2f" transform="translate(50.399994 0.40625)"/>
      <use xlink:href="#STIXGeneral-Italic-54" transform="translate(78.199982 0.40625)"/>
     </g>
    </g>
   </g>
   <g id="matplotlib.axis_2">
    <g id="ytick_1">
     <g id="line2d_15">
      <path d="M 72.542 360.479313 
L 709.2 360.479313 
" clip-path="url(#pba7acca13b)" style="fill: none; stroke-dasharray: 2.96,1.28; stroke-dashoffset: 0; stroke: #b0b0b0; stroke-opacity: 0.01; stroke-width: 0.8"/>
     </g>
     <g id="line2d_16">
      <defs>
       <path id="ma0f05578ef" d="M 0 0 
L -3.5 0 
" style="stroke: #000000; stroke-width: 0.8"/>
      </defs>
      <g>
       <use xlink:href="#ma0f05578ef" x="72.542" y="360.479313" style="stroke: #000000; stroke-width: 0.8"/>
      </g>
     </g>
     <g id="text_9">
      <!-- 0.05 -->
      <g transform="translate(38.82325 365.038376) scale(0.12 -0.12)">
       <use xlink:href="#DejaVuSans-30"/>
       <use xlink:href="#DejaVuSans-2e" x="63.623047"/>
       <use xlink:href="#DejaVuSans-30" x="95.410156"/>
       <use xlink:href="#DejaVuSans-35" x="159.033203"/>
      </g>
     </g>
    </g>
    <g id="ytick_2">
     <g id="line2d_17">
      <path d="M 72.542 291.568201 
L 709.2 291.568201 
" clip-path="url(#pba7acca13b)" style="fill: none; stroke-dasharray: 2.96,1.28; stroke-dashoffset: 0; stroke: #b0b0b0; stroke-opacity: 0.01; stroke-width: 0.8"/>
     </g>
     <g id="line2d_18">
      <g>
       <use xlink:href="#ma0f05578ef" x="72.542" y="291.568201" style="stroke: #000000; stroke-width: 0.8"/>
      </g>
     </g>
     <g id="text_10">
      <!-- 0.10 -->
      <g transform="translate(38.82325 296.127264) scale(0.12 -0.12)">
       <use xlink:href="#DejaVuSans-30"/>
       <use xlink:href="#DejaVuSans-2e" x="63.623047"/>
       <use xlink:href="#DejaVuSans-31" x="95.410156"/>
       <use xlink:href="#DejaVuSans-30" x="159.033203"/>
      </g>
     </g>
    </g>
    <g id="ytick_3">
     <g id="line2d_19">
      <path d="M 72.542 222.657089 
L 709.2 222.657089 
" clip-path="url(#pba7acca13b)" style="fill: none; stroke-dasharray: 2.96,1.28; stroke-dashoffset: 0; stroke: #b0b0b0; stroke-opacity: 0.01; stroke-width: 0.8"/>
     </g>
     <g id="line2d_20">
      <g>
       <use xlink:href="#ma0f05578ef" x="72.542" y="222.657089" style="stroke: #000000; stroke-width: 0.8"/>
      </g>
     </g>
     <g id="text_11">
      <!-- 0.15 -->
      <g transform="translate(38.82325 227.216152) scale(0.12 -0.12)">
       <use xlink:href="#DejaVuSans-30"/>
       <use xlink:href="#DejaVuSans-2e" x="63.623047"/>
       <use xlink:href="#DejaVuSans-31" x="95.410156"/>
       <use xlink:href="#DejaVuSans-35" x="159.033203"/>
      </g>
     </g>
    </g>
    <g id="ytick_4">
     <g id="line2d_21">
      <path d="M 72.542 153.745977 
L 709.2 153.745977 
" clip-path="url(#pba7acca13b)" style="fill: none; stroke-dasharray: 2.96,1.28; stroke-dashoffset: 0; stroke: #b0b0b0; stroke-opacity: 0.01; stroke-width: 0.8"/>
     </g>
     <g id="line2d_22">
      <g>
       <use xlink:href="#ma0f05578ef" x="72.542" y="153.745977" style="stroke: #000000; stroke-width: 0.8"/>
      </g>
     </g>
     <g id="text_12">
      <!-- 0.20 -->
      <g transform="translate(38.82325 158.30504) scale(0.12 -0.12)">
       <use xlink:href="#DejaVuSans-30"/>
       <use xlink:href="#DejaVuSans-2e" x="63.623047"/>
       <use xlink:href="#DejaVuSans-32" x="95.410156"/>
       <use xlink:href="#DejaVuSans-30" x="159.033203"/>
      </g>
     </g>
    </g>
    <g id="ytick_5">
     <g id="line2d_23">
      <path d="M 72.542 84.834865 
L 709.2 84.834865 
" clip-path="url(#pba7acca13b)" style="fill: none; stroke-dasharray: 2.96,1.28; stroke-dashoffset: 0; stroke: #b0b0b0; stroke-opacity: 0.01; stroke-width: 0.8"/>
     </g>
     <g id="line2d_24">
      <g>
       <use xlink:href="#ma0f05578ef" x="72.542" y="84.834865" style="stroke: #000000; stroke-width: 0.8"/>
      </g>
     </g>
     <g id="text_13">
      <!-- 0.25 -->
      <g transform="translate(38.82325 89.393928) scale(0.12 -0.12)">
       <use xlink:href="#DejaVuSans-30"/>
       <use xlink:href="#DejaVuSans-2e" x="63.623047"/>
       <use xlink:href="#DejaVuSans-32" x="95.410156"/>
       <use xlink:href="#DejaVuSans-35" x="159.033203"/>
      </g>
     </g>
    </g>
    <g id="ytick_6">
     <g id="line2d_25">
      <path d="M 72.542 15.923753 
L 709.2 15.923753 
" clip-path="url(#pba7acca13b)" style="fill: none; stroke-dasharray: 2.96,1.28; stroke-dashoffset: 0; stroke: #b0b0b0; stroke-opacity: 0.01; stroke-width: 0.8"/>
     </g>
     <g id="line2d_26">
      <g>
       <use xlink:href="#ma0f05578ef" x="72.542" y="15.923753" style="stroke: #000000; stroke-width: 0.8"/>
      </g>
     </g>
     <g id="text_14">
      <!-- 0.30 -->
      <g transform="translate(38.82325 20.482816) scale(0.12 -0.12)">
       <use xlink:href="#DejaVuSans-30"/>
       <use xlink:href="#DejaVuSans-2e" x="63.623047"/>
       <use xlink:href="#DejaVuSans-33" x="95.410156"/>
       <use xlink:href="#DejaVuSans-30" x="159.033203"/>
      </g>
     </g>
    </g>
    <g id="text_15">
     <!-- $\Gamma_{\mathrm{sphal}}/T^4$ -->
     <g transform="translate(29.31325 228.858489) rotate(-90) scale(0.19 -0.19)">
      <defs>
       <path id="STIXGeneral-Regular-393" d="M 3693 3162 
L 3533 3162 
Q 3482 3642 3299 3818 
Q 3117 3994 2637 3994 
L 1517 3994 
Q 1382 3994 1334 3942 
Q 1286 3891 1286 3738 
L 1286 723 
Q 1286 352 1388 246 
Q 1491 141 1869 122 
L 1869 0 
L 70 0 
L 70 122 
Q 435 147 534 262 
Q 634 378 634 794 
L 634 3526 
Q 634 3878 538 3984 
Q 442 4090 77 4115 
L 77 4237 
L 3661 4237 
L 3693 3162 
z
" transform="scale(0.015625)"/>
       <path id="STIXGeneral-Regular-73" d="M 998 1926 
L 1664 1523 
Q 1984 1331 2105 1164 
Q 2227 998 2227 736 
Q 2227 416 1961 176 
Q 1696 -64 1331 -64 
Q 1030 -64 864 -6 
Q 691 51 570 51 
Q 461 51 416 -26 
L 333 -26 
L 333 979 
L 435 979 
Q 538 512 730 294 
Q 922 77 1248 77 
Q 1485 77 1632 211 
Q 1779 346 1779 550 
Q 1779 845 1440 1030 
L 1094 1222 
Q 326 1651 326 2150 
Q 326 2522 566 2730 
Q 806 2938 1210 2938 
Q 1491 2938 1638 2867 
Q 1754 2816 1818 2816 
Q 1862 2816 1920 2880 
L 1990 2880 
L 2022 2010 
L 1926 2010 
Q 1818 2445 1654 2621 
Q 1491 2797 1203 2797 
Q 986 2797 854 2688 
Q 723 2579 723 2362 
Q 723 2253 796 2128 
Q 870 2003 998 1926 
z
" transform="scale(0.015625)"/>
       <path id="STIXGeneral-Regular-70" d="M 1018 2931 
L 1018 2438 
Q 1421 2944 1939 2944 
Q 2406 2944 2707 2560 
Q 3008 2176 3008 1581 
Q 3008 883 2621 409 
Q 2234 -64 1664 -64 
Q 1466 -64 1328 -6 
Q 1190 51 1018 211 
L 1018 -794 
Q 1018 -1094 1120 -1180 
Q 1222 -1267 1581 -1274 
L 1581 -1389 
L 32 -1389 
L 32 -1280 
Q 314 -1254 397 -1171 
Q 480 -1088 480 -838 
L 480 2157 
Q 480 2381 429 2451 
Q 378 2522 218 2522 
Q 115 2522 58 2515 
L 58 2618 
Q 506 2752 979 2944 
L 1018 2931 
z
M 1018 2138 
L 1018 563 
Q 1018 422 1238 281 
Q 1459 141 1683 141 
Q 2029 141 2243 467 
Q 2458 794 2458 1325 
Q 2458 1888 2243 2224 
Q 2029 2560 1670 2560 
Q 1446 2560 1232 2419 
Q 1018 2278 1018 2138 
z
" transform="scale(0.015625)"/>
       <path id="STIXGeneral-Regular-68" d="M 3117 0 
L 1760 0 
L 1760 96 
Q 2042 128 2118 224 
Q 2195 320 2195 653 
L 2195 1920 
Q 2195 2598 1722 2598 
Q 1530 2598 1370 2508 
Q 1210 2419 1005 2195 
L 1005 653 
Q 1005 320 1081 224 
Q 1158 128 1440 96 
L 1440 0 
L 58 0 
L 58 96 
Q 333 134 400 224 
Q 467 314 467 653 
L 467 3667 
Q 467 3872 406 3933 
Q 346 3994 141 3994 
Q 83 3994 64 3987 
L 64 4090 
L 237 4141 
Q 730 4288 973 4371 
L 1005 4352 
L 1005 2406 
Q 1229 2694 1446 2819 
Q 1664 2944 1946 2944 
Q 2733 2944 2733 1926 
L 2733 653 
Q 2733 320 2793 233 
Q 2854 147 3117 96 
L 3117 0 
z
" transform="scale(0.015625)"/>
       <path id="STIXGeneral-Regular-61" d="M 2829 422 
L 2829 243 
Q 2586 -64 2253 -64 
Q 1888 -64 1843 403 
L 1837 403 
Q 1427 -64 909 -64 
Q 608 -64 422 112 
Q 237 288 237 602 
Q 237 1050 685 1350 
Q 992 1555 1837 1869 
L 1837 2214 
Q 1837 2502 1699 2646 
Q 1562 2790 1338 2790 
Q 1146 2790 1018 2697 
Q 890 2605 890 2477 
Q 890 2419 909 2348 
Q 928 2278 928 2208 
Q 928 2112 841 2029 
Q 755 1946 634 1946 
Q 525 1946 441 2029 
Q 358 2112 358 2240 
Q 358 2547 685 2752 
Q 986 2944 1421 2944 
Q 1939 2944 2176 2656 
Q 2291 2522 2323 2384 
Q 2355 2246 2355 1946 
L 2355 723 
Q 2355 301 2554 301 
Q 2682 301 2829 422 
z
M 1837 813 
L 1837 1715 
Q 1248 1510 1018 1293 
Q 800 1094 800 800 
Q 800 557 921 432 
Q 1043 307 1242 307 
Q 1453 307 1613 410 
Q 1747 506 1792 589 
Q 1837 672 1837 813 
z
" transform="scale(0.015625)"/>
       <path id="STIXGeneral-Regular-6c" d="M 1645 0 
L 134 0 
L 134 96 
Q 435 122 531 221 
Q 627 320 627 589 
L 627 3590 
Q 627 3821 569 3910 
Q 512 4000 358 4000 
Q 224 4000 122 3987 
L 122 4090 
Q 730 4237 1133 4371 
L 1165 4346 
L 1165 557 
Q 1165 288 1254 201 
Q 1344 115 1645 96 
L 1645 0 
z
" transform="scale(0.015625)"/>
       <path id="STIXGeneral-Regular-34" d="M 3027 1069 
L 2368 1069 
L 2368 0 
L 1869 0 
L 1869 1069 
L 77 1069 
L 77 1478 
L 2086 4326 
L 2368 4326 
L 2368 1478 
L 3027 1478 
L 3027 1069 
z
M 1869 1478 
L 1869 3674 
L 333 1478 
L 1869 1478 
z
" transform="scale(0.015625)"/>
      </defs>
      <use xlink:href="#STIXGeneral-Regular-393" transform="translate(0 0.409375)"/>
      <use xlink:href="#STIXGeneral-Regular-73" transform="translate(60.243278 -12.81875) scale(0.7)"/>
      <use xlink:href="#STIXGeneral-Regular-70" transform="translate(87.473274 -12.81875) scale(0.7)"/>
      <use xlink:href="#STIXGeneral-Regular-68" transform="translate(122.473263 -12.81875) scale(0.7)"/>
      <use xlink:href="#STIXGeneral-Regular-61" transform="translate(157.473253 -12.81875) scale(0.7)"/>
      <use xlink:href="#STIXGeneral-Regular-6c" transform="translate(188.553248 -12.81875) scale(0.7)"/>
      <use xlink:href="#STIXGeneral-Regular-2f" transform="translate(212.422615 0.409375)"/>
      <use xlink:href="#STIXGeneral-Italic-54" transform="translate(240.222603 0.409375)"/>
      <use xlink:href="#STIXGeneral-Regular-34" transform="translate(306.448375 35.684375) scale(0.7)"/>
     </g>
    </g>
   </g>
   <g id="LineCollection_1">
    <path d="M 101.481 360.617135 
L 101.481 320.40061 
" clip-path="url(#pba7acca13b)" style="fill: none; stroke: #002b72; stroke-opacity: 0.99; stroke-width: 1.5"/>
   </g>
   <g id="line2d_27">
    <defs>
     <path id="mb6fdab2aff" d="M 4.5 0 
L -4.5 -0 
" style="stroke: #002b72; stroke-opacity: 0.99; stroke-width: 1.8"/>
    </defs>
    <g clip-path="url(#pba7acca13b)">
     <use xlink:href="#mb6fdab2aff" x="101.481" y="360.617135" style="fill: #002b72; fill-opacity: 0.99; stroke: #002b72; stroke-opacity: 0.99; stroke-width: 1.8"/>
    </g>
   </g>
   <g id="line2d_28">
    <g clip-path="url(#pba7acca13b)">
     <use xlink:href="#mb6fdab2aff" x="101.481" y="320.40061" style="fill: #002b72; fill-opacity: 0.99; stroke: #002b72; stroke-opacity: 0.99; stroke-width: 1.8"/>
    </g>
   </g>
   <g id="LineCollection_2">
    <path d="M 197.944333 272.672774 
L 197.944333 215.752196 
" clip-path="url(#pba7acca13b)" style="fill: none; stroke: #002b72; stroke-opacity: 0.99; stroke-width: 1.5"/>
   </g>
   <g id="line2d_29">
    <g clip-path="url(#pba7acca13b)">
     <use xlink:href="#mb6fdab2aff" x="197.944333" y="272.672774" style="fill: #002b72; fill-opacity: 0.99; stroke: #002b72; stroke-opacity: 0.99; stroke-width: 1.8"/>
    </g>
   </g>
   <g id="line2d_30">
    <g clip-path="url(#pba7acca13b)">
     <use xlink:href="#mb6fdab2aff" x="197.944333" y="215.752196" style="fill: #002b72; fill-opacity: 0.99; stroke: #002b72; stroke-opacity: 0.99; stroke-width: 1.8"/>
    </g>
   </g>
   <g id="LineCollection_3">
    <path d="M 294.407667 160.278751 
L 294.407667 97.459381 
" clip-path="url(#pba7acca13b)" style="fill: none; stroke: #002b72; stroke-opacity: 0.99; stroke-width: 1.5"/>
   </g>
   <g id="line2d_31">
    <g clip-path="url(#pba7acca13b)">
     <use xlink:href="#mb6fdab2aff" x="294.407667" y="160.278751" style="fill: #002b72; fill-opacity: 0.99; stroke: #002b72; stroke-opacity: 0.99; stroke-width: 1.8"/>
    </g>
   </g>
   <g id="line2d_32">
    <g clip-path="url(#pba7acca13b)">
     <use xlink:href="#mb6fdab2aff" x="294.407667" y="97.459381" style="fill: #002b72; fill-opacity: 0.99; stroke: #002b72; stroke-opacity: 0.99; stroke-width: 1.8"/>
    </g>
   </g>
   <g id="LineCollection_4">
    <path d="M 390.871 184.314947 
L 390.871 78.743123 
" clip-path="url(#pba7acca13b)" style="fill: none; stroke: #002b72; stroke-opacity: 0.99; stroke-width: 1.5"/>
   </g>
   <g id="line2d_33">
    <g clip-path="url(#pba7acca13b)">
     <use xlink:href="#mb6fdab2aff" x="390.871" y="184.314947" style="fill: #002b72; fill-opacity: 0.99; stroke: #002b72; stroke-opacity: 0.99; stroke-width: 1.8"/>
    </g>
   </g>
   <g id="line2d_34">
    <g clip-path="url(#pba7acca13b)">
     <use xlink:href="#mb6fdab2aff" x="390.871" y="78.743123" style="fill: #002b72; fill-opacity: 0.99; stroke: #002b72; stroke-opacity: 0.99; stroke-width: 1.8"/>
    </g>
   </g>
   <g id="LineCollection_5">
    <path d="M 487.334333 142.16891 
L 487.334333 31.359842 
" clip-path="url(#pba7acca13b)" style="fill: none; stroke: #002b72; stroke-opacity: 0.99; stroke-width: 1.5"/>
   </g>
   <g id="line2d_35">
    <g clip-path="url(#pba7acca13b)">
     <use xlink:href="#mb6fdab2aff" x="487.334333" y="142.16891" style="fill: #002b72; fill-opacity: 0.99; stroke: #002b72; stroke-opacity: 0.99; stroke-width: 1.8"/>
    </g>
   </g>
   <g id="line2d_36">
    <g clip-path="url(#pba7acca13b)">
     <use xlink:href="#mb6fdab2aff" x="487.334333" y="31.359842" style="fill: #002b72; fill-opacity: 0.99; stroke: #002b72; stroke-opacity: 0.99; stroke-width: 1.8"/>
    </g>
   </g>
   <g id="LineCollection_6">
    <path d="M 583.797667 186.547667 
L 583.797667 103.578688 
" clip-path="url(#pba7acca13b)" style="fill: none; stroke: #002b72; stroke-opacity: 0.99; stroke-width: 1.5"/>
   </g>
   <g id="line2d_37">
    <g clip-path="url(#pba7acca13b)">
     <use xlink:href="#mb6fdab2aff" x="583.797667" y="186.547667" style="fill: #002b72; fill-opacity: 0.99; stroke: #002b72; stroke-opacity: 0.99; stroke-width: 1.8"/>
    </g>
   </g>
   <g id="line2d_38">
    <g clip-path="url(#pba7acca13b)">
     <use xlink:href="#mb6fdab2aff" x="583.797667" y="103.578688" style="fill: #002b72; fill-opacity: 0.99; stroke: #002b72; stroke-opacity: 0.99; stroke-width: 1.8"/>
    </g>
   </g>
   <g id="LineCollection_7">
    <path d="M 680.261 214.525578 
L 680.261 68.158376 
" clip-path="url(#pba7acca13b)" style="fill: none; stroke: #002b72; stroke-opacity: 0.99; stroke-width: 1.5"/>
   </g>
   <g id="line2d_39">
    <g clip-path="url(#pba7acca13b)">
     <use xlink:href="#mb6fdab2aff" x="680.261" y="214.525578" style="fill: #002b72; fill-opacity: 0.99; stroke: #002b72; stroke-opacity: 0.99; stroke-width: 1.8"/>
    </g>
   </g>
   <g id="line2d_40">
    <g clip-path="url(#pba7acca13b)">
     <use xlink:href="#mb6fdab2aff" x="680.261" y="68.158376" style="fill: #002b72; fill-opacity: 0.99; stroke: #002b72; stroke-opacity: 0.99; stroke-width: 1.8"/>
    </g>
   </g>
   <g id="line2d_41">
    <defs>
     <path id="me7c8a900e8" d="M 0 4 
C 1.060812 4 2.078319 3.578535 2.828427 2.828427 
C 3.578535 2.078319 4 1.060812 4 0 
C 4 -1.060812 3.578535 -2.078319 2.828427 -2.828427 
C 2.078319 -3.578535 1.060812 -4 0 -4 
C -1.060812 -4 -2.078319 -3.578535 -2.828427 -2.828427 
C -3.578535 -2.078319 -4 -1.060812 -4 0 
C -4 1.060812 -3.578535 2.078319 -2.828427 2.828427 
C -2.078319 3.578535 -1.060812 4 0 4 
z
" style="stroke: #002b72; stroke-opacity: 0.99; stroke-width: 1.8"/>
    </defs>
    <g clip-path="url(#pba7acca13b)">
     <use xlink:href="#me7c8a900e8" x="101.481" y="340.508873" style="fill: #7bbdd3; fill-opacity: 0.99; stroke: #002b72; stroke-opacity: 0.99; stroke-width: 1.8"/>
    </g>
   </g>
   <g id="line2d_42">
    <g clip-path="url(#pba7acca13b)">
     <use xlink:href="#me7c8a900e8" x="197.944333" y="244.212485" style="fill: #7bbdd3; fill-opacity: 0.99; stroke: #002b72; stroke-opacity: 0.99; stroke-width: 1.8"/>
    </g>
   </g>
   <g id="line2d_43">
    <g clip-path="url(#pba7acca13b)">
     <use xlink:href="#me7c8a900e8" x="294.407667" y="128.869066" style="fill: #7bbdd3; fill-opacity: 0.99; stroke: #002b72; stroke-opacity: 0.99; stroke-width: 1.8"/>
    </g>
   </g>
   <g id="line2d_44">
    <g clip-path="url(#pba7acca13b)">
     <use xlink:href="#me7c8a900e8" x="390.871" y="131.529035" style="fill: #7bbdd3; fill-opacity: 0.99; stroke: #002b72; stroke-opacity: 0.99; stroke-width: 1.8"/>
    </g>
   </g>
   <g id="line2d_45">
    <g clip-path="url(#pba7acca13b)">
     <use xlink:href="#me7c8a900e8" x="487.334333" y="86.764376" style="fill: #7bbdd3; fill-opacity: 0.99; stroke: #002b72; stroke-opacity: 0.99; stroke-width: 1.8"/>
    </g>
   </g>
   <g id="line2d_46">
    <g clip-path="url(#pba7acca13b)">
     <use xlink:href="#me7c8a900e8" x="583.797667" y="145.063177" style="fill: #7bbdd3; fill-opacity: 0.99; stroke: #002b72; stroke-opacity: 0.99; stroke-width: 1.8"/>
    </g>
   </g>
   <g id="line2d_47">
    <g clip-path="url(#pba7acca13b)">
     <use xlink:href="#me7c8a900e8" x="680.261" y="141.341977" style="fill: #7bbdd3; fill-opacity: 0.99; stroke: #002b72; stroke-opacity: 0.99; stroke-width: 1.8"/>
    </g>
   </g>
   <g id="patch_3">
    <path d="M 72.542 377.08 
L 72.542 14.896978 
" style="fill: none; stroke: #000000; stroke-width: 0.8; stroke-linejoin: miter; stroke-linecap: square"/>
   </g>
   <g id="patch_4">
    <path d="M 709.2 377.08 
L 709.2 14.896978 
" style="fill: none; stroke: #000000; stroke-width: 0.8; stroke-linejoin: miter; stroke-linecap: square"/>
   </g>
   <g id="patch_5">
    <path d="M 72.542 377.08 
L 709.2 377.08 
" style="fill: none; stroke: #000000; stroke-width: 0.8; stroke-linejoin: miter; stroke-linecap: square"/>
   </g>
   <g id="patch_6">
    <path d="M 72.542 14.896978 
L 709.2 14.896978 
" style="fill: none; stroke: #000000; stroke-width: 0.8; stroke-linejoin: miter; stroke-linecap: square"/>
   </g>
   <g id="legend_1"/>
  </g>
 </g>
 <defs>
  <clipPath id="pba7acca13b">
   <rect x="72.542" y="14.896978" width="636.658" height="362.183022"/>
  </clipPath>
 </defs>
</svg>
