<?xml version="1.0" encoding="utf-8" standalone="no"?>
<!DOCTYPE svg PUBLIC "-//W3C//DTD SVG 1.1//EN"
  "http://www.w3.org/Graphics/SVG/1.1/DTD/svg11.dtd">
<svg xmlns:xlink="http://www.w3.org/1999/xlink" width="936pt" height="288pt" viewBox="0 0 936 288" xmlns="http://www.w3.org/2000/svg" version="1.1">
 <metadata>
  <rdf:RDF xmlns:dc="http://purl.org/dc/elements/1.1/" xmlns:cc="http://creativecommons.org/ns#" xmlns:rdf="http://www.w3.org/1999/02/22-rdf-syntax-ns#">
   <cc:Work>
    <dc:type rdf:resource="http://purl.org/dc/dcmitype/StillImage"/>
    <dc:date>2025-11-23T20:36:25.533305</dc:date>
    <dc:format>image/svg+xml</dc:format>
    <dc:creator>
     <cc:Agent>
      <dc:title>Matplotlib v3.7.2, https://matplotlib.org/</dc:title>
     </cc:Agent>
    </dc:creator>
   </cc:Work>
  </rdf:RDF>
 </metadata>
 <defs>
  <style type="text/css">*{stroke-linejoin: round; stroke-linecap: butt}</style>
 </defs>
 <g id="figure_1">
  <g id="patch_1">
   <path d="M 0 288 
L 936 288 
L 936 0 
L 0 0 
L 0 288 
z
" style="fill: none"/>
  </g>
  <g id="axes_1">
   <g id="patch_2">
    <path d="M 56.16 236.16 
L 447.578182 236.16 
L 447.578182 25.92 
L 56.16 25.92 
L 56.16 236.16 
z
" style="fill: none"/>
   </g>
   <g id="matplotlib.axis_1">
    <g id="xtick_1">
     <g id="line2d_1">
      <defs>
       <path id="m0a447be6a8" d="M 0 0 
L 0 3.5 
" style="stroke: #000000; stroke-width: 0.8"/>
      </defs>
      <g>
       <use xlink:href="#m0a447be6a8" x="73.951736" y="236.16" style="stroke: #000000; stroke-width: 0.8"/>
      </g>
     </g>
     <g id="text_1">
      <!-- 0.0 -->
      <g transform="translate(64.409861 252.278125) scale(0.12 -0.12)">
       <defs>
        <path id="DejaVuSans-30" d="M 2034 4250 
Q 1547 4250 1301 3770 
Q 1056 3291 1056 2328 
Q 1056 1369 1301 889 
Q 1547 409 2034 409 
Q 2525 409 2770 889 
Q 3016 1369 3016 2328 
Q 3016 3291 2770 3770 
Q 2525 4250 2034 4250 
z
M 2034 4750 
Q 2819 4750 3233 4129 
Q 3647 3509 3647 2328 
Q 3647 1150 3233 529 
Q 2819 -91 2034 -91 
Q 1250 -91 836 529 
Q 422 1150 422 2328 
Q 422 3509 836 4129 
Q 1250 4750 2034 4750 
z
" transform="scale(0.015625)"/>
        <path id="DejaVuSans-2e" d="M 684 794 
L 1344 794 
L 1344 0 
L 684 0 
L 684 794 
z
" transform="scale(0.015625)"/>
       </defs>
       <use xlink:href="#DejaVuSans-30"/>
       <use xlink:href="#DejaVuSans-2e" x="63.623047"/>
       <use xlink:href="#DejaVuSans-30" x="95.410156"/>
      </g>
     </g>
    </g>
    <g id="xtick_2">
     <g id="line2d_2">
      <g>
       <use xlink:href="#m0a447be6a8" x="133.257521" y="236.16" style="stroke: #000000; stroke-width: 0.8"/>
      </g>
     </g>
     <g id="text_2">
      <!-- 0.5 -->
      <g transform="translate(123.715646 252.278125) scale(0.12 -0.12)">
       <defs>
        <path id="DejaVuSans-35" d="M 691 4666 
L 3169 4666 
L 3169 4134 
L 1269 4134 
L 1269 2991 
Q 1406 3038 1543 3061 
Q 1681 3084 1819 3084 
Q 2600 3084 3056 2656 
Q 3513 2228 3513 1497 
Q 3513 744 3044 326 
Q 2575 -91 1722 -91 
Q 1428 -91 1123 -41 
Q 819 9 494 109 
L 494 744 
Q 775 591 1075 516 
Q 1375 441 1709 441 
Q 2250 441 2565 725 
Q 2881 1009 2881 1497 
Q 2881 1984 2565 2268 
Q 2250 2553 1709 2553 
Q 1456 2553 1204 2497 
Q 953 2441 691 2322 
L 691 4666 
z
" transform="scale(0.015625)"/>
       </defs>
       <use xlink:href="#DejaVuSans-30"/>
       <use xlink:href="#DejaVuSans-2e" x="63.623047"/>
       <use xlink:href="#DejaVuSans-35" x="95.410156"/>
      </g>
     </g>
    </g>
    <g id="xtick_3">
     <g id="line2d_3">
      <g>
       <use xlink:href="#m0a447be6a8" x="192.563306" y="236.16" style="stroke: #000000; stroke-width: 0.8"/>
      </g>
     </g>
     <g id="text_3">
      <!-- 1.0 -->
      <g transform="translate(183.021431 252.278125) scale(0.12 -0.12)">
       <defs>
        <path id="DejaVuSans-31" d="M 794 531 
L 1825 531 
L 1825 4091 
L 703 3866 
L 703 4441 
L 1819 4666 
L 2450 4666 
L 2450 531 
L 3481 531 
L 3481 0 
L 794 0 
L 794 531 
z
" transform="scale(0.015625)"/>
       </defs>
       <use xlink:href="#DejaVuSans-31"/>
       <use xlink:href="#DejaVuSans-2e" x="63.623047"/>
       <use xlink:href="#DejaVuSans-30" x="95.410156"/>
      </g>
     </g>
    </g>
    <g id="xtick_4">
     <g id="line2d_4">
      <g>
       <use xlink:href="#m0a447be6a8" x="251.869091" y="236.16" style="stroke: #000000; stroke-width: 0.8"/>
      </g>
     </g>
     <g id="text_4">
      <!-- 1.5 -->
      <g transform="translate(242.327216 252.278125) scale(0.12 -0.12)">
       <use xlink:href="#DejaVuSans-31"/>
       <use xlink:href="#DejaVuSans-2e" x="63.623047"/>
       <use xlink:href="#DejaVuSans-35" x="95.410156"/>
      </g>
     </g>
    </g>
    <g id="xtick_5">
     <g id="line2d_5">
      <g>
       <use xlink:href="#m0a447be6a8" x="311.174876" y="236.16" style="stroke: #000000; stroke-width: 0.8"/>
      </g>
     </g>
     <g id="text_5">
      <!-- 2.0 -->
      <g transform="translate(301.633001 252.278125) scale(0.12 -0.12)">
       <defs>
        <path id="DejaVuSans-32" d="M 1228 531 
L 3431 531 
L 3431 0 
L 469 0 
L 469 531 
Q 828 903 1448 1529 
Q 2069 2156 2228 2338 
Q 2531 2678 2651 2914 
Q 2772 3150 2772 3378 
Q 2772 3750 2511 3984 
Q 2250 4219 1831 4219 
Q 1534 4219 1204 4116 
Q 875 4013 500 3803 
L 500 4441 
Q 881 4594 1212 4672 
Q 1544 4750 1819 4750 
Q 2544 4750 2975 4387 
Q 3406 4025 3406 3419 
Q 3406 3131 3298 2873 
Q 3191 2616 2906 2266 
Q 2828 2175 2409 1742 
Q 1991 1309 1228 531 
z
" transform="scale(0.015625)"/>
       </defs>
       <use xlink:href="#DejaVuSans-32"/>
       <use xlink:href="#DejaVuSans-2e" x="63.623047"/>
       <use xlink:href="#DejaVuSans-30" x="95.410156"/>
      </g>
     </g>
    </g>
    <g id="xtick_6">
     <g id="line2d_6">
      <g>
       <use xlink:href="#m0a447be6a8" x="370.480661" y="236.16" style="stroke: #000000; stroke-width: 0.8"/>
      </g>
     </g>
     <g id="text_6">
      <!-- 2.5 -->
      <g transform="translate(360.938786 252.278125) scale(0.12 -0.12)">
       <use xlink:href="#DejaVuSans-32"/>
       <use xlink:href="#DejaVuSans-2e" x="63.623047"/>
       <use xlink:href="#DejaVuSans-35" x="95.410156"/>
      </g>
     </g>
    </g>
    <g id="xtick_7">
     <g id="line2d_7">
      <g>
       <use xlink:href="#m0a447be6a8" x="429.786446" y="236.16" style="stroke: #000000; stroke-width: 0.8"/>
      </g>
     </g>
     <g id="text_7">
      <!-- 3.0 -->
      <g transform="translate(420.244571 252.278125) scale(0.12 -0.12)">
       <defs>
        <path id="DejaVuSans-33" d="M 2597 2516 
Q 3050 2419 3304 2112 
Q 3559 1806 3559 1356 
Q 3559 666 3084 287 
Q 2609 -91 1734 -91 
Q 1441 -91 1130 -33 
Q 819 25 488 141 
L 488 750 
Q 750 597 1062 519 
Q 1375 441 1716 441 
Q 2309 441 2620 675 
Q 2931 909 2931 1356 
Q 2931 1769 2642 2001 
Q 2353 2234 1838 2234 
L 1294 2234 
L 1294 2753 
L 1863 2753 
Q 2328 2753 2575 2939 
Q 2822 3125 2822 3475 
Q 2822 3834 2567 4026 
Q 2313 4219 1838 4219 
Q 1578 4219 1281 4162 
Q 984 4106 628 3988 
L 628 4550 
Q 988 4650 1302 4700 
Q 1616 4750 1894 4750 
Q 2613 4750 3031 4423 
Q 3450 4097 3450 3541 
Q 3450 3153 3228 2886 
Q 3006 2619 2597 2516 
z
" transform="scale(0.015625)"/>
       </defs>
       <use xlink:href="#DejaVuSans-33"/>
       <use xlink:href="#DejaVuSans-2e" x="63.623047"/>
       <use xlink:href="#DejaVuSans-30" x="95.410156"/>
      </g>
     </g>
    </g>
    <g id="text_8">
     <!-- $\omega/T$ -->
     <g transform="translate(237.429091 273.210781) scale(0.19 -0.19)">
      <defs>
       <path id="STIXGeneral-Italic-3c9" d="M 3021 2810 
L 3136 2810 
Q 3648 2810 3898 2598 
Q 4186 2355 4186 1824 
Q 4186 1357 3910 838 
Q 3667 390 3334 160 
Q 3002 -70 2669 -70 
Q 2438 -70 2281 3 
Q 2125 77 2064 160 
Q 2003 243 1939 384 
Q 1741 147 1533 38 
Q 1325 -70 998 -70 
Q 659 -70 416 160 
Q 173 390 173 832 
Q 173 1101 237 1350 
Q 403 1965 883 2387 
Q 1363 2810 2010 2810 
L 2125 2810 
L 2125 2707 
Q 1606 2707 1267 2291 
Q 1024 1990 867 1526 
Q 710 1062 710 666 
Q 710 64 1075 64 
Q 1286 64 1523 285 
Q 1760 506 1856 774 
Q 1837 915 1837 1101 
Q 1837 1363 1914 1651 
Q 1984 1920 2125 2105 
Q 2266 2291 2432 2291 
Q 2656 2291 2656 1997 
Q 2656 1530 2387 1062 
Q 2272 864 2189 736 
Q 2176 691 2176 602 
Q 2176 384 2288 224 
Q 2400 64 2592 64 
Q 3040 64 3341 627 
Q 3482 896 3565 1270 
Q 3648 1645 3648 1971 
Q 3648 2240 3616 2362 
Q 3565 2566 3411 2636 
Q 3258 2707 3021 2707 
L 3021 2810 
z
" transform="scale(0.015625)"/>
       <path id="STIXGeneral-Regular-2f" d="M 1837 4326 
L 378 -90 
L -58 -90 
L 1408 4326 
L 1837 4326 
z
" transform="scale(0.015625)"/>
       <path id="STIXGeneral-Italic-54" d="M 4051 4179 
L 3770 3130 
L 3661 3142 
Q 3680 3302 3680 3437 
Q 3680 3955 3034 3955 
L 2662 3955 
L 1786 819 
Q 1696 506 1696 397 
Q 1696 250 1766 195 
Q 1837 141 2035 122 
L 2259 102 
L 2259 0 
L 416 0 
L 416 102 
Q 749 134 889 230 
Q 1030 326 1101 582 
L 2016 3955 
Q 1254 3955 988 3817 
Q 723 3680 493 3162 
L 378 3187 
L 646 4179 
L 4051 4179 
z
" transform="scale(0.015625)"/>
      </defs>
      <use xlink:href="#STIXGeneral-Italic-3c9" transform="translate(0 0.40625)"/>
      <use xlink:href="#STIXGeneral-Regular-2f" transform="translate(68.599991 0.40625)"/>
      <use xlink:href="#STIXGeneral-Italic-54" transform="translate(96.399979 0.40625)"/>
     </g>
    </g>
   </g>
   <g id="matplotlib.axis_2">
    <g id="ytick_1">
     <g id="line2d_8">
      <defs>
       <path id="mfb02530195" d="M 0 0 
L -3.5 0 
" style="stroke: #000000; stroke-width: 0.8"/>
      </defs>
      <g>
       <use xlink:href="#mfb02530195" x="56.16" y="226.603636" style="stroke: #000000; stroke-width: 0.8"/>
      </g>
     </g>
     <g id="text_9">
      <!-- 0 -->
      <g transform="translate(41.525 231.162699) scale(0.12 -0.12)">
       <use xlink:href="#DejaVuSans-30"/>
      </g>
     </g>
    </g>
    <g id="ytick_2">
     <g id="line2d_9">
      <g>
       <use xlink:href="#mfb02530195" x="56.16" y="188.276242" style="stroke: #000000; stroke-width: 0.8"/>
      </g>
     </g>
     <g id="text_10">
      <!-- 1 -->
      <g transform="translate(41.525 192.835305) scale(0.12 -0.12)">
       <use xlink:href="#DejaVuSans-31"/>
      </g>
     </g>
    </g>
    <g id="ytick_3">
     <g id="line2d_10">
      <g>
       <use xlink:href="#mfb02530195" x="56.16" y="149.948848" style="stroke: #000000; stroke-width: 0.8"/>
      </g>
     </g>
     <g id="text_11">
      <!-- 2 -->
      <g transform="translate(41.525 154.50791) scale(0.12 -0.12)">
       <use xlink:href="#DejaVuSans-32"/>
      </g>
     </g>
    </g>
    <g id="ytick_4">
     <g id="line2d_11">
      <g>
       <use xlink:href="#mfb02530195" x="56.16" y="111.621454" style="stroke: #000000; stroke-width: 0.8"/>
      </g>
     </g>
     <g id="text_12">
      <!-- 3 -->
      <g transform="translate(41.525 116.180516) scale(0.12 -0.12)">
       <use xlink:href="#DejaVuSans-33"/>
      </g>
     </g>
    </g>
    <g id="ytick_5">
     <g id="line2d_12">
      <g>
       <use xlink:href="#mfb02530195" x="56.16" y="73.29406" style="stroke: #000000; stroke-width: 0.8"/>
      </g>
     </g>
     <g id="text_13">
      <!-- 4 -->
      <g transform="translate(41.525 77.853122) scale(0.12 -0.12)">
       <defs>
        <path id="DejaVuSans-34" d="M 2419 4116 
L 825 1625 
L 2419 1625 
L 2419 4116 
z
M 2253 4666 
L 3047 4666 
L 3047 1625 
L 3713 1625 
L 3713 1100 
L 3047 1100 
L 3047 0 
L 2419 0 
L 2419 1100 
L 313 1100 
L 313 1709 
L 2253 4666 
z
" transform="scale(0.015625)"/>
       </defs>
       <use xlink:href="#DejaVuSans-34"/>
      </g>
     </g>
    </g>
    <g id="ytick_6">
     <g id="line2d_13">
      <g>
       <use xlink:href="#mfb02530195" x="56.16" y="34.966665" style="stroke: #000000; stroke-width: 0.8"/>
      </g>
     </g>
     <g id="text_14">
      <!-- 5 -->
      <g transform="translate(41.525 39.525728) scale(0.12 -0.12)">
       <use xlink:href="#DejaVuSans-35"/>
      </g>
     </g>
    </g>
    <g id="text_15">
     <!-- $\rho(\omega)T$ -->
     <g transform="translate(33.535 154.03) rotate(-90) scale(0.19 -0.19)">
      <defs>
       <path id="STIXGeneral-Italic-3c1" d="M -58 -864 
L 422 966 
Q 640 1811 1081 2316 
Q 1523 2822 2042 2822 
Q 2189 2822 2278 2816 
Q 2368 2810 2525 2765 
Q 2682 2720 2774 2633 
Q 2867 2547 2940 2371 
Q 3014 2195 3014 1946 
Q 3014 1210 2403 570 
Q 1792 -70 1107 -70 
Q 864 -70 672 38 
L 442 -864 
Q 378 -1126 243 -1312 
L -256 -1312 
Q -128 -1114 -58 -864 
z
M 2445 1997 
Q 2445 2291 2333 2489 
Q 2221 2688 2022 2688 
Q 1747 2688 1472 2361 
Q 1197 2035 1056 1530 
Q 762 467 762 288 
Q 762 186 851 118 
Q 941 51 1075 51 
Q 1472 58 1798 390 
Q 2125 723 2285 1161 
Q 2445 1600 2445 1997 
z
" transform="scale(0.015625)"/>
       <path id="STIXGeneral-Regular-28" d="M 1946 -1030 
L 1869 -1133 
Q 1126 -710 716 32 
Q 307 774 307 1613 
Q 307 3386 1888 4326 
L 1946 4224 
Q 1293 3667 1075 3126 
Q 858 2586 858 1632 
Q 858 685 1082 96 
Q 1306 -493 1946 -1030 
z
" transform="scale(0.015625)"/>
       <path id="STIXGeneral-Regular-29" d="M 186 4224 
L 262 4326 
Q 992 3891 1408 3148 
Q 1824 2406 1824 1581 
Q 1824 -166 243 -1133 
L 186 -1030 
Q 845 -486 1059 54 
Q 1274 595 1274 1562 
Q 1274 2534 1059 3120 
Q 845 3706 186 4224 
z
" transform="scale(0.015625)"/>
      </defs>
      <use xlink:href="#STIXGeneral-Italic-3c1" transform="translate(0 0.40625)"/>
      <use xlink:href="#STIXGeneral-Regular-28" transform="translate(50.399994 0.40625)"/>
      <use xlink:href="#STIXGeneral-Italic-3c9" transform="translate(83.699982 0.40625)"/>
      <use xlink:href="#STIXGeneral-Regular-29" transform="translate(152.299973 0.40625)"/>
      <use xlink:href="#STIXGeneral-Italic-54" transform="translate(185.59996 0.40625)"/>
     </g>
    </g>
   </g>
   <g id="line2d_14">
    <path d="M 73.951736 226.603636 
L 132.103712 226.497356 
L 135.070649 226.264043 
L 137.048608 225.905875 
L 138.630974 225.40049 
L 140.015545 224.709346 
L 141.20232 223.855401 
L 142.191299 222.900776 
L 143.180278 221.668455 
L 144.169258 220.097079 
L 145.158237 218.118052 
L 146.147216 215.656649 
L 147.136195 212.633847 
L 148.125174 208.968962 
L 149.311949 203.61288 
L 150.498724 197.095234 
L 151.685499 189.317728 
L 153.07007 178.576042 
L 154.454641 166.043009 
L 156.037008 149.698876 
L 158.212762 124.531448 
L 162.762066 70.931945 
L 164.146637 57.48822 
L 165.333412 48.09544 
L 166.322391 42.088827 
L 167.113575 38.6144 
L 167.706962 36.83349 
L 168.30035 35.78339 
L 168.695941 35.49574 
L 169.091533 35.540022 
L 169.487125 35.916005 
L 169.882716 36.621732 
L 170.476104 38.29011 
L 171.069491 40.672362 
L 171.860675 44.91052 
L 172.849654 51.790068 
L 174.036429 62.078655 
L 175.421 76.319923 
L 177.398958 99.341087 
L 181.750467 150.848613 
L 183.530629 168.93718 
L 185.112996 182.672902 
L 186.497567 192.760081 
L 187.684342 199.995857 
L 188.871117 206.009296 
L 190.057892 210.911079 
L 191.244667 214.831747 
L 192.431442 217.909925 
L 193.420421 219.93073 
L 194.4094 221.537146 
L 195.596175 223.014826 
L 196.78295 224.100984 
L 197.969725 224.885502 
L 199.354296 225.517452 
L 200.936663 225.977055 
L 202.914621 226.300711 
L 205.683763 226.501839 
L 210.628659 226.591887 
L 233.968568 226.603636 
L 429.786446 226.603636 
L 429.786446 226.603636 
" clip-path="url(#pa9244d918d)" style="fill: none; stroke: #1f77b4; stroke-width: 2; stroke-linecap: square"/>
   </g>
   <g id="line2d_15">
    <path d="M 73.951736 226.603636 
L 116.082249 226.4961 
L 119.246982 226.255972 
L 121.422736 225.873353 
L 123.005103 225.391442 
L 124.389674 224.757619 
L 125.576449 224.000809 
L 126.763224 222.990691 
L 127.949999 221.666399 
L 129.136774 219.961416 
L 130.323549 217.806342 
L 131.510324 215.132891 
L 132.697099 211.879129 
L 133.883874 207.99577 
L 135.268445 202.631373 
L 136.653016 196.371059 
L 138.235383 188.205103 
L 140.411137 175.626441 
L 144.960441 148.813589 
L 146.345012 142.077924 
L 147.531787 137.364328 
L 148.520766 134.341789 
L 149.311949 132.585098 
L 149.905337 131.677078 
L 150.498724 131.131397 
L 151.092112 130.953593 
L 151.487704 131.04015 
L 152.081091 131.475627 
L 152.674479 132.271802 
L 153.267866 133.417786 
L 154.05905 135.463117 
L 155.048029 138.783069 
L 156.234804 143.729527 
L 157.619375 150.51582 
L 160.19072 164.550615 
L 162.564271 177.009647 
L 163.948841 183.185248 
L 165.135616 187.510726 
L 166.124596 190.304544 
L 166.915779 191.95567 
L 167.706962 193.058218 
L 168.30035 193.514173 
L 168.893737 193.647372 
L 169.487125 193.456625 
L 170.080512 192.943634 
L 170.6739 192.112988 
L 171.465083 190.52466 
L 172.256267 188.410872 
L 173.245246 185.083307 
L 174.432021 180.20261 
L 175.816592 173.527861 
L 177.992346 161.77461 
L 180.761488 146.977675 
L 182.146058 140.701024 
L 183.332833 136.353105 
L 184.321813 133.626567 
L 185.112996 132.104324 
L 185.706383 131.371603 
L 186.299771 131.001055 
L 186.695363 130.958209 
L 187.090954 131.079497 
L 187.684342 131.568204 
L 188.277729 132.420402 
L 189.068913 134.105586 
L 189.860096 136.386985 
L 190.849075 140.007606 
L 192.03585 145.332056 
L 193.420421 152.606883 
L 195.596175 165.432342 
L 199.354296 187.699196 
L 201.134459 196.878548 
L 202.716825 203.88397 
L 204.101396 209.050122 
L 205.485967 213.327254 
L 206.672742 216.329098 
L 207.859517 218.775624 
L 209.046292 220.73216 
L 210.233067 222.268031 
L 211.419842 223.451836 
L 212.606617 224.347972 
L 213.991188 225.106746 
L 215.573555 225.690906 
L 217.353717 226.097575 
L 219.727267 226.38541 
L 223.089797 226.544085 
L 230.210447 226.601122 
L 327.723794 226.603636 
L 429.786446 226.603636 
L 429.786446 226.603636 
" clip-path="url(#pa9244d918d)" style="fill: none; stroke-dasharray: 5.55,2.4; stroke-dashoffset: 0; stroke: #ff7f0e; stroke-width: 1.5"/>
   </g>
   <g id="patch_3">
    <path d="M 56.16 236.16 
L 56.16 25.92 
" style="fill: none; stroke: #000000; stroke-width: 0.8; stroke-linejoin: miter; stroke-linecap: square"/>
   </g>
   <g id="patch_4">
    <path d="M 447.578182 236.16 
L 447.578182 25.92 
" style="fill: none; stroke: #000000; stroke-width: 0.8; stroke-linejoin: miter; stroke-linecap: square"/>
   </g>
   <g id="patch_5">
    <path d="M 56.16 236.16 
L 447.578182 236.16 
" style="fill: none; stroke: #000000; stroke-width: 0.8; stroke-linejoin: miter; stroke-linecap: square"/>
   </g>
   <g id="patch_6">
    <path d="M 56.16 25.92 
L 447.578182 25.92 
" style="fill: none; stroke: #000000; stroke-width: 0.8; stroke-linejoin: miter; stroke-linecap: square"/>
   </g>
   <g id="legend_1">
    <g id="line2d_16">
     <path d="M 329.158807 41.638125 
L 341.158807 41.638125 
L 353.158807 41.638125 
" style="fill: none; stroke: #1f77b4; stroke-width: 2; stroke-linecap: square"/>
    </g>
    <g id="text_16">
     <!-- single peak -->
     <g transform="translate(362.758807 45.838125) scale(0.12 -0.12)">
      <defs>
       <path id="DejaVuSans-73" d="M 2834 3397 
L 2834 2853 
Q 2591 2978 2328 3040 
Q 2066 3103 1784 3103 
Q 1356 3103 1142 2972 
Q 928 2841 928 2578 
Q 928 2378 1081 2264 
Q 1234 2150 1697 2047 
L 1894 2003 
Q 2506 1872 2764 1633 
Q 3022 1394 3022 966 
Q 3022 478 2636 193 
Q 2250 -91 1575 -91 
Q 1294 -91 989 -36 
Q 684 19 347 128 
L 347 722 
Q 666 556 975 473 
Q 1284 391 1588 391 
Q 1994 391 2212 530 
Q 2431 669 2431 922 
Q 2431 1156 2273 1281 
Q 2116 1406 1581 1522 
L 1381 1569 
Q 847 1681 609 1914 
Q 372 2147 372 2553 
Q 372 3047 722 3315 
Q 1072 3584 1716 3584 
Q 2034 3584 2315 3537 
Q 2597 3491 2834 3397 
z
" transform="scale(0.015625)"/>
       <path id="DejaVuSans-69" d="M 603 3500 
L 1178 3500 
L 1178 0 
L 603 0 
L 603 3500 
z
M 603 4863 
L 1178 4863 
L 1178 4134 
L 603 4134 
L 603 4863 
z
" transform="scale(0.015625)"/>
       <path id="DejaVuSans-6e" d="M 3513 2113 
L 3513 0 
L 2938 0 
L 2938 2094 
Q 2938 2591 2744 2837 
Q 2550 3084 2163 3084 
Q 1697 3084 1428 2787 
Q 1159 2491 1159 1978 
L 1159 0 
L 581 0 
L 581 3500 
L 1159 3500 
L 1159 2956 
Q 1366 3272 1645 3428 
Q 1925 3584 2291 3584 
Q 2894 3584 3203 3211 
Q 3513 2838 3513 2113 
z
" transform="scale(0.015625)"/>
       <path id="DejaVuSans-67" d="M 2906 1791 
Q 2906 2416 2648 2759 
Q 2391 3103 1925 3103 
Q 1463 3103 1205 2759 
Q 947 2416 947 1791 
Q 947 1169 1205 825 
Q 1463 481 1925 481 
Q 2391 481 2648 825 
Q 2906 1169 2906 1791 
z
M 3481 434 
Q 3481 -459 3084 -895 
Q 2688 -1331 1869 -1331 
Q 1566 -1331 1297 -1286 
Q 1028 -1241 775 -1147 
L 775 -588 
Q 1028 -725 1275 -790 
Q 1522 -856 1778 -856 
Q 2344 -856 2625 -561 
Q 2906 -266 2906 331 
L 2906 616 
Q 2728 306 2450 153 
Q 2172 0 1784 0 
Q 1141 0 747 490 
Q 353 981 353 1791 
Q 353 2603 747 3093 
Q 1141 3584 1784 3584 
Q 2172 3584 2450 3431 
Q 2728 3278 2906 2969 
L 2906 3500 
L 3481 3500 
L 3481 434 
z
" transform="scale(0.015625)"/>
       <path id="DejaVuSans-6c" d="M 603 4863 
L 1178 4863 
L 1178 0 
L 603 0 
L 603 4863 
z
" transform="scale(0.015625)"/>
       <path id="DejaVuSans-65" d="M 3597 1894 
L 3597 1613 
L 953 1613 
Q 991 1019 1311 708 
Q 1631 397 2203 397 
Q 2534 397 2845 478 
Q 3156 559 3463 722 
L 3463 178 
Q 3153 47 2828 -22 
Q 2503 -91 2169 -91 
Q 1331 -91 842 396 
Q 353 884 353 1716 
Q 353 2575 817 3079 
Q 1281 3584 2069 3584 
Q 2775 3584 3186 3129 
Q 3597 2675 3597 1894 
z
M 3022 2063 
Q 3016 2534 2758 2815 
Q 2500 3097 2075 3097 
Q 1594 3097 1305 2825 
Q 1016 2553 972 2059 
L 3022 2063 
z
" transform="scale(0.015625)"/>
       <path id="DejaVuSans-20" transform="scale(0.015625)"/>
       <path id="DejaVuSans-70" d="M 1159 525 
L 1159 -1331 
L 581 -1331 
L 581 3500 
L 1159 3500 
L 1159 2969 
Q 1341 3281 1617 3432 
Q 1894 3584 2278 3584 
Q 2916 3584 3314 3078 
Q 3713 2572 3713 1747 
Q 3713 922 3314 415 
Q 2916 -91 2278 -91 
Q 1894 -91 1617 61 
Q 1341 213 1159 525 
z
M 3116 1747 
Q 3116 2381 2855 2742 
Q 2594 3103 2138 3103 
Q 1681 3103 1420 2742 
Q 1159 2381 1159 1747 
Q 1159 1113 1420 752 
Q 1681 391 2138 391 
Q 2594 391 2855 752 
Q 3116 1113 3116 1747 
z
" transform="scale(0.015625)"/>
       <path id="DejaVuSans-61" d="M 2194 1759 
Q 1497 1759 1228 1600 
Q 959 1441 959 1056 
Q 959 750 1161 570 
Q 1363 391 1709 391 
Q 2188 391 2477 730 
Q 2766 1069 2766 1631 
L 2766 1759 
L 2194 1759 
z
M 3341 1997 
L 3341 0 
L 2766 0 
L 2766 531 
Q 2569 213 2275 61 
Q 1981 -91 1556 -91 
Q 1019 -91 701 211 
Q 384 513 384 1019 
Q 384 1609 779 1909 
Q 1175 2209 1959 2209 
L 2766 2209 
L 2766 2266 
Q 2766 2663 2505 2880 
Q 2244 3097 1772 3097 
Q 1472 3097 1187 3025 
Q 903 2953 641 2809 
L 641 3341 
Q 956 3463 1253 3523 
Q 1550 3584 1831 3584 
Q 2591 3584 2966 3190 
Q 3341 2797 3341 1997 
z
" transform="scale(0.015625)"/>
       <path id="DejaVuSans-6b" d="M 581 4863 
L 1159 4863 
L 1159 1991 
L 2875 3500 
L 3609 3500 
L 1753 1863 
L 3688 0 
L 2938 0 
L 1159 1709 
L 1159 0 
L 581 0 
L 581 4863 
z
" transform="scale(0.015625)"/>
      </defs>
      <use xlink:href="#DejaVuSans-73"/>
      <use xlink:href="#DejaVuSans-69" x="52.099609"/>
      <use xlink:href="#DejaVuSans-6e" x="79.882812"/>
      <use xlink:href="#DejaVuSans-67" x="143.261719"/>
      <use xlink:href="#DejaVuSans-6c" x="206.738281"/>
      <use xlink:href="#DejaVuSans-65" x="234.521484"/>
      <use xlink:href="#DejaVuSans-20" x="296.044922"/>
      <use xlink:href="#DejaVuSans-70" x="327.832031"/>
      <use xlink:href="#DejaVuSans-65" x="391.308594"/>
      <use xlink:href="#DejaVuSans-61" x="452.832031"/>
      <use xlink:href="#DejaVuSans-6b" x="514.111328"/>
     </g>
    </g>
    <g id="line2d_17">
     <path d="M 329.158807 59.251875 
L 341.158807 59.251875 
L 353.158807 59.251875 
" style="fill: none; stroke-dasharray: 5.55,2.4; stroke-dashoffset: 0; stroke: #ff7f0e; stroke-width: 1.5"/>
    </g>
    <g id="text_17">
     <!-- double peak -->
     <g transform="translate(362.758807 63.451875) scale(0.12 -0.12)">
      <defs>
       <path id="DejaVuSans-64" d="M 2906 2969 
L 2906 4863 
L 3481 4863 
L 3481 0 
L 2906 0 
L 2906 525 
Q 2725 213 2448 61 
Q 2172 -91 1784 -91 
Q 1150 -91 751 415 
Q 353 922 353 1747 
Q 353 2572 751 3078 
Q 1150 3584 1784 3584 
Q 2172 3584 2448 3432 
Q 2725 3281 2906 2969 
z
M 947 1747 
Q 947 1113 1208 752 
Q 1469 391 1925 391 
Q 2381 391 2643 752 
Q 2906 1113 2906 1747 
Q 2906 2381 2643 2742 
Q 2381 3103 1925 3103 
Q 1469 3103 1208 2742 
Q 947 2381 947 1747 
z
" transform="scale(0.015625)"/>
       <path id="DejaVuSans-6f" d="M 1959 3097 
Q 1497 3097 1228 2736 
Q 959 2375 959 1747 
Q 959 1119 1226 758 
Q 1494 397 1959 397 
Q 2419 397 2687 759 
Q 2956 1122 2956 1747 
Q 2956 2369 2687 2733 
Q 2419 3097 1959 3097 
z
M 1959 3584 
Q 2709 3584 3137 3096 
Q 3566 2609 3566 1747 
Q 3566 888 3137 398 
Q 2709 -91 1959 -91 
Q 1206 -91 779 398 
Q 353 888 353 1747 
Q 353 2609 779 3096 
Q 1206 3584 1959 3584 
z
" transform="scale(0.015625)"/>
       <path id="DejaVuSans-75" d="M 544 1381 
L 544 3500 
L 1119 3500 
L 1119 1403 
Q 1119 906 1312 657 
Q 1506 409 1894 409 
Q 2359 409 2629 706 
Q 2900 1003 2900 1516 
L 2900 3500 
L 3475 3500 
L 3475 0 
L 2900 0 
L 2900 538 
Q 2691 219 2414 64 
Q 2138 -91 1772 -91 
Q 1169 -91 856 284 
Q 544 659 544 1381 
z
M 1991 3584 
L 1991 3584 
z
" transform="scale(0.015625)"/>
       <path id="DejaVuSans-62" d="M 3116 1747 
Q 3116 2381 2855 2742 
Q 2594 3103 2138 3103 
Q 1681 3103 1420 2742 
Q 1159 2381 1159 1747 
Q 1159 1113 1420 752 
Q 1681 391 2138 391 
Q 2594 391 2855 752 
Q 3116 1113 3116 1747 
z
M 1159 2969 
Q 1341 3281 1617 3432 
Q 1894 3584 2278 3584 
Q 2916 3584 3314 3078 
Q 3713 2572 3713 1747 
Q 3713 922 3314 415 
Q 2916 -91 2278 -91 
Q 1894 -91 1617 61 
Q 1341 213 1159 525 
L 1159 0 
L 581 0 
L 581 4863 
L 1159 4863 
L 1159 2969 
z
" transform="scale(0.015625)"/>
      </defs>
      <use xlink:href="#DejaVuSans-64"/>
      <use xlink:href="#DejaVuSans-6f" x="63.476562"/>
      <use xlink:href="#DejaVuSans-75" x="124.658203"/>
      <use xlink:href="#DejaVuSans-62" x="188.037109"/>
      <use xlink:href="#DejaVuSans-6c" x="251.513672"/>
      <use xlink:href="#DejaVuSans-65" x="279.296875"/>
      <use xlink:href="#DejaVuSans-20" x="340.820312"/>
      <use xlink:href="#DejaVuSans-70" x="372.607422"/>
      <use xlink:href="#DejaVuSans-65" x="436.083984"/>
      <use xlink:href="#DejaVuSans-61" x="497.607422"/>
      <use xlink:href="#DejaVuSans-6b" x="558.886719"/>
     </g>
    </g>
   </g>
  </g>
  <g id="axes_2">
   <g id="patch_7">
    <path d="M 525.861818 236.16 
L 917.28 236.16 
L 917.28 25.92 
L 525.861818 25.92 
L 525.861818 236.16 
z
" style="fill: none"/>
   </g>
   <g id="PolyCollection_1">
    <defs>
     <path id="md6038365f4" d="M 543.653554 -249.214826 
L 543.653554 -209.957811 
L 546.433512 -207.638177 
L 549.213471 -205.337724 
L 551.99343 -203.056428 
L 554.773388 -200.794265 
L 557.553347 -198.551213 
L 560.333306 -196.327248 
L 563.113264 -194.122347 
L 565.893223 -191.936489 
L 568.673182 -189.76965 
L 571.45314 -187.621809 
L 574.233099 -185.492943 
L 577.013058 -183.383031 
L 579.793017 -181.29205 
L 582.572975 -179.219981 
L 585.352934 -177.1668 
L 588.132893 -175.132488 
L 590.912851 -173.117023 
L 593.69281 -171.120384 
L 596.472769 -169.142552 
L 599.252727 -167.183506 
L 602.032686 -165.243226 
L 604.812645 -163.321692 
L 607.592603 -161.418884 
L 610.372562 -159.534783 
L 613.152521 -157.669369 
L 615.932479 -155.822624 
L 618.712438 -153.994528 
L 621.492397 -152.185063 
L 624.272355 -150.394211 
L 627.052314 -148.621952 
L 629.832273 -146.868268 
L 632.612231 -145.133143 
L 635.39219 -143.416557 
L 638.172149 -141.718494 
L 640.952107 -140.038936 
L 643.732066 -138.377865 
L 646.512025 -136.735265 
L 649.291983 -135.111119 
L 652.071942 -133.50541 
L 654.851901 -131.918122 
L 657.63186 -130.349238 
L 660.411818 -128.798743 
L 663.191777 -127.266621 
L 665.971736 -125.752855 
L 668.751694 -124.257431 
L 671.531653 -122.780332 
L 674.311612 -121.321545 
L 677.09157 -119.881053 
L 679.871529 -118.458843 
L 682.651488 -117.054899 
L 685.431446 -115.669207 
L 688.211405 -114.301754 
L 690.991364 -112.952524 
L 693.771322 -111.621505 
L 696.551281 -110.308682 
L 699.33124 -109.014043 
L 702.111198 -107.737573 
L 704.891157 -106.47926 
L 707.671116 -105.239091 
L 710.451074 -104.017053 
L 713.231033 -102.813133 
L 716.010992 -101.62732 
L 718.79095 -100.459601 
L 721.570909 -99.309965 
L 724.350868 -98.178398 
L 727.130826 -97.064891 
L 729.910785 -95.969431 
L 732.690744 -94.892007 
L 735.470702 -93.832609 
L 738.250661 -92.791224 
L 741.03062 -91.767844 
L 743.810579 -90.762456 
L 746.590537 -89.775052 
L 749.370496 -88.80562 
L 752.150455 -87.854151 
L 754.930413 -86.920635 
L 757.710372 -86.005063 
L 760.490331 -85.107424 
L 763.270289 -84.227711 
L 766.050248 -83.365914 
L 768.830207 -82.522023 
L 771.610165 -81.696032 
L 774.390124 -80.88793 
L 777.170083 -80.09771 
L 779.950041 -79.325363 
L 782.73 -78.570882 
L 785.509959 -77.83426 
L 788.289917 -77.115487 
L 791.069876 -76.414558 
L 793.849835 -75.731465 
L 796.629793 -75.066201 
L 799.409752 -74.418758 
L 802.189711 -73.789131 
L 804.969669 -73.177314 
L 807.749628 -72.583299 
L 810.529587 -72.00708 
L 813.309545 -71.448653 
L 816.089504 -70.90801 
L 818.869463 -70.385147 
L 821.649421 -69.880058 
L 824.42938 -69.392738 
L 827.209339 -68.923182 
L 829.989298 -68.471385 
L 832.769256 -68.037343 
L 835.549215 -67.621051 
L 838.329174 -67.222505 
L 841.109132 -66.8417 
L 843.889091 -66.478633 
L 846.66905 -66.133301 
L 849.449008 -65.805699 
L 852.228967 -65.495824 
L 855.008926 -65.203674 
L 857.788884 -64.929244 
L 860.568843 -64.672533 
L 863.348802 -64.433537 
L 866.12876 -64.212255 
L 868.908719 -64.008683 
L 871.688678 -63.822821 
L 874.468636 -63.654665 
L 877.248595 -63.504215 
L 880.028554 -63.371468 
L 882.808512 -63.256423 
L 885.588471 -63.15908 
L 888.36843 -63.079437 
L 891.148388 -63.017493 
L 893.928347 -62.973248 
L 896.708306 -62.946701 
L 899.488264 -62.937852 
L 899.488264 -99.224766 
L 899.488264 -99.224766 
L 896.708306 -99.233794 
L 893.928347 -99.260877 
L 891.148388 -99.306016 
L 888.36843 -99.369211 
L 885.588471 -99.450463 
L 882.808512 -99.549773 
L 880.028554 -99.667142 
L 877.248595 -99.80257 
L 874.468636 -99.95606 
L 871.688678 -100.127613 
L 868.908719 -100.31723 
L 866.12876 -100.524914 
L 863.348802 -100.750667 
L 860.568843 -100.994491 
L 857.788884 -101.256388 
L 855.008926 -101.536362 
L 852.228967 -101.834414 
L 849.449008 -102.150549 
L 846.66905 -102.484769 
L 843.889091 -102.837078 
L 841.109132 -103.20748 
L 838.329174 -103.595977 
L 835.549215 -104.002575 
L 832.769256 -104.427277 
L 829.989298 -104.870088 
L 827.209339 -105.331012 
L 824.42938 -105.810054 
L 821.649421 -106.307218 
L 818.869463 -106.822511 
L 816.089504 -107.355937 
L 813.309545 -107.907502 
L 810.529587 -108.477211 
L 807.749628 -109.06507 
L 804.969669 -109.671085 
L 802.189711 -110.295263 
L 799.409752 -110.93761 
L 796.629793 -111.598132 
L 793.849835 -112.276836 
L 791.069876 -112.973729 
L 788.289917 -113.688818 
L 785.509959 -114.422111 
L 782.73 -115.173615 
L 779.950041 -115.943338 
L 777.170083 -116.731287 
L 774.390124 -117.537472 
L 771.610165 -118.361899 
L 768.830207 -119.204577 
L 766.050248 -120.065516 
L 763.270289 -120.944723 
L 760.490331 -121.842208 
L 757.710372 -122.757981 
L 754.930413 -123.69205 
L 752.150455 -124.644424 
L 749.370496 -125.615115 
L 746.590537 -126.604131 
L 743.810579 -127.611483 
L 741.03062 -128.637182 
L 738.250661 -129.681237 
L 735.470702 -130.743659 
L 732.690744 -131.82446 
L 729.910785 -132.92365 
L 727.130826 -134.04124 
L 724.350868 -135.177243 
L 721.570909 -136.331669 
L 718.79095 -137.50453 
L 716.010992 -138.69584 
L 713.231033 -139.905608 
L 710.451074 -141.133849 
L 707.671116 -142.380575 
L 704.891157 -143.645798 
L 702.111198 -144.929532 
L 699.33124 -146.231789 
L 696.551281 -147.552583 
L 693.771322 -148.891927 
L 690.991364 -150.249836 
L 688.211405 -151.626322 
L 685.431446 -153.021401 
L 682.651488 -154.435087 
L 679.871529 -155.867393 
L 677.09157 -157.318335 
L 674.311612 -158.787927 
L 671.531653 -160.276185 
L 668.751694 -161.783124 
L 665.971736 -163.308759 
L 663.191777 -164.853106 
L 660.411818 -166.41618 
L 657.63186 -167.997999 
L 654.851901 -169.598577 
L 652.071942 -171.217931 
L 649.291983 -172.856079 
L 646.512025 -174.513036 
L 643.732066 -176.18882 
L 640.952107 -177.883447 
L 638.172149 -179.596936 
L 635.39219 -181.329304 
L 632.612231 -183.080568 
L 629.832273 -184.850746 
L 627.052314 -186.639858 
L 624.272355 -188.44792 
L 621.492397 -190.274951 
L 618.712438 -192.120971 
L 615.932479 -193.985998 
L 613.152521 -195.870051 
L 610.372562 -197.77315 
L 607.592603 -199.695314 
L 604.812645 -201.636562 
L 602.032686 -203.596915 
L 599.252727 -205.576393 
L 596.472769 -207.575016 
L 593.69281 -209.592804 
L 590.912851 -211.629778 
L 588.132893 -213.68596 
L 585.352934 -215.761369 
L 582.572975 -217.856028 
L 579.793017 -219.969958 
L 577.013058 -222.103181 
L 574.233099 -224.255718 
L 571.45314 -226.427591 
L 568.673182 -228.618823 
L 565.893223 -230.829436 
L 563.113264 -233.059453 
L 560.333306 -235.308897 
L 557.553347 -237.57779 
L 554.773388 -239.866157 
L 551.99343 -242.17402 
L 549.213471 -244.501403 
L 546.433512 -246.84833 
L 543.653554 -249.214826 
z
" style="stroke: #1f77b4; stroke-opacity: 0.35"/>
    </defs>
    <g clip-path="url(#pc0650ce01e)">
     <use xlink:href="#md6038365f4" x="0" y="288" style="fill: #1f77b4; fill-opacity: 0.35; stroke: #1f77b4; stroke-opacity: 0.35"/>
    </g>
   </g>
   <g id="PolyCollection_2">
    <defs>
     <path id="m49cf2e0186" d="M 543.653554 -252.523636 
L 543.653554 -213.201101 
L 546.433512 -210.800807 
L 549.213471 -208.420522 
L 551.99343 -206.060218 
L 554.773388 -203.719867 
L 557.553347 -201.399441 
L 560.333306 -199.098913 
L 563.113264 -196.818254 
L 565.893223 -194.557438 
L 568.673182 -192.316439 
L 571.45314 -190.095228 
L 574.233099 -187.893781 
L 577.013058 -185.71207 
L 579.793017 -183.550069 
L 582.572975 -181.407754 
L 585.352934 -179.285098 
L 588.132893 -177.182076 
L 590.912851 -175.098664 
L 593.69281 -173.034835 
L 596.472769 -170.990567 
L 599.252727 -168.965834 
L 602.032686 -166.960612 
L 604.812645 -164.974878 
L 607.592603 -163.008608 
L 610.372562 -161.061779 
L 613.152521 -159.134367 
L 615.932479 -157.226349 
L 618.712438 -155.337703 
L 621.492397 -153.468406 
L 624.272355 -151.618437 
L 627.052314 -149.787772 
L 629.832273 -147.976391 
L 632.612231 -146.184271 
L 635.39219 -144.411392 
L 638.172149 -142.657733 
L 640.952107 -140.923272 
L 643.732066 -139.207988 
L 646.512025 -137.511863 
L 649.291983 -135.834874 
L 652.071942 -134.177003 
L 654.851901 -132.53823 
L 657.63186 -130.918535 
L 660.411818 -129.317899 
L 663.191777 -127.736302 
L 665.971736 -126.173727 
L 668.751694 -124.630155 
L 671.531653 -123.105567 
L 674.311612 -121.599944 
L 677.09157 -120.113271 
L 679.871529 -118.645527 
L 682.651488 -117.196697 
L 685.431446 -115.766763 
L 688.211405 -114.355707 
L 690.991364 -112.963514 
L 693.771322 -111.590166 
L 696.551281 -110.235648 
L 699.33124 -108.899942 
L 702.111198 -107.583034 
L 704.891157 -106.284908 
L 707.671116 -105.005548 
L 710.451074 -103.744939 
L 713.231033 -102.503067 
L 716.010992 -101.279915 
L 718.79095 -100.07547 
L 721.570909 -98.889718 
L 724.350868 -97.722645 
L 727.130826 -96.574235 
L 729.910785 -95.444477 
L 732.690744 -94.333356 
L 735.470702 -93.24086 
L 738.250661 -92.166975 
L 741.03062 -91.111689 
L 743.810579 -90.074988 
L 746.590537 -89.056861 
L 749.370496 -88.057296 
L 752.150455 -87.076281 
L 754.930413 -86.113804 
L 757.710372 -85.169854 
L 760.490331 -84.244419 
L 763.270289 -83.337488 
L 766.050248 -82.449052 
L 768.830207 -81.579099 
L 771.610165 -80.727618 
L 774.390124 -79.8946 
L 777.170083 -79.080035 
L 779.950041 -78.283914 
L 782.73 -77.506226 
L 785.509959 -76.746963 
L 788.289917 -76.006115 
L 791.069876 -75.283674 
L 793.849835 -74.579631 
L 796.629793 -73.893977 
L 799.409752 -73.226706 
L 802.189711 -72.577808 
L 804.969669 -71.947276 
L 807.749628 -71.335103 
L 810.529587 -70.741281 
L 813.309545 -70.165804 
L 816.089504 -69.608663 
L 818.869463 -69.069854 
L 821.649421 -68.549369 
L 824.42938 -68.047202 
L 827.209339 -67.563347 
L 829.989298 -67.097799 
L 832.769256 -66.650552 
L 835.549215 -66.221601 
L 838.329174 -65.81094 
L 841.109132 -65.418565 
L 843.889091 -65.044471 
L 846.66905 -64.688653 
L 849.449008 -64.351108 
L 852.228967 -64.031832 
L 855.008926 -63.73082 
L 857.788884 -63.448069 
L 860.568843 -63.183576 
L 863.348802 -62.937337 
L 866.12876 -62.70935 
L 868.908719 -62.499612 
L 871.688678 -62.30812 
L 874.468636 -62.134872 
L 877.248595 -61.979867 
L 880.028554 -61.843102 
L 882.808512 -61.724575 
L 885.588471 -61.624286 
L 888.36843 -61.542233 
L 891.148388 -61.478414 
L 893.928347 -61.43283 
L 896.708306 -61.40548 
L 899.488264 -61.396364 
L 899.488264 -97.652136 
L 899.488264 -97.652136 
L 896.708306 -97.661437 
L 893.928347 -97.68934 
L 891.148388 -97.735845 
L 888.36843 -97.800952 
L 885.588471 -97.884663 
L 882.808512 -97.986978 
L 880.028554 -98.107899 
L 877.248595 -98.247428 
L 874.468636 -98.405565 
L 871.688678 -98.582312 
L 868.908719 -98.777672 
L 866.12876 -98.991648 
L 863.348802 -99.22424 
L 860.568843 -99.475454 
L 857.788884 -99.74529 
L 855.008926 -100.033753 
L 852.228967 -100.340846 
L 849.449008 -100.666573 
L 846.66905 -101.010937 
L 843.889091 -101.373943 
L 841.109132 -101.755594 
L 838.329174 -102.155896 
L 835.549215 -102.574853 
L 832.769256 -103.01247 
L 829.989298 -103.468752 
L 827.209339 -103.943705 
L 824.42938 -104.437335 
L 821.649421 -104.949647 
L 818.869463 -105.480647 
L 816.089504 -106.030341 
L 813.309545 -106.598737 
L 810.529587 -107.18584 
L 807.749628 -107.791659 
L 804.969669 -108.416199 
L 802.189711 -109.059469 
L 799.409752 -109.721476 
L 796.629793 -110.402227 
L 793.849835 -111.101732 
L 791.069876 -111.819998 
L 788.289917 -112.557034 
L 785.509959 -113.312848 
L 782.73 -114.08745 
L 779.950041 -114.880849 
L 777.170083 -115.693054 
L 774.390124 -116.524075 
L 771.610165 -117.373921 
L 768.830207 -118.242603 
L 766.050248 -119.130132 
L 763.270289 -120.036516 
L 760.490331 -120.961769 
L 757.710372 -121.905899 
L 754.930413 -122.868919 
L 752.150455 -123.85084 
L 749.370496 -124.851674 
L 746.590537 -125.871432 
L 743.810579 -126.910127 
L 741.03062 -127.967771 
L 738.250661 -129.044376 
L 735.470702 -130.139956 
L 732.690744 -131.254523 
L 729.910785 -132.388091 
L 727.130826 -133.540672 
L 724.350868 -134.712282 
L 721.570909 -135.902933 
L 718.79095 -137.112639 
L 716.010992 -138.341416 
L 713.231033 -139.589278 
L 710.451074 -140.856239 
L 707.671116 -142.142315 
L 704.891157 -143.44752 
L 702.111198 -144.771871 
L 699.33124 -146.115383 
L 696.551281 -147.478073 
L 693.771322 -148.859955 
L 690.991364 -150.261047 
L 688.211405 -151.681366 
L 685.431446 -153.120927 
L 682.651488 -154.579749 
L 679.871529 -156.057849 
L 677.09157 -157.555243 
L 674.311612 -159.071951 
L 671.531653 -160.60799 
L 668.751694 -162.163378 
L 665.971736 -163.738134 
L 663.191777 -165.332276 
L 660.411818 -166.945824 
L 657.63186 -168.578796 
L 654.851901 -170.231212 
L 652.071942 -171.903092 
L 649.291983 -173.594455 
L 646.512025 -175.305322 
L 643.732066 -177.035713 
L 640.952107 -178.785649 
L 638.172149 -180.555149 
L 635.39219 -182.344237 
L 632.612231 -184.152931 
L 629.832273 -185.981255 
L 627.052314 -187.82923 
L 624.272355 -189.696878 
L 621.492397 -191.58422 
L 618.712438 -193.491281 
L 615.932479 -195.418081 
L 613.152521 -197.364645 
L 610.372562 -199.330994 
L 607.592603 -201.317154 
L 604.812645 -203.323146 
L 602.032686 -205.348996 
L 599.252727 -207.394727 
L 596.472769 -209.460364 
L 593.69281 -211.545931 
L 590.912851 -213.651453 
L 588.132893 -215.776954 
L 585.352934 -217.922461 
L 582.572975 -220.087999 
L 579.793017 -222.273594 
L 577.013058 -224.479271 
L 574.233099 -226.705057 
L 571.45314 -228.950978 
L 568.673182 -231.217061 
L 565.893223 -233.503334 
L 563.113264 -235.809823 
L 560.333306 -238.136555 
L 557.553347 -240.483559 
L 554.773388 -242.850862 
L 551.99343 -245.238493 
L 549.213471 -247.64648 
L 546.433512 -250.074851 
L 543.653554 -252.523636 
z
" style="stroke: #ff7f0e; stroke-opacity: 0.35"/>
    </defs>
    <g clip-path="url(#pc0650ce01e)">
     <use xlink:href="#m49cf2e0186" x="0" y="288" style="fill: #ff7f0e; fill-opacity: 0.35; stroke: #ff7f0e; stroke-opacity: 0.35"/>
    </g>
   </g>
   <g id="matplotlib.axis_3">
    <g id="xtick_8">
     <g id="line2d_18">
      <g>
       <use xlink:href="#m0a447be6a8" x="543.653554" y="236.16" style="stroke: #000000; stroke-width: 0.8"/>
      </g>
     </g>
     <g id="text_18">
      <!-- 0 -->
      <g transform="translate(539.836054 252.278125) scale(0.12 -0.12)">
       <use xlink:href="#DejaVuSans-30"/>
      </g>
     </g>
    </g>
    <g id="xtick_9">
     <g id="line2d_19">
      <g>
       <use xlink:href="#m0a447be6a8" x="599.252727" y="236.16" style="stroke: #000000; stroke-width: 0.8"/>
      </g>
     </g>
     <g id="text_19">
      <!-- 20 -->
      <g transform="translate(591.617727 252.278125) scale(0.12 -0.12)">
       <use xlink:href="#DejaVuSans-32"/>
       <use xlink:href="#DejaVuSans-30" x="63.623047"/>
      </g>
     </g>
    </g>
    <g id="xtick_10">
     <g id="line2d_20">
      <g>
       <use xlink:href="#m0a447be6a8" x="654.851901" y="236.16" style="stroke: #000000; stroke-width: 0.8"/>
      </g>
     </g>
     <g id="text_20">
      <!-- 40 -->
      <g transform="translate(647.216901 252.278125) scale(0.12 -0.12)">
       <use xlink:href="#DejaVuSans-34"/>
       <use xlink:href="#DejaVuSans-30" x="63.623047"/>
      </g>
     </g>
    </g>
    <g id="xtick_11">
     <g id="line2d_21">
      <g>
       <use xlink:href="#m0a447be6a8" x="710.451074" y="236.16" style="stroke: #000000; stroke-width: 0.8"/>
      </g>
     </g>
     <g id="text_21">
      <!-- 60 -->
      <g transform="translate(702.816074 252.278125) scale(0.12 -0.12)">
       <defs>
        <path id="DejaVuSans-36" d="M 2113 2584 
Q 1688 2584 1439 2293 
Q 1191 2003 1191 1497 
Q 1191 994 1439 701 
Q 1688 409 2113 409 
Q 2538 409 2786 701 
Q 3034 994 3034 1497 
Q 3034 2003 2786 2293 
Q 2538 2584 2113 2584 
z
M 3366 4563 
L 3366 3988 
Q 3128 4100 2886 4159 
Q 2644 4219 2406 4219 
Q 1781 4219 1451 3797 
Q 1122 3375 1075 2522 
Q 1259 2794 1537 2939 
Q 1816 3084 2150 3084 
Q 2853 3084 3261 2657 
Q 3669 2231 3669 1497 
Q 3669 778 3244 343 
Q 2819 -91 2113 -91 
Q 1303 -91 875 529 
Q 447 1150 447 2328 
Q 447 3434 972 4092 
Q 1497 4750 2381 4750 
Q 2619 4750 2861 4703 
Q 3103 4656 3366 4563 
z
" transform="scale(0.015625)"/>
       </defs>
       <use xlink:href="#DejaVuSans-36"/>
       <use xlink:href="#DejaVuSans-30" x="63.623047"/>
      </g>
     </g>
    </g>
    <g id="xtick_12">
     <g id="line2d_22">
      <g>
       <use xlink:href="#m0a447be6a8" x="766.050248" y="236.16" style="stroke: #000000; stroke-width: 0.8"/>
      </g>
     </g>
     <g id="text_22">
      <!-- 80 -->
      <g transform="translate(758.415248 252.278125) scale(0.12 -0.12)">
       <defs>
        <path id="DejaVuSans-38" d="M 2034 2216 
Q 1584 2216 1326 1975 
Q 1069 1734 1069 1313 
Q 1069 891 1326 650 
Q 1584 409 2034 409 
Q 2484 409 2743 651 
Q 3003 894 3003 1313 
Q 3003 1734 2745 1975 
Q 2488 2216 2034 2216 
z
M 1403 2484 
Q 997 2584 770 2862 
Q 544 3141 544 3541 
Q 544 4100 942 4425 
Q 1341 4750 2034 4750 
Q 2731 4750 3128 4425 
Q 3525 4100 3525 3541 
Q 3525 3141 3298 2862 
Q 3072 2584 2669 2484 
Q 3125 2378 3379 2068 
Q 3634 1759 3634 1313 
Q 3634 634 3220 271 
Q 2806 -91 2034 -91 
Q 1263 -91 848 271 
Q 434 634 434 1313 
Q 434 1759 690 2068 
Q 947 2378 1403 2484 
z
M 1172 3481 
Q 1172 3119 1398 2916 
Q 1625 2713 2034 2713 
Q 2441 2713 2670 2916 
Q 2900 3119 2900 3481 
Q 2900 3844 2670 4047 
Q 2441 4250 2034 4250 
Q 1625 4250 1398 4047 
Q 1172 3844 1172 3481 
z
" transform="scale(0.015625)"/>
       </defs>
       <use xlink:href="#DejaVuSans-38"/>
       <use xlink:href="#DejaVuSans-30" x="63.623047"/>
      </g>
     </g>
    </g>
    <g id="xtick_13">
     <g id="line2d_23">
      <g>
       <use xlink:href="#m0a447be6a8" x="821.649421" y="236.16" style="stroke: #000000; stroke-width: 0.8"/>
      </g>
     </g>
     <g id="text_23">
      <!-- 100 -->
      <g transform="translate(810.196921 252.278125) scale(0.12 -0.12)">
       <use xlink:href="#DejaVuSans-31"/>
       <use xlink:href="#DejaVuSans-30" x="63.623047"/>
       <use xlink:href="#DejaVuSans-30" x="127.246094"/>
      </g>
     </g>
    </g>
    <g id="xtick_14">
     <g id="line2d_24">
      <g>
       <use xlink:href="#m0a447be6a8" x="877.248595" y="236.16" style="stroke: #000000; stroke-width: 0.8"/>
      </g>
     </g>
     <g id="text_24">
      <!-- 120 -->
      <g transform="translate(865.796095 252.278125) scale(0.12 -0.12)">
       <use xlink:href="#DejaVuSans-31"/>
       <use xlink:href="#DejaVuSans-32" x="63.623047"/>
       <use xlink:href="#DejaVuSans-30" x="127.246094"/>
      </g>
     </g>
    </g>
    <g id="text_25">
     <!-- $\tau$ -->
     <g transform="translate(717.675909 273.210781) scale(0.19 -0.19)">
      <defs>
       <path id="STIXGeneral-Italic-3c4" d="M 2726 2739 
L 2592 2266 
L 1741 2266 
Q 1293 1248 1293 742 
Q 1293 416 1523 416 
Q 1638 416 1779 547 
Q 1920 678 2003 858 
L 2106 858 
Q 1990 467 1731 198 
Q 1472 -70 1178 -70 
Q 768 -70 768 384 
Q 768 890 1395 2266 
L 1005 2266 
Q 493 2266 179 1702 
L 77 1702 
Q 237 2093 569 2416 
Q 902 2739 1331 2739 
L 2726 2739 
z
" transform="scale(0.015625)"/>
      </defs>
      <use xlink:href="#STIXGeneral-Italic-3c4" transform="translate(0 0.203125)"/>
     </g>
    </g>
   </g>
   <g id="matplotlib.axis_4">
    <g id="ytick_7">
     <g id="line2d_25">
      <g>
       <use xlink:href="#mfb02530195" x="525.861818" y="235.616175" style="stroke: #000000; stroke-width: 0.8"/>
      </g>
     </g>
     <g id="text_26">
      <!-- 0.305 -->
      <g transform="translate(484.508068 240.175238) scale(0.12 -0.12)">
       <use xlink:href="#DejaVuSans-30"/>
       <use xlink:href="#DejaVuSans-2e" x="63.623047"/>
       <use xlink:href="#DejaVuSans-33" x="95.410156"/>
       <use xlink:href="#DejaVuSans-30" x="159.033203"/>
       <use xlink:href="#DejaVuSans-35" x="222.65625"/>
      </g>
     </g>
    </g>
    <g id="ytick_8">
     <g id="line2d_26">
      <g>
       <use xlink:href="#mfb02530195" x="525.861818" y="206.343254" style="stroke: #000000; stroke-width: 0.8"/>
      </g>
     </g>
     <g id="text_27">
      <!-- 0.310 -->
      <g transform="translate(484.508068 210.902316) scale(0.12 -0.12)">
       <use xlink:href="#DejaVuSans-30"/>
       <use xlink:href="#DejaVuSans-2e" x="63.623047"/>
       <use xlink:href="#DejaVuSans-33" x="95.410156"/>
       <use xlink:href="#DejaVuSans-31" x="159.033203"/>
       <use xlink:href="#DejaVuSans-30" x="222.65625"/>
      </g>
     </g>
    </g>
    <g id="ytick_9">
     <g id="line2d_27">
      <g>
       <use xlink:href="#mfb02530195" x="525.861818" y="177.070332" style="stroke: #000000; stroke-width: 0.8"/>
      </g>
     </g>
     <g id="text_28">
      <!-- 0.315 -->
      <g transform="translate(484.508068 181.629395) scale(0.12 -0.12)">
       <use xlink:href="#DejaVuSans-30"/>
       <use xlink:href="#DejaVuSans-2e" x="63.623047"/>
       <use xlink:href="#DejaVuSans-33" x="95.410156"/>
       <use xlink:href="#DejaVuSans-31" x="159.033203"/>
       <use xlink:href="#DejaVuSans-35" x="222.65625"/>
      </g>
     </g>
    </g>
    <g id="ytick_10">
     <g id="line2d_28">
      <g>
       <use xlink:href="#mfb02530195" x="525.861818" y="147.79741" style="stroke: #000000; stroke-width: 0.8"/>
      </g>
     </g>
     <g id="text_29">
      <!-- 0.320 -->
      <g transform="translate(484.508068 152.356473) scale(0.12 -0.12)">
       <use xlink:href="#DejaVuSans-30"/>
       <use xlink:href="#DejaVuSans-2e" x="63.623047"/>
       <use xlink:href="#DejaVuSans-33" x="95.410156"/>
       <use xlink:href="#DejaVuSans-32" x="159.033203"/>
       <use xlink:href="#DejaVuSans-30" x="222.65625"/>
      </g>
     </g>
    </g>
    <g id="ytick_11">
     <g id="line2d_29">
      <g>
       <use xlink:href="#mfb02530195" x="525.861818" y="118.524489" style="stroke: #000000; stroke-width: 0.8"/>
      </g>
     </g>
     <g id="text_30">
      <!-- 0.325 -->
      <g transform="translate(484.508068 123.083551) scale(0.12 -0.12)">
       <use xlink:href="#DejaVuSans-30"/>
       <use xlink:href="#DejaVuSans-2e" x="63.623047"/>
       <use xlink:href="#DejaVuSans-33" x="95.410156"/>
       <use xlink:href="#DejaVuSans-32" x="159.033203"/>
       <use xlink:href="#DejaVuSans-35" x="222.65625"/>
      </g>
     </g>
    </g>
    <g id="ytick_12">
     <g id="line2d_30">
      <g>
       <use xlink:href="#mfb02530195" x="525.861818" y="89.251567" style="stroke: #000000; stroke-width: 0.8"/>
      </g>
     </g>
     <g id="text_31">
      <!-- 0.330 -->
      <g transform="translate(484.508068 93.81063) scale(0.12 -0.12)">
       <use xlink:href="#DejaVuSans-30"/>
       <use xlink:href="#DejaVuSans-2e" x="63.623047"/>
       <use xlink:href="#DejaVuSans-33" x="95.410156"/>
       <use xlink:href="#DejaVuSans-33" x="159.033203"/>
       <use xlink:href="#DejaVuSans-30" x="222.65625"/>
      </g>
     </g>
    </g>
    <g id="ytick_13">
     <g id="line2d_31">
      <g>
       <use xlink:href="#mfb02530195" x="525.861818" y="59.978646" style="stroke: #000000; stroke-width: 0.8"/>
      </g>
     </g>
     <g id="text_32">
      <!-- 0.335 -->
      <g transform="translate(484.508068 64.537708) scale(0.12 -0.12)">
       <use xlink:href="#DejaVuSans-30"/>
       <use xlink:href="#DejaVuSans-2e" x="63.623047"/>
       <use xlink:href="#DejaVuSans-33" x="95.410156"/>
       <use xlink:href="#DejaVuSans-33" x="159.033203"/>
       <use xlink:href="#DejaVuSans-35" x="222.65625"/>
      </g>
     </g>
    </g>
    <g id="ytick_14">
     <g id="line2d_32">
      <g>
       <use xlink:href="#mfb02530195" x="525.861818" y="30.705724" style="stroke: #000000; stroke-width: 0.8"/>
      </g>
     </g>
     <g id="text_33">
      <!-- 0.340 -->
      <g transform="translate(484.508068 35.264787) scale(0.12 -0.12)">
       <use xlink:href="#DejaVuSans-30"/>
       <use xlink:href="#DejaVuSans-2e" x="63.623047"/>
       <use xlink:href="#DejaVuSans-33" x="95.410156"/>
       <use xlink:href="#DejaVuSans-34" x="159.033203"/>
       <use xlink:href="#DejaVuSans-30" x="222.65625"/>
      </g>
     </g>
    </g>
    <g id="text_34">
     <!-- $C(\tau)$ -->
     <g transform="translate(476.556662 147.665) rotate(-90) scale(0.19 -0.19)">
      <defs>
       <path id="STIXGeneral-Italic-43" d="M 4410 4250 
L 4173 2970 
L 4058 2989 
Q 3942 4032 3104 4032 
Q 2406 4032 1830 3411 
Q 1491 3053 1315 2541 
Q 1139 2029 1139 1485 
Q 1139 173 2259 173 
Q 2656 173 2985 339 
Q 3315 506 3725 934 
L 3840 838 
Q 3411 333 2998 109 
Q 2586 -115 2093 -115 
Q 1344 -115 883 329 
Q 422 774 422 1555 
Q 422 2214 748 2812 
Q 1075 3411 1619 3795 
Q 2272 4262 3021 4262 
Q 3462 4262 3770 4154 
Q 3898 4109 4032 4109 
Q 4205 4109 4275 4250 
L 4410 4250 
z
" transform="scale(0.015625)"/>
      </defs>
      <use xlink:href="#STIXGeneral-Italic-43" transform="translate(0 0.40625)"/>
      <use xlink:href="#STIXGeneral-Regular-28" transform="translate(66.699997 0.40625)"/>
      <use xlink:href="#STIXGeneral-Italic-3c4" transform="translate(99.999985 0.40625)"/>
      <use xlink:href="#STIXGeneral-Regular-29" transform="translate(140.999969 0.40625)"/>
     </g>
    </g>
   </g>
   <g id="patch_8">
    <path d="M 525.861818 236.16 
L 525.861818 25.92 
" style="fill: none; stroke: #000000; stroke-width: 0.8; stroke-linejoin: miter; stroke-linecap: square"/>
   </g>
   <g id="patch_9">
    <path d="M 917.28 236.16 
L 917.28 25.92 
" style="fill: none; stroke: #000000; stroke-width: 0.8; stroke-linejoin: miter; stroke-linecap: square"/>
   </g>
   <g id="patch_10">
    <path d="M 525.861818 236.16 
L 917.28 236.16 
" style="fill: none; stroke: #000000; stroke-width: 0.8; stroke-linejoin: miter; stroke-linecap: square"/>
   </g>
   <g id="patch_11">
    <path d="M 525.861818 25.92 
L 917.28 25.92 
" style="fill: none; stroke: #000000; stroke-width: 0.8; stroke-linejoin: miter; stroke-linecap: square"/>
   </g>
   <g id="legend_2">
    <g id="patch_12">
     <path d="M 765.954375 45.838125 
L 789.954375 45.838125 
L 789.954375 37.438125 
L 765.954375 37.438125 
z
" style="fill: #1f77b4; fill-opacity: 0.35; stroke: #1f77b4; stroke-opacity: 0.35; stroke-linejoin: miter"/>
    </g>
    <g id="text_35">
     <!-- single peak 1% -->
     <g transform="translate(799.554375 45.838125) scale(0.12 -0.12)">
      <defs>
       <path id="DejaVuSans-b1" d="M 2944 4013 
L 2944 2803 
L 4684 2803 
L 4684 2272 
L 2944 2272 
L 2944 1063 
L 2419 1063 
L 2419 2272 
L 678 2272 
L 678 2803 
L 2419 2803 
L 2419 4013 
L 2944 4013 
z
M 678 531 
L 4684 531 
L 4684 0 
L 678 0 
L 678 531 
z
" transform="scale(0.015625)"/>
       <path id="DejaVuSans-25" d="M 4653 2053 
Q 4381 2053 4226 1822 
Q 4072 1591 4072 1178 
Q 4072 772 4226 539 
Q 4381 306 4653 306 
Q 4919 306 5073 539 
Q 5228 772 5228 1178 
Q 5228 1588 5073 1820 
Q 4919 2053 4653 2053 
z
M 4653 2450 
Q 5147 2450 5437 2106 
Q 5728 1763 5728 1178 
Q 5728 594 5436 251 
Q 5144 -91 4653 -91 
Q 4153 -91 3862 251 
Q 3572 594 3572 1178 
Q 3572 1766 3864 2108 
Q 4156 2450 4653 2450 
z
M 1428 4353 
Q 1159 4353 1004 4120 
Q 850 3888 850 3481 
Q 850 3069 1003 2837 
Q 1156 2606 1428 2606 
Q 1700 2606 1854 2837 
Q 2009 3069 2009 3481 
Q 2009 3884 1853 4118 
Q 1697 4353 1428 4353 
z
M 4250 4750 
L 4750 4750 
L 1831 -91 
L 1331 -91 
L 4250 4750 
z
M 1428 4750 
Q 1922 4750 2215 4408 
Q 2509 4066 2509 3481 
Q 2509 2891 2217 2550 
Q 1925 2209 1428 2209 
Q 931 2209 642 2551 
Q 353 2894 353 3481 
Q 353 4063 643 4406 
Q 934 4750 1428 4750 
z
" transform="scale(0.015625)"/>
      </defs>
      <use xlink:href="#DejaVuSans-73"/>
      <use xlink:href="#DejaVuSans-69" x="52.099609"/>
      <use xlink:href="#DejaVuSans-6e" x="79.882812"/>
      <use xlink:href="#DejaVuSans-67" x="143.261719"/>
      <use xlink:href="#DejaVuSans-6c" x="206.738281"/>
      <use xlink:href="#DejaVuSans-65" x="234.521484"/>
      <use xlink:href="#DejaVuSans-20" x="296.044922"/>
      <use xlink:href="#DejaVuSans-70" x="327.832031"/>
      <use xlink:href="#DejaVuSans-65" x="391.308594"/>
      <use xlink:href="#DejaVuSans-61" x="452.832031"/>
      <use xlink:href="#DejaVuSans-6b" x="514.111328"/>
      <use xlink:href="#DejaVuSans-20" x="572.021484"/>
      <use xlink:href="#DejaVuSans-b1" x="603.808594"/>
      <use xlink:href="#DejaVuSans-31" x="687.597656"/>
      <use xlink:href="#DejaVuSans-25" x="751.220703"/>
     </g>
    </g>
    <g id="patch_13">
     <path d="M 765.954375 63.451875 
L 789.954375 63.451875 
L 789.954375 55.051875 
L 765.954375 55.051875 
z
" style="fill: #ff7f0e; fill-opacity: 0.35; stroke: #ff7f0e; stroke-opacity: 0.35; stroke-linejoin: miter"/>
    </g>
    <g id="text_36">
     <!-- double peak 1% -->
     <g transform="translate(799.554375 63.451875) scale(0.12 -0.12)">
      <use xlink:href="#DejaVuSans-64"/>
      <use xlink:href="#DejaVuSans-6f" x="63.476562"/>
      <use xlink:href="#DejaVuSans-75" x="124.658203"/>
      <use xlink:href="#DejaVuSans-62" x="188.037109"/>
      <use xlink:href="#DejaVuSans-6c" x="251.513672"/>
      <use xlink:href="#DejaVuSans-65" x="279.296875"/>
      <use xlink:href="#DejaVuSans-20" x="340.820312"/>
      <use xlink:href="#DejaVuSans-70" x="372.607422"/>
      <use xlink:href="#DejaVuSans-65" x="436.083984"/>
      <use xlink:href="#DejaVuSans-61" x="497.607422"/>
      <use xlink:href="#DejaVuSans-6b" x="558.886719"/>
      <use xlink:href="#DejaVuSans-20" x="616.796875"/>
      <use xlink:href="#DejaVuSans-b1" x="648.583984"/>
      <use xlink:href="#DejaVuSans-31" x="732.373047"/>
      <use xlink:href="#DejaVuSans-25" x="795.996094"/>
     </g>
    </g>
   </g>
   <g id="line2d_33">
    <path d="M 543.653554 58.413682 
L 554.773388 67.669789 
L 565.893223 76.617037 
L 577.013058 85.256894 
L 588.132893 93.590776 
L 599.252727 101.620051 
L 610.372562 109.346034 
L 621.492397 116.769993 
L 632.612231 123.893145 
L 643.732066 130.716658 
L 654.851901 137.241651 
L 665.971736 143.469193 
L 677.09157 149.400306 
L 688.211405 155.035962 
L 699.33124 160.377084 
L 710.451074 165.424549 
L 721.570909 170.179183 
L 732.690744 174.641767 
L 743.810579 178.81303 
L 754.930413 182.693658 
L 766.050248 186.284285 
L 777.170083 189.585501 
L 788.289917 192.597847 
L 799.409752 195.321816 
L 810.529587 197.757854 
L 821.649421 199.906362 
L 832.769256 201.76769 
L 843.889091 203.342144 
L 855.008926 204.629982 
L 866.12876 205.631415 
L 877.248595 206.346607 
L 888.36843 206.775676 
L 899.488264 206.918691 
L 899.488264 206.918691 
" clip-path="url(#pc0650ce01e)" style="fill: none; stroke: #1f77b4; stroke-opacity: 0.8; stroke-linecap: square"/>
   </g>
   <g id="line2d_34">
    <path d="M 543.653554 55.137631 
L 554.773388 64.714635 
L 565.893223 73.969614 
L 577.013058 82.90433 
L 588.132893 91.520485 
L 599.252727 99.819719 
L 610.372562 107.803613 
L 621.492397 115.473687 
L 632.612231 122.831399 
L 643.732066 129.878149 
L 654.851901 136.615279 
L 665.971736 143.044069 
L 677.09157 149.165743 
L 688.211405 154.981464 
L 699.33124 160.492337 
L 710.451074 165.699411 
L 721.570909 170.603675 
L 732.690744 175.20606 
L 743.810579 179.507442 
L 754.930413 183.508638 
L 766.050248 187.210408 
L 777.170083 190.613455 
L 788.289917 193.718426 
L 799.409752 196.525909 
L 810.529587 199.036439 
L 821.649421 201.250492 
L 832.769256 203.168489 
L 843.889091 204.790793 
L 855.008926 206.117714 
L 866.12876 207.149501 
L 877.248595 207.886353 
L 888.36843 208.328408 
L 899.488264 208.47575 
L 899.488264 208.47575 
" clip-path="url(#pc0650ce01e)" style="fill: none; stroke-dasharray: 7.4,3.2; stroke-dashoffset: 0; stroke: #ff7f0e; stroke-opacity: 0.8; stroke-width: 2"/>
   </g>
  </g>
 </g>
 <defs>
  <clipPath id="pa9244d918d">
   <rect x="56.16" y="25.92" width="391.418182" height="210.24"/>
  </clipPath>
  <clipPath id="pc0650ce01e">
   <rect x="525.861818" y="25.92" width="391.418182" height="210.24"/>
  </clipPath>
 </defs>
</svg>
