<?xml version="1.0" encoding="utf-8" standalone="no"?>
<!DOCTYPE svg PUBLIC "-//W3C//DTD SVG 1.1//EN"
  "http://www.w3.org/Graphics/SVG/1.1/DTD/svg11.dtd">
<svg xmlns:xlink="http://www.w3.org/1999/xlink" width="792pt" height="288pt" viewBox="0 0 792 288" xmlns="http://www.w3.org/2000/svg" version="1.1">
 <metadata>
  <rdf:RDF xmlns:dc="http://purl.org/dc/elements/1.1/" xmlns:cc="http://creativecommons.org/ns#" xmlns:rdf="http://www.w3.org/1999/02/22-rdf-syntax-ns#">
   <cc:Work>
    <dc:type rdf:resource="http://purl.org/dc/dcmitype/StillImage"/>
    <dc:date>2025-11-23T20:36:25.806855</dc:date>
    <dc:format>image/svg+xml</dc:format>
    <dc:creator>
     <cc:Agent>
      <dc:title>Matplotlib v3.7.2, https://matplotlib.org/</dc:title>
     </cc:Agent>
    </dc:creator>
   </cc:Work>
  </rdf:RDF>
 </metadata>
 <defs>
  <style type="text/css">*{stroke-linejoin: round; stroke-linecap: butt}</style>
 </defs>
 <g id="figure_1">
  <g id="patch_1">
   <path d="M 0 288 
L 792 288 
L 792 0 
L 0 0 
L 0 288 
z
" style="fill: none"/>
  </g>
  <g id="axes_1">
   <g id="patch_2">
    <path d="M 61.58 240.64 
L 781.2 240.64 
L 781.2 21.72 
L 61.58 21.72 
L 61.58 240.64 
z
" style="fill: none"/>
   </g>
   <g id="matplotlib.axis_1">
    <g id="xtick_1">
     <g id="line2d_1">
      <defs>
       <path id="m36bc57cf3c" d="M 0 0 
L 0 3.5 
" style="stroke: #000000; stroke-width: 0.8"/>
      </defs>
      <g>
       <use xlink:href="#m36bc57cf3c" x="94.29" y="240.64" style="stroke: #000000; stroke-width: 0.8"/>
      </g>
     </g>
     <g id="text_1">
      <!-- 0.0 -->
      <g transform="translate(86.338438 255.238438) scale(0.1 -0.1)">
       <defs>
        <path id="DejaVuSans-30" d="M 2034 4250 
Q 1547 4250 1301 3770 
Q 1056 3291 1056 2328 
Q 1056 1369 1301 889 
Q 1547 409 2034 409 
Q 2525 409 2770 889 
Q 3016 1369 3016 2328 
Q 3016 3291 2770 3770 
Q 2525 4250 2034 4250 
z
M 2034 4750 
Q 2819 4750 3233 4129 
Q 3647 3509 3647 2328 
Q 3647 1150 3233 529 
Q 2819 -91 2034 -91 
Q 1250 -91 836 529 
Q 422 1150 422 2328 
Q 422 3509 836 4129 
Q 1250 4750 2034 4750 
z
" transform="scale(0.015625)"/>
        <path id="DejaVuSans-2e" d="M 684 794 
L 1344 794 
L 1344 0 
L 684 0 
L 684 794 
z
" transform="scale(0.015625)"/>
       </defs>
       <use xlink:href="#DejaVuSans-30"/>
       <use xlink:href="#DejaVuSans-2e" x="63.623047"/>
       <use xlink:href="#DejaVuSans-30" x="95.410156"/>
      </g>
     </g>
    </g>
    <g id="xtick_2">
     <g id="line2d_2">
      <g>
       <use xlink:href="#m36bc57cf3c" x="203.323333" y="240.64" style="stroke: #000000; stroke-width: 0.8"/>
      </g>
     </g>
     <g id="text_2">
      <!-- 0.5 -->
      <g transform="translate(195.371771 255.238438) scale(0.1 -0.1)">
       <defs>
        <path id="DejaVuSans-35" d="M 691 4666 
L 3169 4666 
L 3169 4134 
L 1269 4134 
L 1269 2991 
Q 1406 3038 1543 3061 
Q 1681 3084 1819 3084 
Q 2600 3084 3056 2656 
Q 3513 2228 3513 1497 
Q 3513 744 3044 326 
Q 2575 -91 1722 -91 
Q 1428 -91 1123 -41 
Q 819 9 494 109 
L 494 744 
Q 775 591 1075 516 
Q 1375 441 1709 441 
Q 2250 441 2565 725 
Q 2881 1009 2881 1497 
Q 2881 1984 2565 2268 
Q 2250 2553 1709 2553 
Q 1456 2553 1204 2497 
Q 953 2441 691 2322 
L 691 4666 
z
" transform="scale(0.015625)"/>
       </defs>
       <use xlink:href="#DejaVuSans-30"/>
       <use xlink:href="#DejaVuSans-2e" x="63.623047"/>
       <use xlink:href="#DejaVuSans-35" x="95.410156"/>
      </g>
     </g>
    </g>
    <g id="xtick_3">
     <g id="line2d_3">
      <g>
       <use xlink:href="#m36bc57cf3c" x="312.356667" y="240.64" style="stroke: #000000; stroke-width: 0.8"/>
      </g>
     </g>
     <g id="text_3">
      <!-- 1.0 -->
      <g transform="translate(304.405104 255.238438) scale(0.1 -0.1)">
       <defs>
        <path id="DejaVuSans-31" d="M 794 531 
L 1825 531 
L 1825 4091 
L 703 3866 
L 703 4441 
L 1819 4666 
L 2450 4666 
L 2450 531 
L 3481 531 
L 3481 0 
L 794 0 
L 794 531 
z
" transform="scale(0.015625)"/>
       </defs>
       <use xlink:href="#DejaVuSans-31"/>
       <use xlink:href="#DejaVuSans-2e" x="63.623047"/>
       <use xlink:href="#DejaVuSans-30" x="95.410156"/>
      </g>
     </g>
    </g>
    <g id="xtick_4">
     <g id="line2d_4">
      <g>
       <use xlink:href="#m36bc57cf3c" x="421.39" y="240.64" style="stroke: #000000; stroke-width: 0.8"/>
      </g>
     </g>
     <g id="text_4">
      <!-- 1.5 -->
      <g transform="translate(413.438437 255.238438) scale(0.1 -0.1)">
       <use xlink:href="#DejaVuSans-31"/>
       <use xlink:href="#DejaVuSans-2e" x="63.623047"/>
       <use xlink:href="#DejaVuSans-35" x="95.410156"/>
      </g>
     </g>
    </g>
    <g id="xtick_5">
     <g id="line2d_5">
      <g>
       <use xlink:href="#m36bc57cf3c" x="530.423333" y="240.64" style="stroke: #000000; stroke-width: 0.8"/>
      </g>
     </g>
     <g id="text_5">
      <!-- 2.0 -->
      <g transform="translate(522.471771 255.238438) scale(0.1 -0.1)">
       <defs>
        <path id="DejaVuSans-32" d="M 1228 531 
L 3431 531 
L 3431 0 
L 469 0 
L 469 531 
Q 828 903 1448 1529 
Q 2069 2156 2228 2338 
Q 2531 2678 2651 2914 
Q 2772 3150 2772 3378 
Q 2772 3750 2511 3984 
Q 2250 4219 1831 4219 
Q 1534 4219 1204 4116 
Q 875 4013 500 3803 
L 500 4441 
Q 881 4594 1212 4672 
Q 1544 4750 1819 4750 
Q 2544 4750 2975 4387 
Q 3406 4025 3406 3419 
Q 3406 3131 3298 2873 
Q 3191 2616 2906 2266 
Q 2828 2175 2409 1742 
Q 1991 1309 1228 531 
z
" transform="scale(0.015625)"/>
       </defs>
       <use xlink:href="#DejaVuSans-32"/>
       <use xlink:href="#DejaVuSans-2e" x="63.623047"/>
       <use xlink:href="#DejaVuSans-30" x="95.410156"/>
      </g>
     </g>
    </g>
    <g id="xtick_6">
     <g id="line2d_6">
      <g>
       <use xlink:href="#m36bc57cf3c" x="639.456667" y="240.64" style="stroke: #000000; stroke-width: 0.8"/>
      </g>
     </g>
     <g id="text_6">
      <!-- 2.5 -->
      <g transform="translate(631.505104 255.238438) scale(0.1 -0.1)">
       <use xlink:href="#DejaVuSans-32"/>
       <use xlink:href="#DejaVuSans-2e" x="63.623047"/>
       <use xlink:href="#DejaVuSans-35" x="95.410156"/>
      </g>
     </g>
    </g>
    <g id="xtick_7">
     <g id="line2d_7">
      <g>
       <use xlink:href="#m36bc57cf3c" x="748.49" y="240.64" style="stroke: #000000; stroke-width: 0.8"/>
      </g>
     </g>
     <g id="text_7">
      <!-- 3.0 -->
      <g transform="translate(740.538437 255.238438) scale(0.1 -0.1)">
       <defs>
        <path id="DejaVuSans-33" d="M 2597 2516 
Q 3050 2419 3304 2112 
Q 3559 1806 3559 1356 
Q 3559 666 3084 287 
Q 2609 -91 1734 -91 
Q 1441 -91 1130 -33 
Q 819 25 488 141 
L 488 750 
Q 750 597 1062 519 
Q 1375 441 1716 441 
Q 2309 441 2620 675 
Q 2931 909 2931 1356 
Q 2931 1769 2642 2001 
Q 2353 2234 1838 2234 
L 1294 2234 
L 1294 2753 
L 1863 2753 
Q 2328 2753 2575 2939 
Q 2822 3125 2822 3475 
Q 2822 3834 2567 4026 
Q 2313 4219 1838 4219 
Q 1578 4219 1281 4162 
Q 984 4106 628 3988 
L 628 4550 
Q 988 4650 1302 4700 
Q 1616 4750 1894 4750 
Q 2613 4750 3031 4423 
Q 3450 4097 3450 3541 
Q 3450 3153 3228 2886 
Q 3006 2619 2597 2516 
z
" transform="scale(0.015625)"/>
       </defs>
       <use xlink:href="#DejaVuSans-33"/>
       <use xlink:href="#DejaVuSans-2e" x="63.623047"/>
       <use xlink:href="#DejaVuSans-30" x="95.410156"/>
      </g>
     </g>
    </g>
    <g id="text_8">
     <!-- $\omega/T$ -->
     <g transform="translate(409.23 273.475625) scale(0.16 -0.16)">
      <defs>
       <path id="STIXGeneral-Italic-3c9" d="M 3021 2810 
L 3136 2810 
Q 3648 2810 3898 2598 
Q 4186 2355 4186 1824 
Q 4186 1357 3910 838 
Q 3667 390 3334 160 
Q 3002 -70 2669 -70 
Q 2438 -70 2281 3 
Q 2125 77 2064 160 
Q 2003 243 1939 384 
Q 1741 147 1533 38 
Q 1325 -70 998 -70 
Q 659 -70 416 160 
Q 173 390 173 832 
Q 173 1101 237 1350 
Q 403 1965 883 2387 
Q 1363 2810 2010 2810 
L 2125 2810 
L 2125 2707 
Q 1606 2707 1267 2291 
Q 1024 1990 867 1526 
Q 710 1062 710 666 
Q 710 64 1075 64 
Q 1286 64 1523 285 
Q 1760 506 1856 774 
Q 1837 915 1837 1101 
Q 1837 1363 1914 1651 
Q 1984 1920 2125 2105 
Q 2266 2291 2432 2291 
Q 2656 2291 2656 1997 
Q 2656 1530 2387 1062 
Q 2272 864 2189 736 
Q 2176 691 2176 602 
Q 2176 384 2288 224 
Q 2400 64 2592 64 
Q 3040 64 3341 627 
Q 3482 896 3565 1270 
Q 3648 1645 3648 1971 
Q 3648 2240 3616 2362 
Q 3565 2566 3411 2636 
Q 3258 2707 3021 2707 
L 3021 2810 
z
" transform="scale(0.015625)"/>
       <path id="STIXGeneral-Regular-2f" d="M 1837 4326 
L 378 -90 
L -58 -90 
L 1408 4326 
L 1837 4326 
z
" transform="scale(0.015625)"/>
       <path id="STIXGeneral-Italic-54" d="M 4051 4179 
L 3770 3130 
L 3661 3142 
Q 3680 3302 3680 3437 
Q 3680 3955 3034 3955 
L 2662 3955 
L 1786 819 
Q 1696 506 1696 397 
Q 1696 250 1766 195 
Q 1837 141 2035 122 
L 2259 102 
L 2259 0 
L 416 0 
L 416 102 
Q 749 134 889 230 
Q 1030 326 1101 582 
L 2016 3955 
Q 1254 3955 988 3817 
Q 723 3680 493 3162 
L 378 3187 
L 646 4179 
L 4051 4179 
z
" transform="scale(0.015625)"/>
      </defs>
      <use xlink:href="#STIXGeneral-Italic-3c9" transform="translate(0 0.40625)"/>
      <use xlink:href="#STIXGeneral-Regular-2f" transform="translate(68.599991 0.40625)"/>
      <use xlink:href="#STIXGeneral-Italic-54" transform="translate(96.399979 0.40625)"/>
     </g>
    </g>
   </g>
   <g id="matplotlib.axis_2">
    <g id="ytick_1">
     <g id="line2d_8">
      <defs>
       <path id="m2cb41a8a40" d="M 0 0 
L -3.5 0 
" style="stroke: #000000; stroke-width: 0.8"/>
      </defs>
      <g>
       <use xlink:href="#m2cb41a8a40" x="61.58" y="232.97111" style="stroke: #000000; stroke-width: 0.8"/>
      </g>
     </g>
     <g id="text_9">
      <!-- −1.5 -->
      <g transform="translate(30.297188 236.770328) scale(0.1 -0.1)">
       <defs>
        <path id="DejaVuSans-2212" d="M 678 2272 
L 4684 2272 
L 4684 1741 
L 678 1741 
L 678 2272 
z
" transform="scale(0.015625)"/>
       </defs>
       <use xlink:href="#DejaVuSans-2212"/>
       <use xlink:href="#DejaVuSans-31" x="83.789062"/>
       <use xlink:href="#DejaVuSans-2e" x="147.412109"/>
       <use xlink:href="#DejaVuSans-35" x="179.199219"/>
      </g>
     </g>
    </g>
    <g id="ytick_2">
     <g id="line2d_9">
      <g>
       <use xlink:href="#m2cb41a8a40" x="61.58" y="194.213201" style="stroke: #000000; stroke-width: 0.8"/>
      </g>
     </g>
     <g id="text_10">
      <!-- −1.0 -->
      <g transform="translate(30.297188 198.012419) scale(0.1 -0.1)">
       <use xlink:href="#DejaVuSans-2212"/>
       <use xlink:href="#DejaVuSans-31" x="83.789062"/>
       <use xlink:href="#DejaVuSans-2e" x="147.412109"/>
       <use xlink:href="#DejaVuSans-30" x="179.199219"/>
      </g>
     </g>
    </g>
    <g id="ytick_3">
     <g id="line2d_10">
      <g>
       <use xlink:href="#m2cb41a8a40" x="61.58" y="155.455292" style="stroke: #000000; stroke-width: 0.8"/>
      </g>
     </g>
     <g id="text_11">
      <!-- −0.5 -->
      <g transform="translate(30.297188 159.254511) scale(0.1 -0.1)">
       <use xlink:href="#DejaVuSans-2212"/>
       <use xlink:href="#DejaVuSans-30" x="83.789062"/>
       <use xlink:href="#DejaVuSans-2e" x="147.412109"/>
       <use xlink:href="#DejaVuSans-35" x="179.199219"/>
      </g>
     </g>
    </g>
    <g id="ytick_4">
     <g id="line2d_11">
      <g>
       <use xlink:href="#m2cb41a8a40" x="61.58" y="116.697383" style="stroke: #000000; stroke-width: 0.8"/>
      </g>
     </g>
     <g id="text_12">
      <!-- 0.0 -->
      <g transform="translate(38.676875 120.496602) scale(0.1 -0.1)">
       <use xlink:href="#DejaVuSans-30"/>
       <use xlink:href="#DejaVuSans-2e" x="63.623047"/>
       <use xlink:href="#DejaVuSans-30" x="95.410156"/>
      </g>
     </g>
    </g>
    <g id="ytick_5">
     <g id="line2d_12">
      <g>
       <use xlink:href="#m2cb41a8a40" x="61.58" y="77.939474" style="stroke: #000000; stroke-width: 0.8"/>
      </g>
     </g>
     <g id="text_13">
      <!-- 0.5 -->
      <g transform="translate(38.676875 81.738693) scale(0.1 -0.1)">
       <use xlink:href="#DejaVuSans-30"/>
       <use xlink:href="#DejaVuSans-2e" x="63.623047"/>
       <use xlink:href="#DejaVuSans-35" x="95.410156"/>
      </g>
     </g>
    </g>
    <g id="ytick_6">
     <g id="line2d_13">
      <g>
       <use xlink:href="#m2cb41a8a40" x="61.58" y="39.181565" style="stroke: #000000; stroke-width: 0.8"/>
      </g>
     </g>
     <g id="text_14">
      <!-- 1.0 -->
      <g transform="translate(38.676875 42.980784) scale(0.1 -0.1)">
       <use xlink:href="#DejaVuSans-31"/>
       <use xlink:href="#DejaVuSans-2e" x="63.623047"/>
       <use xlink:href="#DejaVuSans-30" x="95.410156"/>
      </g>
     </g>
    </g>
    <g id="text_15">
     <!-- $\rho(\omega)T$ -->
     <g transform="translate(22.937188 150.54) rotate(-90) scale(0.16 -0.16)">
      <defs>
       <path id="STIXGeneral-Italic-3c1" d="M -58 -864 
L 422 966 
Q 640 1811 1081 2316 
Q 1523 2822 2042 2822 
Q 2189 2822 2278 2816 
Q 2368 2810 2525 2765 
Q 2682 2720 2774 2633 
Q 2867 2547 2940 2371 
Q 3014 2195 3014 1946 
Q 3014 1210 2403 570 
Q 1792 -70 1107 -70 
Q 864 -70 672 38 
L 442 -864 
Q 378 -1126 243 -1312 
L -256 -1312 
Q -128 -1114 -58 -864 
z
M 2445 1997 
Q 2445 2291 2333 2489 
Q 2221 2688 2022 2688 
Q 1747 2688 1472 2361 
Q 1197 2035 1056 1530 
Q 762 467 762 288 
Q 762 186 851 118 
Q 941 51 1075 51 
Q 1472 58 1798 390 
Q 2125 723 2285 1161 
Q 2445 1600 2445 1997 
z
" transform="scale(0.015625)"/>
       <path id="STIXGeneral-Regular-28" d="M 1946 -1030 
L 1869 -1133 
Q 1126 -710 716 32 
Q 307 774 307 1613 
Q 307 3386 1888 4326 
L 1946 4224 
Q 1293 3667 1075 3126 
Q 858 2586 858 1632 
Q 858 685 1082 96 
Q 1306 -493 1946 -1030 
z
" transform="scale(0.015625)"/>
       <path id="STIXGeneral-Regular-29" d="M 186 4224 
L 262 4326 
Q 992 3891 1408 3148 
Q 1824 2406 1824 1581 
Q 1824 -166 243 -1133 
L 186 -1030 
Q 845 -486 1059 54 
Q 1274 595 1274 1562 
Q 1274 2534 1059 3120 
Q 845 3706 186 4224 
z
" transform="scale(0.015625)"/>
      </defs>
      <use xlink:href="#STIXGeneral-Italic-3c1" transform="translate(0 0.40625)"/>
      <use xlink:href="#STIXGeneral-Regular-28" transform="translate(50.399994 0.40625)"/>
      <use xlink:href="#STIXGeneral-Italic-3c9" transform="translate(83.699982 0.40625)"/>
      <use xlink:href="#STIXGeneral-Regular-29" transform="translate(152.299973 0.40625)"/>
      <use xlink:href="#STIXGeneral-Italic-54" transform="translate(185.59996 0.40625)"/>
     </g>
    </g>
    <g id="text_16">
     <!-- 1e9 -->
     <g transform="translate(61.58 18.72) scale(0.1 -0.1)">
      <defs>
       <path id="DejaVuSans-65" d="M 3597 1894 
L 3597 1613 
L 953 1613 
Q 991 1019 1311 708 
Q 1631 397 2203 397 
Q 2534 397 2845 478 
Q 3156 559 3463 722 
L 3463 178 
Q 3153 47 2828 -22 
Q 2503 -91 2169 -91 
Q 1331 -91 842 396 
Q 353 884 353 1716 
Q 353 2575 817 3079 
Q 1281 3584 2069 3584 
Q 2775 3584 3186 3129 
Q 3597 2675 3597 1894 
z
M 3022 2063 
Q 3016 2534 2758 2815 
Q 2500 3097 2075 3097 
Q 1594 3097 1305 2825 
Q 1016 2553 972 2059 
L 3022 2063 
z
" transform="scale(0.015625)"/>
       <path id="DejaVuSans-39" d="M 703 97 
L 703 672 
Q 941 559 1184 500 
Q 1428 441 1663 441 
Q 2288 441 2617 861 
Q 2947 1281 2994 2138 
Q 2813 1869 2534 1725 
Q 2256 1581 1919 1581 
Q 1219 1581 811 2004 
Q 403 2428 403 3163 
Q 403 3881 828 4315 
Q 1253 4750 1959 4750 
Q 2769 4750 3195 4129 
Q 3622 3509 3622 2328 
Q 3622 1225 3098 567 
Q 2575 -91 1691 -91 
Q 1453 -91 1209 -44 
Q 966 3 703 97 
z
M 1959 2075 
Q 2384 2075 2632 2365 
Q 2881 2656 2881 3163 
Q 2881 3666 2632 3958 
Q 2384 4250 1959 4250 
Q 1534 4250 1286 3958 
Q 1038 3666 1038 3163 
Q 1038 2656 1286 2365 
Q 1534 2075 1959 2075 
z
" transform="scale(0.015625)"/>
      </defs>
      <use xlink:href="#DejaVuSans-31"/>
      <use xlink:href="#DejaVuSans-65" x="63.623047"/>
      <use xlink:href="#DejaVuSans-39" x="125.146484"/>
     </g>
    </g>
   </g>
   <g id="line2d_14">
    <path d="M 94.29 116.697383 
L 748.49 116.697383 
L 748.49 116.697383 
" clip-path="url(#pb00907b454)" style="fill: none; stroke: #1f77b4; stroke-width: 2; stroke-linecap: square"/>
   </g>
   <g id="line2d_15">
    <path d="M 94.29 107.63624 
L 94.653646 135.376114 
L 95.380939 31.670909 
L 95.744586 105.668958 
L 96.108232 52.544824 
L 96.471879 167.226051 
L 96.835525 92.607857 
L 97.199172 132.835913 
L 97.562818 73.151741 
L 97.926465 57.520561 
L 98.290111 136.411996 
L 98.653758 84.849321 
L 99.017404 164.933069 
L 99.381051 93.316731 
L 99.744697 177.752812 
L 100.108344 132.592718 
L 100.835636 98.025348 
L 101.199283 100.473792 
L 101.562929 128.8819 
L 101.926576 131.359474 
L 102.290222 230.689091 
L 102.653869 54.392139 
L 103.017515 126.161203 
L 103.381162 142.612052 
L 104.108455 96.706341 
L 104.472101 141.097981 
L 105.199394 153.804285 
L 105.926687 105.848644 
L 106.290334 127.589715 
L 106.65398 129.949239 
L 107.017626 108.838961 
L 107.381273 116.287882 
L 107.744919 129.061518 
L 108.108566 98.531911 
L 108.472212 121.520919 
L 108.835859 116.301567 
L 109.199505 101.724013 
L 109.563152 109.988487 
L 109.926798 132.342821 
L 110.290445 96.79925 
L 110.654091 119.808819 
L 111.017738 133.421812 
L 111.381384 101.288416 
L 111.745031 115.618066 
L 112.108677 105.019918 
L 112.472324 125.473213 
L 112.83597 115.721635 
L 113.199616 117.152618 
L 113.563263 139.384061 
L 113.926909 142.630347 
L 114.290556 134.613804 
L 114.654202 96.266522 
L 115.017849 132.748373 
L 115.381495 112.289264 
L 115.745142 110.58824 
L 116.108788 100.867486 
L 116.472435 118.853753 
L 116.836081 92.515809 
L 117.199728 120.988689 
L 117.563374 116.226436 
L 117.927021 128.751863 
L 118.290667 107.498078 
L 118.654314 110.839246 
L 119.01796 103.281371 
L 119.381606 122.676898 
L 119.745253 123.706188 
L 120.108899 118.644404 
L 120.472546 151.881413 
L 121.199839 117.526989 
L 121.563485 130.731027 
L 121.927132 131.606577 
L 122.290778 142.457165 
L 122.654425 124.075934 
L 123.018071 132.97294 
L 123.745364 81.160365 
L 124.836304 133.441831 
L 125.19995 123.939668 
L 125.563596 108.402331 
L 125.927243 104.77146 
L 126.290889 123.134577 
L 126.654536 120.024439 
L 127.018182 107.89214 
L 127.381829 165.927488 
L 127.745475 91.774227 
L 128.109122 101.908579 
L 128.472768 103.948719 
L 128.836415 131.98124 
L 129.200061 99.733681 
L 129.563708 116.274589 
L 129.927354 125.168659 
L 130.291001 124.915476 
L 130.654647 116.231448 
L 131.018293 91.866443 
L 131.38194 143.397759 
L 131.745586 124.01182 
L 132.109233 89.411157 
L 132.472879 92.462926 
L 132.836526 132.123106 
L 133.200172 121.956537 
L 133.563819 128.297577 
L 133.927465 105.010676 
L 134.291112 113.290399 
L 134.654758 117.21038 
L 135.018405 96.182034 
L 135.382051 156.857316 
L 135.745698 109.755767 
L 136.109344 104.096401 
L 136.472991 121.008772 
L 136.836637 92.625002 
L 137.56393 117.083899 
L 137.927576 108.736024 
L 138.291223 117.836069 
L 138.654869 85.618993 
L 139.018516 94.836458 
L 139.382162 114.004587 
L 139.745809 139.722737 
L 140.473102 95.794222 
L 140.836748 115.25838 
L 141.200395 119.963569 
L 141.564041 112.364115 
L 141.927688 109.435176 
L 142.291334 119.48379 
L 142.654981 96.212544 
L 143.018627 101.808271 
L 143.74592 121.672517 
L 144.109566 103.627728 
L 144.473213 121.920902 
L 144.836859 102.604375 
L 145.200506 101.300407 
L 145.564152 108.019219 
L 145.927799 95.295141 
L 146.291445 133.953069 
L 146.655092 136.404548 
L 147.018738 91.069105 
L 147.746031 119.870628 
L 148.109678 121.556546 
L 148.473324 129.648521 
L 148.836971 150.791683 
L 149.200617 149.453254 
L 149.564263 114.888299 
L 149.92791 121.343063 
L 150.291556 106.272232 
L 150.655203 113.423944 
L 151.018849 127.319707 
L 151.382496 113.911994 
L 151.746142 110.265622 
L 152.109789 136.795756 
L 152.473435 121.579239 
L 152.837082 119.948759 
L 153.564375 130.335011 
L 153.928021 120.049922 
L 154.291668 98.964633 
L 154.655314 93.253289 
L 155.018961 116.416507 
L 155.382607 103.273595 
L 155.746253 115.662049 
L 156.1099 118.577091 
L 156.473546 117.428332 
L 156.837193 122.90841 
L 157.200839 123.227225 
L 157.564486 137.933206 
L 157.928132 128.019457 
L 158.291779 101.253745 
L 158.655425 146.751736 
L 159.019072 118.228355 
L 159.382718 135.315044 
L 159.746365 116.267988 
L 160.110011 137.554852 
L 160.473658 117.330631 
L 160.837304 143.963916 
L 161.200951 145.829125 
L 161.564597 113.981836 
L 161.928243 126.306833 
L 162.29189 125.230735 
L 162.655536 110.512993 
L 163.019183 133.153528 
L 163.382829 118.252477 
L 163.746476 119.551465 
L 164.110122 100.709796 
L 164.473769 94.768886 
L 164.837415 105.525918 
L 165.201062 140.860298 
L 165.564708 110.61869 
L 165.928355 113.067851 
L 166.292001 113.306521 
L 166.655648 113.340603 
L 167.019294 92.813279 
L 167.382941 141.700795 
L 167.746587 142.841672 
L 168.110233 113.935119 
L 168.47388 139.148889 
L 169.201173 111.74429 
L 169.564819 78.544198 
L 169.928466 128.626255 
L 170.292112 138.489762 
L 170.655759 110.767503 
L 171.019405 126.10222 
L 171.383052 122.653782 
L 171.746698 114.892645 
L 172.110345 96.894278 
L 172.473991 133.966031 
L 172.837638 103.104443 
L 173.201284 105.47609 
L 173.564931 126.456337 
L 173.928577 100.717388 
L 174.292223 110.495329 
L 174.65587 109.528273 
L 175.019516 110.161251 
L 175.383163 96.868704 
L 175.746809 129.448715 
L 176.110456 87.009623 
L 176.837749 131.737541 
L 177.201395 119.718539 
L 177.565042 118.916485 
L 177.928688 113.744103 
L 178.292335 127.433936 
L 178.655981 119.603521 
L 179.019628 97.212171 
L 179.383274 106.140386 
L 180.110567 132.397803 
L 180.474213 113.304468 
L 180.83786 100.818413 
L 181.201506 115.565664 
L 181.565153 142.215692 
L 181.928799 117.422177 
L 182.292446 132.683914 
L 182.656092 106.487395 
L 183.019739 94.047126 
L 183.383385 88.429601 
L 183.747032 128.169285 
L 184.110678 77.643431 
L 184.837971 114.992906 
L 185.201618 119.904618 
L 185.565264 98.77663 
L 185.928911 131.521574 
L 186.292557 119.778937 
L 186.656203 124.621844 
L 187.01985 132.272127 
L 187.383496 121.704411 
L 187.747143 130.054415 
L 188.110789 127.23662 
L 188.474436 121.657056 
L 189.201729 131.213584 
L 189.929022 92.700536 
L 190.292668 96.503011 
L 191.019961 121.486523 
L 191.383608 103.21566 
L 191.747254 130.361076 
L 192.110901 134.879358 
L 192.474547 111.957307 
L 192.838193 117.732692 
L 193.20184 118.71775 
L 193.565486 130.887419 
L 193.929133 105.800502 
L 194.292779 130.011532 
L 194.656426 134.702459 
L 195.020072 91.172257 
L 196.111012 128.558245 
L 196.474658 97.636741 
L 196.838305 112.456574 
L 197.201951 122.158785 
L 197.565598 105.303346 
L 197.929244 139.907728 
L 198.29289 133.520978 
L 198.656537 123.055522 
L 199.020183 118.033225 
L 199.747476 128.809393 
L 200.111123 102.89629 
L 200.474769 100.113001 
L 200.838416 106.241867 
L 201.202062 109.743832 
L 201.565709 126.525989 
L 201.929355 122.022802 
L 202.293002 122.250478 
L 202.656648 103.320082 
L 203.020295 119.851387 
L 203.383941 125.571951 
L 203.747588 95.214753 
L 204.111234 115.663588 
L 204.47488 115.063963 
L 204.838527 95.82845 
L 205.202173 129.676366 
L 205.929466 98.332315 
L 206.293113 97.996533 
L 206.656759 86.830133 
L 207.020406 143.773306 
L 207.384052 106.570172 
L 207.747699 116.359986 
L 208.111345 116.289718 
L 208.474992 122.981974 
L 208.838638 115.734891 
L 209.202285 122.659675 
L 209.565931 132.094782 
L 209.929578 133.116027 
L 210.293224 89.453249 
L 210.65687 117.117168 
L 211.020517 127.01767 
L 211.384163 145.371721 
L 211.74781 121.539436 
L 212.111456 122.446715 
L 212.475103 94.118285 
L 212.838749 137.768476 
L 213.202396 112.450928 
L 213.566042 110.165319 
L 213.929689 119.204658 
L 214.293335 141.343303 
L 214.656982 131.03801 
L 215.020628 114.398256 
L 215.384275 128.22695 
L 215.747921 127.103237 
L 216.111568 142.095588 
L 216.475214 94.409426 
L 216.83886 103.701376 
L 217.202507 121.609559 
L 217.566153 118.507038 
L 217.9298 132.087975 
L 218.293446 112.595275 
L 218.657093 121.776159 
L 219.020739 96.619187 
L 219.384386 133.245215 
L 219.748032 105.887879 
L 220.475325 132.566967 
L 220.838972 83.23345 
L 221.202618 109.741527 
L 221.566265 90.677878 
L 221.929911 142.745984 
L 222.293558 119.465784 
L 223.02085 101.971234 
L 223.384497 121.747976 
L 223.748143 132.321201 
L 224.11179 116.994724 
L 224.475436 139.006069 
L 224.839083 131.353339 
L 225.202729 111.111733 
L 225.930022 137.25711 
L 226.293669 100.550774 
L 226.657315 94.661401 
L 227.384608 138.01192 
L 227.748255 114.367675 
L 228.111901 110.947575 
L 228.475548 111.511577 
L 228.839194 104.748774 
L 229.566487 127.001582 
L 229.930133 90.763896 
L 230.29378 133.229562 
L 230.657426 115.528857 
L 231.021073 106.636893 
L 231.384719 148.928045 
L 231.748366 105.352082 
L 232.112012 116.641982 
L 232.475659 120.133992 
L 232.839305 137.079526 
L 233.202952 100.35906 
L 233.566598 122.913763 
L 233.930245 105.044926 
L 234.293891 111.148549 
L 234.657538 105.070863 
L 235.021184 140.64693 
L 235.38483 96.491959 
L 235.748477 129.04706 
L 236.112123 112.425464 
L 236.47577 85.170171 
L 236.839416 109.922047 
L 237.203063 104.930641 
L 237.566709 107.568163 
L 237.930356 124.687266 
L 238.294002 114.352103 
L 238.657649 143.18728 
L 239.021295 116.758163 
L 239.384942 123.579629 
L 239.748588 109.984796 
L 240.112235 138.920829 
L 240.475881 124.616325 
L 240.839528 99.400371 
L 241.203174 130.481247 
L 241.56682 113.801431 
L 241.930467 112.957218 
L 242.294113 120.584799 
L 242.65776 138.39282 
L 243.021406 129.749643 
L 243.385053 136.623133 
L 243.748699 135.654552 
L 244.112346 112.708199 
L 244.475992 123.288705 
L 244.839639 85.987133 
L 245.203285 87.150134 
L 245.566932 101.777521 
L 245.930578 122.953534 
L 246.294225 130.338111 
L 246.657871 132.527993 
L 247.021518 88.141549 
L 247.385164 117.252378 
L 247.74881 103.341973 
L 248.112457 117.990068 
L 248.476103 104.706419 
L 248.83975 130.148836 
L 249.203396 90.794212 
L 249.567043 145.250416 
L 249.930689 126.915289 
L 250.294336 133.417823 
L 251.021629 120.875291 
L 251.385275 115.575678 
L 251.748922 99.365802 
L 252.112568 104.621651 
L 252.476215 101.570053 
L 252.839861 127.599623 
L 253.203508 114.166316 
L 253.567154 85.164734 
L 253.9308 139.671887 
L 254.294447 106.767239 
L 254.658093 129.104755 
L 255.02174 99.395563 
L 255.385386 116.292774 
L 255.749033 124.556743 
L 256.112679 102.474012 
L 256.476326 89.298075 
L 256.839972 100.554417 
L 257.203619 107.736146 
L 257.567265 123.284215 
L 258.294558 109.842165 
L 258.658205 117.621449 
L 259.021851 120.294107 
L 259.385497 137.570109 
L 259.749144 102.594308 
L 260.11279 126.43723 
L 260.476437 97.872062 
L 260.840083 124.732858 
L 261.20373 137.317921 
L 261.567376 107.475396 
L 261.931023 116.116887 
L 262.294669 142.189303 
L 262.658316 84.315326 
L 263.021962 153.25213 
L 263.385609 90.375108 
L 263.749255 93.148869 
L 264.112902 134.714996 
L 264.476548 110.048163 
L 264.840195 120.543327 
L 265.203841 98.682654 
L 265.567487 126.066147 
L 265.931134 141.937025 
L 266.29478 121.546334 
L 266.658427 108.015744 
L 267.022073 122.184829 
L 267.38572 119.077662 
L 267.749366 103.978419 
L 268.113013 123.794747 
L 268.476659 115.613377 
L 268.840306 115.571341 
L 269.203952 104.288182 
L 269.931245 134.490072 
L 270.294892 109.297296 
L 270.658538 121.296786 
L 271.022185 98.455934 
L 271.385831 118.317078 
L 271.749477 111.655279 
L 272.113124 88.623574 
L 272.47677 143.384009 
L 272.840417 111.593398 
L 273.204063 92.662744 
L 273.56771 120.960484 
L 273.931356 94.669062 
L 274.295003 115.852574 
L 274.658649 93.696622 
L 275.385942 118.221739 
L 275.749589 112.495201 
L 276.113235 94.122368 
L 276.476882 118.138479 
L 276.840528 105.781364 
L 277.204175 124.240011 
L 277.567821 123.879394 
L 277.931467 114.665698 
L 278.295114 121.960558 
L 278.65876 131.902538 
L 279.386053 120.02374 
L 279.7497 105.440789 
L 280.113346 123.721851 
L 280.476993 98.429903 
L 280.840639 135.057504 
L 281.204286 113.652196 
L 281.567932 131.893745 
L 281.931579 138.851272 
L 282.295225 139.039081 
L 282.658872 97.892447 
L 283.022518 116.784697 
L 283.386165 102.036841 
L 283.749811 109.91248 
L 284.113457 113.16265 
L 284.477104 135.187771 
L 284.84075 93.590889 
L 285.204397 99.49904 
L 285.568043 85.252764 
L 285.93169 108.840057 
L 286.295336 106.990148 
L 286.658983 96.670678 
L 287.022629 125.865993 
L 287.386276 111.490438 
L 287.749922 105.312646 
L 288.477215 131.058283 
L 288.840862 123.147537 
L 289.204508 127.71445 
L 289.568155 123.113946 
L 289.931801 114.232462 
L 290.295447 109.613808 
L 290.659094 128.252988 
L 291.02274 121.525384 
L 291.386387 88.833656 
L 291.750033 114.897077 
L 292.11368 97.523609 
L 292.477326 94.821754 
L 292.840973 113.687111 
L 293.204619 106.144111 
L 293.568266 135.797775 
L 293.931912 109.601502 
L 294.659205 129.450614 
L 295.022852 105.779873 
L 295.386498 105.909579 
L 295.750145 103.751176 
L 296.113791 141.045692 
L 296.477437 122.368062 
L 296.841084 128.978026 
L 297.20473 104.146636 
L 297.568377 100.885842 
L 297.932023 125.780437 
L 298.29567 108.847186 
L 298.659316 124.683546 
L 299.022963 112.352467 
L 299.386609 132.086882 
L 299.750256 106.863775 
L 300.113902 133.207422 
L 300.477549 120.129078 
L 300.841195 116.67059 
L 301.204842 150.237282 
L 301.568488 113.920173 
L 301.932135 136.111575 
L 302.295781 116.006837 
L 302.659427 142.790194 
L 303.023074 120.609908 
L 303.38672 118.480914 
L 303.750367 109.08502 
L 304.114013 110.571782 
L 304.47766 109.182939 
L 304.841306 142.239239 
L 305.568599 103.110435 
L 305.932246 132.598178 
L 306.295892 118.160354 
L 306.659539 119.295569 
L 307.023185 147.833429 
L 307.386832 129.411367 
L 307.750478 132.89636 
L 308.114125 132.578061 
L 308.477771 104.667752 
L 308.841417 118.12773 
L 309.205064 112.510561 
L 309.56871 116.796087 
L 309.932357 105.455613 
L 310.296003 129.311769 
L 310.65965 73.951005 
L 311.023296 121.723601 
L 311.386943 101.955967 
L 311.750589 101.458223 
L 312.477882 120.096708 
L 312.841529 86.416844 
L 313.205175 107.827079 
L 313.568822 102.399233 
L 313.932468 104.997357 
L 314.296115 103.713351 
L 314.659761 113.794012 
L 315.023407 110.353552 
L 315.387054 108.888362 
L 315.7507 126.79279 
L 316.114347 107.541256 
L 316.477993 121.672571 
L 316.84164 143.203294 
L 317.205286 120.684613 
L 317.568933 107.256013 
L 317.932579 99.592582 
L 318.296226 116.341558 
L 318.659872 139.663485 
L 319.023519 118.953527 
L 319.387165 87.876787 
L 319.750812 107.505432 
L 320.114458 87.427952 
L 320.478105 111.720556 
L 321.205397 105.211001 
L 321.569044 117.701138 
L 321.93269 113.885355 
L 322.296337 92.921211 
L 322.659983 108.287589 
L 323.02363 99.131412 
L 323.387276 124.93828 
L 323.750923 118.512455 
L 324.114569 115.5783 
L 324.478216 134.438252 
L 324.841862 108.913391 
L 325.205509 149.667063 
L 325.932802 100.210554 
L 326.296448 110.905355 
L 326.660094 111.806599 
L 327.023741 107.739046 
L 327.387387 105.636471 
L 327.751034 129.468277 
L 328.478327 101.485893 
L 328.841973 115.877622 
L 329.20562 157.465751 
L 329.569266 111.517767 
L 329.932913 90.517189 
L 330.296559 130.174142 
L 330.660206 117.739599 
L 331.023852 120.113864 
L 331.387499 134.872235 
L 331.751145 119.985378 
L 332.114792 141.599027 
L 332.478438 112.453467 
L 332.842084 139.230757 
L 333.569377 94.993797 
L 334.29667 128.959141 
L 334.660317 126.713679 
L 335.023963 112.476044 
L 335.38761 123.59138 
L 336.114903 124.692194 
L 336.478549 98.541279 
L 336.842196 133.455493 
L 337.205842 111.828836 
L 337.569489 137.177329 
L 337.933135 139.106638 
L 338.296782 96.654111 
L 338.660428 134.048247 
L 339.024074 108.509881 
L 339.387721 94.659065 
L 339.751367 114.584678 
L 340.115014 98.334327 
L 340.47866 128.479071 
L 340.842307 120.338967 
L 341.205953 96.022335 
L 341.5696 118.519478 
L 341.933246 105.229737 
L 342.296893 123.040707 
L 342.660539 100.289013 
L 343.024186 99.950436 
L 343.387832 103.32359 
L 343.751479 125.140586 
L 344.115125 108.794941 
L 344.478772 142.873738 
L 344.842418 147.069968 
L 345.206064 112.058582 
L 345.569711 100.082496 
L 345.933357 138.003806 
L 346.297004 120.403809 
L 346.66065 117.137401 
L 347.024297 104.460631 
L 347.387943 129.732335 
L 347.75159 139.902458 
L 348.115236 112.341657 
L 348.478883 117.565237 
L 348.842529 116.704643 
L 349.206176 107.052306 
L 349.569822 112.390724 
L 349.933469 99.743727 
L 350.297115 134.731704 
L 350.660762 106.684025 
L 351.024408 107.753963 
L 351.388054 118.75568 
L 351.751701 102.953535 
L 352.115347 114.18926 
L 352.478994 93.618983 
L 352.84264 126.431823 
L 353.206287 119.69962 
L 353.569933 120.226097 
L 353.93358 117.753218 
L 354.297226 91.444539 
L 354.660873 124.506542 
L 355.024519 122.986096 
L 355.388166 114.991117 
L 355.751812 128.00781 
L 356.115459 122.168953 
L 356.842752 129.355577 
L 357.206398 130.129139 
L 357.570044 144.372428 
L 358.297337 103.917922 
L 358.660984 127.496764 
L 359.02463 109.341602 
L 359.388277 108.555116 
L 359.751923 108.507326 
L 360.11557 126.316553 
L 360.479216 113.504348 
L 360.842863 117.30723 
L 361.206509 107.063457 
L 361.933802 133.942912 
L 362.297449 134.450351 
L 362.661095 122.672002 
L 363.024742 101.347139 
L 363.388388 116.861771 
L 363.752034 101.800299 
L 364.115681 128.928677 
L 364.479327 112.93537 
L 365.20662 127.611985 
L 365.570267 110.715032 
L 365.933913 109.415441 
L 366.29756 120.374876 
L 366.661206 122.516917 
L 367.024853 101.563681 
L 367.388499 130.692253 
L 367.752146 135.546784 
L 368.115792 104.154485 
L 368.479439 138.069458 
L 368.843085 127.691787 
L 369.206732 120.822567 
L 369.570378 125.526242 
L 369.934024 95.103896 
L 370.297671 97.280549 
L 370.661317 112.46327 
L 371.024964 142.860666 
L 371.752257 113.993232 
L 372.115903 107.082659 
L 372.47955 107.198355 
L 372.843196 136.758381 
L 373.206843 100.889344 
L 373.570489 132.239257 
L 373.934136 110.173952 
L 374.297782 122.605196 
L 374.661429 123.148824 
L 375.025075 120.714601 
L 375.388722 115.404237 
L 375.752368 148.879977 
L 376.116014 108.280047 
L 376.479661 97.962811 
L 376.843307 113.255809 
L 377.206954 103.660503 
L 377.5706 156.12084 
L 378.297893 112.511157 
L 378.66154 115.818978 
L 379.025186 100.392157 
L 379.388833 122.888517 
L 379.752479 93.383153 
L 380.479772 142.950902 
L 380.843419 101.924475 
L 381.207065 114.264378 
L 381.570712 156.716239 
L 381.934358 116.519857 
L 382.298004 137.365984 
L 382.661651 127.802849 
L 383.025297 132.257868 
L 383.388944 131.827134 
L 383.75259 114.845236 
L 384.116237 110.312928 
L 384.479883 119.572206 
L 384.84353 104.979528 
L 385.207176 125.737923 
L 385.570823 128.741677 
L 385.934469 103.935145 
L 386.298116 127.659663 
L 386.661762 134.716976 
L 387.025409 159.251836 
L 387.389055 88.117869 
L 387.752702 87.717565 
L 388.116348 121.520997 
L 388.479994 101.526329 
L 388.843641 97.645109 
L 389.207287 135.694343 
L 389.570934 104.255403 
L 389.93458 133.76609 
L 390.298227 114.559314 
L 390.661873 130.23676 
L 391.02552 131.122122 
L 391.389166 119.881407 
L 391.752813 120.93409 
L 392.116459 116.828 
L 392.480106 100.146953 
L 392.843752 106.805184 
L 393.207399 146.329316 
L 393.571045 128.753014 
L 393.934691 126.631435 
L 394.298338 118.674618 
L 394.661984 120.87997 
L 395.025631 125.919867 
L 395.389277 134.319941 
L 395.752924 122.032184 
L 396.11657 102.823582 
L 396.480217 102.652721 
L 396.843863 104.429407 
L 397.20751 136.831358 
L 397.571156 127.136099 
L 397.934803 127.291054 
L 398.298449 110.781669 
L 398.662096 106.633749 
L 399.389389 128.119099 
L 399.753035 79.480002 
L 400.480328 131.201498 
L 400.843974 131.96198 
L 401.571267 116.879735 
L 401.934914 101.036061 
L 402.29856 137.626546 
L 402.662207 86.861224 
L 403.025853 116.700979 
L 403.3895 136.15774 
L 403.753146 102.771041 
L 404.116793 98.380924 
L 404.480439 103.772424 
L 404.844086 124.917841 
L 405.207732 138.03088 
L 405.571379 113.330672 
L 405.935025 119.100118 
L 406.298671 96.40346 
L 406.662318 99.032091 
L 407.025964 100.601313 
L 407.389611 93.216914 
L 407.753257 110.342655 
L 408.116904 140.718169 
L 408.48055 147.524346 
L 408.844197 84.555396 
L 409.207843 130.913741 
L 409.57149 121.55587 
L 409.935136 104.342381 
L 410.298783 113.895233 
L 410.662429 118.666259 
L 411.026076 137.809871 
L 411.389722 126.810362 
L 411.753369 119.664034 
L 412.117015 136.681156 
L 412.480661 130.024547 
L 413.207954 104.668383 
L 413.571601 110.174627 
L 413.935247 102.710831 
L 414.298894 115.718823 
L 414.66254 120.67166 
L 415.026187 128.632054 
L 415.389833 101.793652 
L 415.75348 106.027916 
L 416.480773 134.293595 
L 416.844419 93.965387 
L 417.208066 116.787247 
L 417.571712 110.461736 
L 417.935359 138.716669 
L 418.299005 138.909659 
L 418.662651 126.735442 
L 419.026298 107.689561 
L 419.389944 137.134952 
L 419.753591 114.737931 
L 420.117237 106.632847 
L 420.480884 110.061441 
L 420.84453 146.603314 
L 421.208177 123.669147 
L 421.571823 135.778752 
L 422.662763 113.197781 
L 423.026409 118.05482 
L 423.390056 98.441619 
L 423.753702 125.837366 
L 424.117349 123.246944 
L 424.480995 145.734293 
L 424.844641 118.685627 
L 425.208288 104.066341 
L 425.571934 131.151292 
L 425.935581 89.796728 
L 426.299227 130.679495 
L 426.662874 131.358233 
L 427.02652 99.117628 
L 427.390167 114.45276 
L 427.753813 105.798072 
L 428.11746 101.530514 
L 428.481106 134.380741 
L 428.844753 143.207628 
L 429.208399 119.16951 
L 429.572046 125.362542 
L 429.935692 106.603166 
L 430.299339 121.162608 
L 430.662985 122.287591 
L 431.026631 125.685556 
L 431.390278 120.467574 
L 431.753924 124.268712 
L 432.117571 108.524281 
L 432.481217 109.692701 
L 432.844864 132.171161 
L 433.20851 88.043839 
L 433.572157 129.640132 
L 433.935803 130.178895 
L 434.29945 121.57546 
L 434.663096 108.864314 
L 435.026743 89.650837 
L 435.754036 107.222613 
L 436.117682 102.852123 
L 436.481329 115.310236 
L 436.844975 107.261597 
L 437.208621 115.293793 
L 437.572268 105.537594 
L 437.935914 106.491492 
L 438.299561 125.197527 
L 438.663207 127.827669 
L 439.026854 127.199015 
L 439.3905 136.197109 
L 439.754147 127.827626 
L 440.117793 87.985326 
L 440.48144 104.769497 
L 440.845086 140.410142 
L 441.572379 114.105485 
L 441.936026 111.198639 
L 442.299672 118.410279 
L 442.663319 96.092998 
L 443.026965 123.707654 
L 443.754258 92.03043 
L 444.117904 123.966016 
L 444.481551 108.303162 
L 444.845197 114.532138 
L 445.208844 132.406145 
L 445.57249 135.126232 
L 445.936137 123.806926 
L 446.299783 90.2542 
L 446.66343 109.877287 
L 447.027076 89.948182 
L 447.390723 110.882031 
L 447.754369 124.442317 
L 448.118016 124.60436 
L 448.481662 122.567203 
L 448.845309 106.434789 
L 449.572601 140.916937 
L 449.936248 106.432077 
L 450.299894 145.12337 
L 451.390834 84.733441 
L 451.75448 116.424294 
L 452.118127 103.768432 
L 452.481773 106.602195 
L 452.84542 88.704781 
L 453.209066 114.129706 
L 453.572713 124.089007 
L 453.936359 95.184055 
L 454.300006 97.763818 
L 454.663652 126.432936 
L 455.027298 113.751042 
L 455.390945 129.55286 
L 455.754591 83.328842 
L 456.118238 143.159419 
L 456.481884 104.566346 
L 457.209177 117.633914 
L 457.572824 125.694412 
L 457.93647 105.825563 
L 458.300117 115.188901 
L 458.663763 121.494856 
L 459.02741 143.275845 
L 459.391056 125.003227 
L 459.754703 119.713244 
L 460.118349 119.988252 
L 460.481996 100.76015 
L 460.845642 105.024679 
L 461.209288 77.776135 
L 461.572935 120.133404 
L 461.936581 132.112983 
L 462.300228 108.421845 
L 462.663874 155.764622 
L 463.027521 113.624465 
L 463.391167 121.057952 
L 463.754814 144.288466 
L 464.11846 121.66433 
L 464.482107 118.024059 
L 464.845753 111.419334 
L 465.2094 138.440969 
L 465.573046 134.481016 
L 465.936693 126.831611 
L 466.300339 113.318322 
L 466.663986 79.528265 
L 467.027632 115.180079 
L 467.391278 127.009711 
L 467.754925 129.832477 
L 468.118571 111.551368 
L 468.482218 116.467504 
L 468.845864 94.748504 
L 469.209511 125.292483 
L 469.573157 134.423296 
L 469.936804 107.255737 
L 470.30045 99.046956 
L 470.664097 99.041261 
L 471.027743 103.563177 
L 471.39139 92.641558 
L 471.755036 103.419281 
L 472.118683 128.529929 
L 472.482329 95.85775 
L 472.845976 104.72181 
L 473.209622 129.287465 
L 473.573268 108.848262 
L 473.936915 105.174735 
L 474.300561 111.637296 
L 474.664208 113.884275 
L 475.027854 137.153579 
L 475.391501 108.848064 
L 475.755147 108.153073 
L 476.118794 138.776697 
L 476.48244 126.357184 
L 476.846087 87.283967 
L 477.209733 108.021131 
L 477.57338 74.22821 
L 477.937026 112.70988 
L 478.300673 128.709467 
L 478.664319 87.335955 
L 479.027966 133.85587 
L 479.391612 111.349404 
L 479.755258 105.649215 
L 480.118905 104.057589 
L 480.482551 108.155953 
L 480.846198 116.647927 
L 481.209844 102.237023 
L 481.573491 128.37372 
L 481.937137 138.959639 
L 482.300784 142.250214 
L 482.66443 123.949859 
L 483.028077 135.478854 
L 483.391723 107.866724 
L 483.75537 110.003388 
L 484.119016 142.447266 
L 484.482663 141.56323 
L 484.846309 123.063968 
L 485.209956 146.579038 
L 485.573602 133.894703 
L 485.937248 160.281574 
L 486.300895 122.699814 
L 486.664541 104.956897 
L 487.028188 115.208516 
L 487.391834 118.499914 
L 487.755481 129.267788 
L 488.119127 84.885941 
L 488.482774 114.093238 
L 488.84642 111.414553 
L 489.210067 117.093434 
L 489.573713 107.728289 
L 489.93736 104.675155 
L 490.301006 94.441735 
L 490.664653 92.919286 
L 491.028299 100.673243 
L 491.391946 104.761212 
L 491.755592 128.557381 
L 492.119238 97.263849 
L 492.482885 97.071591 
L 492.846531 126.373702 
L 493.210178 131.548783 
L 493.573824 110.222752 
L 493.937471 127.765544 
L 494.301117 95.220582 
L 495.02841 124.952741 
L 495.392057 105.425565 
L 495.755703 126.394165 
L 496.11935 102.098861 
L 496.482996 92.182434 
L 496.846643 105.088191 
L 497.210289 105.061947 
L 497.573936 106.507163 
L 497.937582 134.095412 
L 498.301228 106.682356 
L 498.664875 121.125526 
L 499.028521 115.265893 
L 499.392168 104.038603 
L 499.755814 151.326788 
L 500.119461 97.066082 
L 500.483107 121.314028 
L 500.846754 111.365512 
L 501.2104 118.06637 
L 501.574047 119.446702 
L 501.937693 116.887942 
L 502.30134 140.410044 
L 502.664986 97.859815 
L 503.028633 99.893254 
L 503.392279 110.356396 
L 503.755926 114.583487 
L 504.119572 97.798891 
L 504.483218 134.116176 
L 504.846865 108.998425 
L 505.210511 124.225865 
L 505.574158 104.868379 
L 505.937804 130.212387 
L 506.301451 146.812389 
L 506.665097 111.021818 
L 507.028744 99.612313 
L 507.39239 92.278515 
L 507.756037 114.049174 
L 508.119683 113.531023 
L 508.48333 118.697614 
L 508.846976 110.497327 
L 509.210623 125.125031 
L 509.574269 97.740217 
L 509.937916 116.040056 
L 510.301562 89.60282 
L 510.665208 132.863853 
L 511.028855 108.120638 
L 511.392501 103.936353 
L 511.756148 112.352447 
L 512.119794 111.712911 
L 512.483441 136.056641 
L 512.847087 98.22526 
L 513.210734 136.100767 
L 513.57438 107.50999 
L 513.938027 116.749052 
L 514.301673 101.94498 
L 514.66532 112.737432 
L 515.028966 92.649881 
L 515.392613 113.52597 
L 515.756259 144.565695 
L 516.119906 105.475965 
L 516.483552 102.356585 
L 516.847198 146.551166 
L 517.574491 123.508452 
L 517.938138 113.418061 
L 518.665431 117.89809 
L 519.029077 110.672138 
L 519.392724 113.960936 
L 519.75637 128.739527 
L 520.120017 104.590073 
L 520.483663 103.454037 
L 520.84731 90.415473 
L 521.210956 108.221272 
L 521.574603 119.125405 
L 521.938249 118.419168 
L 522.301895 106.394841 
L 522.665542 111.708269 
L 523.029188 93.282807 
L 523.392835 127.494155 
L 523.756481 120.749015 
L 524.120128 126.241291 
L 524.483774 124.258567 
L 524.847421 93.719407 
L 525.211067 107.574188 
L 525.574714 134.250139 
L 525.93836 93.151988 
L 526.302007 135.085328 
L 526.665653 105.849661 
L 527.0293 121.437115 
L 527.392946 107.352892 
L 527.756593 127.121932 
L 528.120239 136.912493 
L 528.483885 121.278161 
L 528.847532 131.485131 
L 529.211178 122.317072 
L 529.574825 115.995778 
L 529.938471 101.236788 
L 530.302118 143.199397 
L 530.665764 113.443639 
L 531.029411 151.081227 
L 531.393057 119.212665 
L 531.756704 134.723949 
L 532.12035 112.055454 
L 532.483997 96.84638 
L 532.847643 120.119254 
L 533.21129 106.041754 
L 533.574936 125.917563 
L 533.938583 107.164376 
L 534.302229 120.36465 
L 535.029522 114.564904 
L 535.393168 99.044809 
L 535.756815 142.763992 
L 536.120461 111.666013 
L 536.484108 134.438394 
L 537.211401 82.836583 
L 537.575047 111.201505 
L 537.938694 112.114062 
L 538.30234 120.738228 
L 538.665987 119.526208 
L 539.029633 129.798747 
L 539.39328 113.342635 
L 539.756926 116.60589 
L 540.120573 121.986225 
L 540.484219 117.171252 
L 540.847865 109.644481 
L 541.211512 113.516683 
L 541.575158 113.166409 
L 541.938805 110.935194 
L 542.302451 92.689056 
L 542.666098 108.803258 
L 543.029744 116.598497 
L 543.393391 144.725483 
L 543.757037 107.831153 
L 544.120684 132.678874 
L 545.211623 99.707896 
L 545.57527 106.194884 
L 545.938916 165.245425 
L 546.302563 115.018618 
L 546.666209 102.984014 
L 547.029855 114.89713 
L 547.393502 131.702027 
L 547.757148 139.067137 
L 548.484441 86.892964 
L 548.848088 102.312632 
L 549.211734 136.339341 
L 549.575381 117.629089 
L 549.939027 144.347452 
L 550.302674 140.345063 
L 550.66632 145.016492 
L 551.029967 112.099458 
L 551.393613 123.294344 
L 551.75726 129.888332 
L 552.120906 111.993733 
L 552.484553 136.99713 
L 552.848199 135.536586 
L 553.211845 106.088201 
L 553.575492 98.378006 
L 553.939138 125.376252 
L 554.302785 108.406832 
L 554.666431 110.144388 
L 555.393724 129.605117 
L 555.757371 104.166812 
L 556.121017 118.103754 
L 556.484664 101.442635 
L 556.84831 126.670823 
L 557.211957 125.422279 
L 557.575603 132.055247 
L 557.93925 105.882049 
L 558.302896 98.488029 
L 558.666543 125.102087 
L 559.030189 112.793667 
L 559.393835 133.411499 
L 559.757482 100.627922 
L 560.121128 104.321164 
L 560.484775 122.907067 
L 560.848421 112.518029 
L 561.212068 118.027454 
L 561.575714 110.170655 
L 561.939361 135.070919 
L 562.303007 90.23631 
L 563.0303 123.632179 
L 563.393947 107.923838 
L 563.757593 103.125117 
L 564.12124 109.120924 
L 564.484886 119.281701 
L 564.848533 121.662701 
L 565.212179 149.567141 
L 565.575825 112.086629 
L 565.939472 137.853615 
L 566.303118 114.278699 
L 566.666765 122.556861 
L 567.030411 105.879974 
L 567.394058 115.791833 
L 567.757704 103.602126 
L 568.121351 99.216298 
L 568.484997 121.593804 
L 568.848644 124.315982 
L 569.21229 116.782796 
L 569.575937 92.131549 
L 569.939583 129.393798 
L 570.30323 138.013444 
L 570.666876 127.436307 
L 571.030523 128.969461 
L 571.394169 91.007119 
L 571.757815 107.712744 
L 572.121462 143.500857 
L 572.485108 119.78933 
L 572.848755 112.596386 
L 573.212401 114.706756 
L 573.576048 109.21731 
L 573.939694 118.694936 
L 574.303341 123.570795 
L 574.666987 118.14226 
L 575.030634 137.774698 
L 575.39428 106.466986 
L 575.757927 116.391511 
L 576.121573 108.726556 
L 576.48522 131.555458 
L 576.848866 103.724393 
L 577.212513 111.303047 
L 577.576159 130.116098 
L 577.939805 118.079448 
L 578.303452 91.183365 
L 579.030745 132.865935 
L 579.394391 113.261826 
L 579.758038 131.274177 
L 580.121684 117.96833 
L 580.485331 143.535249 
L 580.848977 124.921623 
L 581.212624 142.567676 
L 581.57627 93.688209 
L 581.939917 109.701586 
L 582.303563 109.428299 
L 582.66721 123.945277 
L 583.030856 122.126248 
L 583.394503 106.661917 
L 583.758149 121.605424 
L 584.121795 104.315543 
L 584.485442 121.931108 
L 584.849088 112.726336 
L 585.212735 129.167033 
L 585.576381 136.499113 
L 585.940028 140.023135 
L 586.303674 105.282773 
L 586.667321 142.693452 
L 587.030967 105.16151 
L 587.394614 122.871253 
L 587.75826 114.4012 
L 588.121907 132.524486 
L 588.485553 129.412949 
L 588.8492 136.084039 
L 589.212846 102.690836 
L 589.940139 112.004697 
L 590.303785 97.218423 
L 590.667432 127.184189 
L 591.031078 97.977637 
L 591.394725 122.900462 
L 592.122018 104.944057 
L 592.485664 125.970305 
L 592.849311 93.357364 
L 593.212957 119.761146 
L 593.576604 123.610983 
L 593.94025 139.600996 
L 594.303897 147.586696 
L 594.667543 104.766237 
L 595.03119 133.415142 
L 595.394836 116.160225 
L 595.758482 90.20937 
L 596.122129 98.262493 
L 596.485775 121.671848 
L 596.849422 128.199191 
L 597.213068 115.597175 
L 597.576715 115.501225 
L 597.940361 117.508957 
L 598.304008 111.499258 
L 598.667654 130.896499 
L 599.031301 109.031914 
L 599.394947 113.958869 
L 599.758594 148.784754 
L 600.12224 122.40375 
L 600.485887 108.682754 
L 600.849533 109.661213 
L 601.21318 132.709017 
L 601.576826 126.821906 
L 601.940472 134.979675 
L 602.304119 124.835973 
L 602.667765 122.462384 
L 603.031412 97.481219 
L 603.395058 107.772991 
L 603.758705 108.290915 
L 604.122351 116.966031 
L 604.485998 120.821038 
L 604.849644 105.543898 
L 605.213291 126.553188 
L 605.576937 89.678945 
L 605.940584 126.214482 
L 606.30423 107.037085 
L 606.667877 126.891182 
L 607.031523 119.667544 
L 607.39517 118.831199 
L 607.758816 98.182134 
L 608.122462 119.677039 
L 608.486109 105.007532 
L 608.849755 128.255481 
L 609.213402 126.281054 
L 609.577048 119.108684 
L 609.940695 140.255961 
L 610.304341 121.857656 
L 610.667988 118.791264 
L 611.031634 125.257404 
L 611.395281 112.381294 
L 611.758927 109.541178 
L 612.122574 127.616938 
L 612.48622 68.487154 
L 612.849867 138.916686 
L 613.213513 91.15954 
L 613.57716 123.665297 
L 613.940806 86.391263 
L 614.304452 83.422941 
L 615.031745 134.567186 
L 615.395392 123.416404 
L 615.759038 118.220934 
L 616.122685 131.895212 
L 616.486331 106.068661 
L 616.849978 130.274288 
L 617.213624 133.71825 
L 617.577271 105.883676 
L 617.940917 129.300325 
L 618.304564 142.950746 
L 618.66821 119.226854 
L 619.031857 121.735786 
L 619.395503 118.56125 
L 619.75915 94.972782 
L 620.122796 102.482781 
L 620.486442 124.684169 
L 620.850089 117.980455 
L 621.213735 99.02843 
L 621.577382 119.436727 
L 621.941028 109.52501 
L 622.668321 136.488663 
L 623.031968 129.025896 
L 623.395614 104.039558 
L 623.759261 144.715 
L 624.122907 132.787464 
L 624.486554 125.297641 
L 624.8502 124.601646 
L 625.213847 125.254577 
L 625.577493 99.292687 
L 625.94114 109.604397 
L 626.304786 109.040704 
L 626.668432 122.370161 
L 627.032079 129.203929 
L 627.395725 86.097095 
L 627.759372 126.014522 
L 628.123018 140.551337 
L 628.486665 95.962249 
L 629.213958 145.798476 
L 629.577604 116.133776 
L 629.941251 128.637688 
L 630.304897 115.368374 
L 630.668544 117.952478 
L 631.03219 132.806165 
L 631.395837 120.123239 
L 631.759483 129.880586 
L 632.12313 105.076903 
L 632.486776 112.918165 
L 632.850422 103.877075 
L 633.214069 133.052063 
L 633.577715 117.55209 
L 633.941362 133.466535 
L 634.668655 107.980923 
L 635.032301 136.01184 
L 635.395948 113.677433 
L 635.759594 118.220176 
L 636.123241 126.751058 
L 636.486887 130.771798 
L 636.850534 77.735432 
L 637.21418 139.748644 
L 637.577827 113.05701 
L 637.941473 111.5223 
L 638.30512 83.933473 
L 638.668766 129.397554 
L 639.032412 126.1792 
L 639.396059 134.845443 
L 639.759705 137.698429 
L 640.123352 111.27111 
L 640.486998 104.183437 
L 640.850645 121.01345 
L 641.214291 110.202212 
L 641.577938 115.284627 
L 641.941584 112.654342 
L 642.305231 114.232076 
L 642.668877 101.461659 
L 643.032524 126.856387 
L 643.39617 124.780242 
L 643.759817 146.160119 
L 644.123463 117.984354 
L 644.48711 124.097805 
L 644.850756 85.820917 
L 645.214402 124.910589 
L 645.578049 135.210828 
L 645.941695 127.334383 
L 646.305342 76.688775 
L 646.668988 106.546982 
L 647.032635 104.127197 
L 647.396281 119.627195 
L 647.759928 122.803122 
L 648.123574 114.241291 
L 648.487221 143.273187 
L 648.850867 89.909505 
L 649.214514 107.659923 
L 649.57816 115.562485 
L 649.941807 94.795681 
L 650.305453 87.519547 
L 650.669099 119.125697 
L 651.396392 92.031989 
L 651.760039 115.273554 
L 652.123685 82.166562 
L 652.487332 107.76809 
L 652.850978 117.657134 
L 653.214625 122.475947 
L 653.578271 88.984701 
L 653.941918 132.135865 
L 654.305564 104.560924 
L 654.669211 99.0903 
L 655.032857 103.041594 
L 655.76015 115.204604 
L 656.123797 116.881756 
L 656.487443 100.772309 
L 656.851089 93.10406 
L 657.214736 111.304191 
L 657.578382 101.914927 
L 657.942029 95.595744 
L 658.305675 134.691623 
L 658.669322 115.326058 
L 659.032968 108.215005 
L 659.396615 98.181044 
L 659.760261 114.109681 
L 660.123908 96.810106 
L 660.487554 132.514679 
L 660.851201 128.713964 
L 661.214847 136.152412 
L 661.578494 124.733904 
L 661.94214 108.112689 
L 662.305787 108.428957 
L 662.669433 107.525159 
L 663.033079 109.110654 
L 663.396726 143.038392 
L 663.760372 131.013476 
L 664.124019 128.89919 
L 664.487665 120.509922 
L 664.851312 87.938633 
L 665.214958 131.641188 
L 665.578605 120.710791 
L 665.942251 115.406145 
L 666.305898 100.924948 
L 666.669544 127.438859 
L 667.033191 115.638965 
L 667.396837 148.322016 
L 667.760484 115.13882 
L 668.12413 106.937134 
L 668.487777 122.053071 
L 668.851423 105.281315 
L 669.215069 143.505374 
L 669.578716 109.259655 
L 669.942362 99.070095 
L 670.306009 133.5279 
L 670.669655 105.6286 
L 671.033302 122.438123 
L 671.396948 74.605209 
L 671.760595 117.635316 
L 672.124241 103.356208 
L 672.487888 123.395027 
L 673.215181 88.742538 
L 673.578827 118.470122 
L 673.942474 110.212269 
L 674.30612 114.50381 
L 674.669767 141.9697 
L 675.033413 133.892527 
L 675.397059 70.68627 
L 675.760706 109.580857 
L 676.124352 104.340904 
L 676.487999 128.507449 
L 676.851645 144.423706 
L 677.215292 130.251952 
L 677.578938 91.971753 
L 677.942585 121.428811 
L 678.306231 135.009823 
L 678.669878 108.927141 
L 679.033524 135.203286 
L 679.397171 113.188918 
L 679.760817 105.588282 
L 680.124464 101.63967 
L 680.48811 127.853086 
L 681.215403 115.413412 
L 681.579049 140.164489 
L 681.942696 124.7841 
L 682.306342 120.344138 
L 682.669989 118.510575 
L 683.033635 87.113093 
L 683.397282 95.607982 
L 683.760928 98.551006 
L 684.124575 127.597816 
L 684.488221 123.11643 
L 684.851868 109.815942 
L 685.215514 114.08838 
L 685.579161 152.064599 
L 685.942807 132.591053 
L 686.306454 98.876784 
L 687.033747 144.801717 
L 687.397393 115.967905 
L 687.761039 108.612784 
L 688.124686 128.440623 
L 688.488332 138.180378 
L 688.851979 106.061492 
L 689.215625 112.993873 
L 689.579272 106.480656 
L 689.942918 125.977467 
L 690.306565 135.178217 
L 690.670211 121.811602 
L 691.033858 158.034064 
L 691.397504 117.495675 
L 691.761151 130.776252 
L 692.124797 90.165306 
L 692.488444 88.676734 
L 693.215737 111.258166 
L 693.579383 144.420575 
L 693.943029 85.003181 
L 694.306676 107.428514 
L 694.670322 108.367324 
L 695.033969 103.571862 
L 695.397615 109.317649 
L 695.761262 137.758991 
L 696.124908 120.124729 
L 696.488555 111.341146 
L 696.852201 96.056144 
L 697.215848 134.881663 
L 697.579494 118.379124 
L 697.943141 127.001744 
L 698.306787 98.292294 
L 698.670434 111.655703 
L 699.03408 112.842825 
L 699.397727 101.416743 
L 699.761373 139.043894 
L 700.125019 108.866202 
L 700.488666 115.596231 
L 700.852312 119.713694 
L 701.215959 105.499995 
L 701.579605 111.662501 
L 701.943252 94.151263 
L 702.306898 133.624882 
L 702.670545 122.732659 
L 703.034191 100.94238 
L 703.397838 112.319323 
L 703.761484 115.840997 
L 704.125131 140.391343 
L 704.488777 130.205733 
L 704.852424 130.034859 
L 705.21607 123.282334 
L 705.579717 140.372278 
L 706.307009 101.208031 
L 706.670656 128.998505 
L 707.034302 119.701709 
L 707.397949 115.994517 
L 707.761595 140.689312 
L 708.125242 105.601527 
L 708.488888 116.602504 
L 708.852535 147.576791 
L 709.216181 130.083012 
L 709.579828 128.464708 
L 709.943474 105.969295 
L 710.307121 122.837952 
L 710.670767 126.440062 
L 711.39806 103.466268 
L 711.761707 106.420284 
L 712.125353 126.493513 
L 712.488999 114.250682 
L 712.852646 110.690285 
L 713.216292 126.605954 
L 713.943585 61.1185 
L 714.307232 115.725125 
L 714.670878 103.022365 
L 715.034525 102.076963 
L 715.761818 134.581698 
L 716.489111 97.061097 
L 716.852757 120.450551 
L 717.216404 125.736168 
L 717.58005 104.827001 
L 717.943696 103.990644 
L 718.307343 141.805354 
L 718.670989 96.811798 
L 719.034636 141.754102 
L 719.398282 109.945831 
L 719.761929 132.604152 
L 720.125575 126.236446 
L 720.489222 122.356302 
L 720.852868 133.151737 
L 721.580161 99.927641 
L 721.943808 107.552577 
L 722.307454 83.6671 
L 722.671101 139.566907 
L 723.034747 127.372258 
L 723.398394 126.612321 
L 723.76204 120.881553 
L 724.125686 129.53952 
L 724.489333 128.745076 
L 724.852979 74.633083 
L 725.216626 116.666775 
L 725.580272 120.555668 
L 725.943919 131.693739 
L 726.307565 153.333884 
L 726.671212 108.865066 
L 727.034858 144.517129 
L 727.398505 134.302674 
L 727.762151 96.70386 
L 728.125798 139.836779 
L 728.489444 124.705409 
L 728.853091 120.873431 
L 729.216737 120.045833 
L 729.580384 135.887663 
L 729.94403 91.906806 
L 730.307676 125.505802 
L 730.671323 100.809471 
L 731.034969 121.467343 
L 731.398616 129.540318 
L 731.762262 113.461686 
L 732.125909 87.450018 
L 732.489555 93.550604 
L 732.853202 127.828148 
L 733.580495 115.830933 
L 733.944141 87.320298 
L 734.307788 147.966319 
L 734.671434 120.782328 
L 735.035081 122.241925 
L 735.398727 143.402009 
L 735.762374 113.019977 
L 736.12602 141.01835 
L 736.489666 110.246674 
L 736.853313 94.239323 
L 737.216959 109.655306 
L 737.944252 115.927714 
L 738.307899 111.295849 
L 738.671545 132.9847 
L 739.035192 128.6278 
L 739.398838 116.837061 
L 739.762485 82.891776 
L 740.126131 84.081136 
L 740.489778 122.488492 
L 740.853424 105.740809 
L 741.217071 135.369569 
L 741.580717 125.311797 
L 741.944364 128.804604 
L 742.30801 109.879282 
L 742.671656 120.648677 
L 743.035303 97.06389 
L 743.398949 102.716824 
L 743.762596 100.279823 
L 744.126242 127.059793 
L 744.489889 110.992586 
L 744.853535 152.697716 
L 745.217182 121.972554 
L 745.580828 121.333382 
L 745.944475 123.533999 
L 746.671768 98.604379 
L 747.035414 131.194542 
L 747.399061 112.039191 
L 747.762707 112.273983 
L 748.126354 80.223218 
L 748.49 125.562762 
L 748.49 125.562762 
" clip-path="url(#pb00907b454)" style="fill: none; stroke: #ff7f0e; stroke-opacity: 0.7; stroke-width: 1.5; stroke-linecap: square"/>
   </g>
   <g id="patch_3">
    <path d="M 61.58 240.64 
L 61.58 21.72 
" style="fill: none; stroke: #000000; stroke-width: 0.8; stroke-linejoin: miter; stroke-linecap: square"/>
   </g>
   <g id="patch_4">
    <path d="M 781.2 240.64 
L 781.2 21.72 
" style="fill: none; stroke: #000000; stroke-width: 0.8; stroke-linejoin: miter; stroke-linecap: square"/>
   </g>
   <g id="patch_5">
    <path d="M 61.58 240.64 
L 781.2 240.64 
" style="fill: none; stroke: #000000; stroke-width: 0.8; stroke-linejoin: miter; stroke-linecap: square"/>
   </g>
   <g id="patch_6">
    <path d="M 61.58 21.72 
L 781.2 21.72 
" style="fill: none; stroke: #000000; stroke-width: 0.8; stroke-linejoin: miter; stroke-linecap: square"/>
   </g>
   <g id="legend_1">
    <g id="line2d_16">
     <path d="M 667.228125 34.818438 
L 677.228125 34.818438 
L 687.228125 34.818438 
" style="fill: none; stroke: #1f77b4; stroke-width: 2; stroke-linecap: square"/>
    </g>
    <g id="text_17">
     <!-- true ρ -->
     <g transform="translate(695.228125 38.318438) scale(0.1 -0.1)">
      <defs>
       <path id="DejaVuSans-74" d="M 1172 4494 
L 1172 3500 
L 2356 3500 
L 2356 3053 
L 1172 3053 
L 1172 1153 
Q 1172 725 1289 603 
Q 1406 481 1766 481 
L 2356 481 
L 2356 0 
L 1766 0 
Q 1100 0 847 248 
Q 594 497 594 1153 
L 594 3053 
L 172 3053 
L 172 3500 
L 594 3500 
L 594 4494 
L 1172 4494 
z
" transform="scale(0.015625)"/>
       <path id="DejaVuSans-72" d="M 2631 2963 
Q 2534 3019 2420 3045 
Q 2306 3072 2169 3072 
Q 1681 3072 1420 2755 
Q 1159 2438 1159 1844 
L 1159 0 
L 581 0 
L 581 3500 
L 1159 3500 
L 1159 2956 
Q 1341 3275 1631 3429 
Q 1922 3584 2338 3584 
Q 2397 3584 2469 3576 
Q 2541 3569 2628 3553 
L 2631 2963 
z
" transform="scale(0.015625)"/>
       <path id="DejaVuSans-75" d="M 544 1381 
L 544 3500 
L 1119 3500 
L 1119 1403 
Q 1119 906 1312 657 
Q 1506 409 1894 409 
Q 2359 409 2629 706 
Q 2900 1003 2900 1516 
L 2900 3500 
L 3475 3500 
L 3475 0 
L 2900 0 
L 2900 538 
Q 2691 219 2414 64 
Q 2138 -91 1772 -91 
Q 1169 -91 856 284 
Q 544 659 544 1381 
z
M 1991 3584 
L 1991 3584 
z
" transform="scale(0.015625)"/>
       <path id="DejaVuSans-20" transform="scale(0.015625)"/>
       <path id="DejaVuSans-3c1" d="M 863 2875 
Q 1053 3194 1525 3475 
Q 1709 3584 2278 3584 
Q 2916 3584 3314 3078 
Q 3713 2572 3713 1747 
Q 3713 922 3314 415 
Q 2916 -91 2278 -91 
Q 1894 -91 1617 61 
Q 1341 213 1159 525 
L 1159 -1331 
L 581 -1331 
L 581 1716 
Q 581 2438 863 2875 
z
M 3116 1747 
Q 3116 2381 2855 2742 
Q 2594 3103 2138 3103 
Q 1681 3103 1420 2742 
Q 1159 2381 1159 1747 
Q 1159 1113 1420 752 
Q 1681 391 2138 391 
Q 2594 391 2855 752 
Q 3116 1113 3116 1747 
z
" transform="scale(0.015625)"/>
      </defs>
      <use xlink:href="#DejaVuSans-74"/>
      <use xlink:href="#DejaVuSans-72" x="39.208984"/>
      <use xlink:href="#DejaVuSans-75" x="80.322266"/>
      <use xlink:href="#DejaVuSans-65" x="143.701172"/>
      <use xlink:href="#DejaVuSans-20" x="205.224609"/>
      <use xlink:href="#DejaVuSans-3c1" x="237.011719"/>
     </g>
    </g>
    <g id="line2d_17">
     <path d="M 667.228125 49.496563 
L 677.228125 49.496563 
L 687.228125 49.496563 
" style="fill: none; stroke: #ff7f0e; stroke-opacity: 0.7; stroke-width: 1.5; stroke-linecap: square"/>
    </g>
    <g id="text_18">
     <!-- pseudo-inverse -->
     <g transform="translate(695.228125 52.996563) scale(0.1 -0.1)">
      <defs>
       <path id="DejaVuSans-70" d="M 1159 525 
L 1159 -1331 
L 581 -1331 
L 581 3500 
L 1159 3500 
L 1159 2969 
Q 1341 3281 1617 3432 
Q 1894 3584 2278 3584 
Q 2916 3584 3314 3078 
Q 3713 2572 3713 1747 
Q 3713 922 3314 415 
Q 2916 -91 2278 -91 
Q 1894 -91 1617 61 
Q 1341 213 1159 525 
z
M 3116 1747 
Q 3116 2381 2855 2742 
Q 2594 3103 2138 3103 
Q 1681 3103 1420 2742 
Q 1159 2381 1159 1747 
Q 1159 1113 1420 752 
Q 1681 391 2138 391 
Q 2594 391 2855 752 
Q 3116 1113 3116 1747 
z
" transform="scale(0.015625)"/>
       <path id="DejaVuSans-73" d="M 2834 3397 
L 2834 2853 
Q 2591 2978 2328 3040 
Q 2066 3103 1784 3103 
Q 1356 3103 1142 2972 
Q 928 2841 928 2578 
Q 928 2378 1081 2264 
Q 1234 2150 1697 2047 
L 1894 2003 
Q 2506 1872 2764 1633 
Q 3022 1394 3022 966 
Q 3022 478 2636 193 
Q 2250 -91 1575 -91 
Q 1294 -91 989 -36 
Q 684 19 347 128 
L 347 722 
Q 666 556 975 473 
Q 1284 391 1588 391 
Q 1994 391 2212 530 
Q 2431 669 2431 922 
Q 2431 1156 2273 1281 
Q 2116 1406 1581 1522 
L 1381 1569 
Q 847 1681 609 1914 
Q 372 2147 372 2553 
Q 372 3047 722 3315 
Q 1072 3584 1716 3584 
Q 2034 3584 2315 3537 
Q 2597 3491 2834 3397 
z
" transform="scale(0.015625)"/>
       <path id="DejaVuSans-64" d="M 2906 2969 
L 2906 4863 
L 3481 4863 
L 3481 0 
L 2906 0 
L 2906 525 
Q 2725 213 2448 61 
Q 2172 -91 1784 -91 
Q 1150 -91 751 415 
Q 353 922 353 1747 
Q 353 2572 751 3078 
Q 1150 3584 1784 3584 
Q 2172 3584 2448 3432 
Q 2725 3281 2906 2969 
z
M 947 1747 
Q 947 1113 1208 752 
Q 1469 391 1925 391 
Q 2381 391 2643 752 
Q 2906 1113 2906 1747 
Q 2906 2381 2643 2742 
Q 2381 3103 1925 3103 
Q 1469 3103 1208 2742 
Q 947 2381 947 1747 
z
" transform="scale(0.015625)"/>
       <path id="DejaVuSans-6f" d="M 1959 3097 
Q 1497 3097 1228 2736 
Q 959 2375 959 1747 
Q 959 1119 1226 758 
Q 1494 397 1959 397 
Q 2419 397 2687 759 
Q 2956 1122 2956 1747 
Q 2956 2369 2687 2733 
Q 2419 3097 1959 3097 
z
M 1959 3584 
Q 2709 3584 3137 3096 
Q 3566 2609 3566 1747 
Q 3566 888 3137 398 
Q 2709 -91 1959 -91 
Q 1206 -91 779 398 
Q 353 888 353 1747 
Q 353 2609 779 3096 
Q 1206 3584 1959 3584 
z
" transform="scale(0.015625)"/>
       <path id="DejaVuSans-2d" d="M 313 2009 
L 1997 2009 
L 1997 1497 
L 313 1497 
L 313 2009 
z
" transform="scale(0.015625)"/>
       <path id="DejaVuSans-69" d="M 603 3500 
L 1178 3500 
L 1178 0 
L 603 0 
L 603 3500 
z
M 603 4863 
L 1178 4863 
L 1178 4134 
L 603 4134 
L 603 4863 
z
" transform="scale(0.015625)"/>
       <path id="DejaVuSans-6e" d="M 3513 2113 
L 3513 0 
L 2938 0 
L 2938 2094 
Q 2938 2591 2744 2837 
Q 2550 3084 2163 3084 
Q 1697 3084 1428 2787 
Q 1159 2491 1159 1978 
L 1159 0 
L 581 0 
L 581 3500 
L 1159 3500 
L 1159 2956 
Q 1366 3272 1645 3428 
Q 1925 3584 2291 3584 
Q 2894 3584 3203 3211 
Q 3513 2838 3513 2113 
z
" transform="scale(0.015625)"/>
       <path id="DejaVuSans-76" d="M 191 3500 
L 800 3500 
L 1894 563 
L 2988 3500 
L 3597 3500 
L 2284 0 
L 1503 0 
L 191 3500 
z
" transform="scale(0.015625)"/>
      </defs>
      <use xlink:href="#DejaVuSans-70"/>
      <use xlink:href="#DejaVuSans-73" x="63.476562"/>
      <use xlink:href="#DejaVuSans-65" x="115.576172"/>
      <use xlink:href="#DejaVuSans-75" x="177.099609"/>
      <use xlink:href="#DejaVuSans-64" x="240.478516"/>
      <use xlink:href="#DejaVuSans-6f" x="303.955078"/>
      <use xlink:href="#DejaVuSans-2d" x="367.011719"/>
      <use xlink:href="#DejaVuSans-69" x="403.095703"/>
      <use xlink:href="#DejaVuSans-6e" x="430.878906"/>
      <use xlink:href="#DejaVuSans-76" x="494.257812"/>
      <use xlink:href="#DejaVuSans-65" x="553.4375"/>
      <use xlink:href="#DejaVuSans-72" x="614.960938"/>
      <use xlink:href="#DejaVuSans-73" x="656.074219"/>
      <use xlink:href="#DejaVuSans-65" x="708.173828"/>
     </g>
    </g>
   </g>
  </g>
 </g>
 <defs>
  <clipPath id="pb00907b454">
   <rect x="61.58" y="21.72" width="719.62" height="218.92"/>
  </clipPath>
 </defs>
</svg>
