<?xml version="1.0" encoding="utf-8" standalone="no"?>
<!DOCTYPE svg PUBLIC "-//W3C//DTD SVG 1.1//EN"
  "http://www.w3.org/Graphics/SVG/1.1/DTD/svg11.dtd">
<svg xmlns:xlink="http://www.w3.org/1999/xlink" width="432pt" height="288pt" viewBox="0 0 432 288" xmlns="http://www.w3.org/2000/svg" version="1.1">
 <metadata>
  <rdf:RDF xmlns:dc="http://purl.org/dc/elements/1.1/" xmlns:cc="http://creativecommons.org/ns#" xmlns:rdf="http://www.w3.org/1999/02/22-rdf-syntax-ns#">
   <cc:Work>
    <dc:type rdf:resource="http://purl.org/dc/dcmitype/StillImage"/>
    <dc:date>2025-11-23T11:38:45.053154</dc:date>
    <dc:format>image/svg+xml</dc:format>
    <dc:creator>
     <cc:Agent>
      <dc:title>Matplotlib v3.7.2, https://matplotlib.org/</dc:title>
     </cc:Agent>
    </dc:creator>
   </cc:Work>
  </rdf:RDF>
 </metadata>
 <defs>
  <style type="text/css">*{stroke-linejoin: round; stroke-linecap: butt}</style>
 </defs>
 <g id="figure_1">
  <g id="patch_1">
   <path d="M 0 288 
L 432 288 
L 432 0 
L 0 0 
L 0 288 
z
" style="fill: none"/>
  </g>
  <g id="axes_1">
   <g id="patch_2">
    <path d="M 53.75 245.32 
L 421.2 245.32 
L 421.2 26.88 
L 53.75 26.88 
L 53.75 245.32 
z
" style="fill: none"/>
   </g>
   <g id="matplotlib.axis_1">
    <g id="xtick_1">
     <g id="line2d_1">
      <defs>
       <path id="m24f4475357" d="M 0 0 
L 0 3.5 
" style="stroke: #000000; stroke-width: 0.8"/>
      </defs>
      <g>
       <use xlink:href="#m24f4475357" x="70.452273" y="245.32" style="stroke: #000000; stroke-width: 0.8"/>
      </g>
     </g>
     <g id="text_1">
      <!-- 0.0 -->
      <g transform="translate(62.50071 259.918437) scale(0.1 -0.1)">
       <defs>
        <path id="DejaVuSans-30" d="M 2034 4250 
Q 1547 4250 1301 3770 
Q 1056 3291 1056 2328 
Q 1056 1369 1301 889 
Q 1547 409 2034 409 
Q 2525 409 2770 889 
Q 3016 1369 3016 2328 
Q 3016 3291 2770 3770 
Q 2525 4250 2034 4250 
z
M 2034 4750 
Q 2819 4750 3233 4129 
Q 3647 3509 3647 2328 
Q 3647 1150 3233 529 
Q 2819 -91 2034 -91 
Q 1250 -91 836 529 
Q 422 1150 422 2328 
Q 422 3509 836 4129 
Q 1250 4750 2034 4750 
z
" transform="scale(0.015625)"/>
        <path id="DejaVuSans-2e" d="M 684 794 
L 1344 794 
L 1344 0 
L 684 0 
L 684 794 
z
" transform="scale(0.015625)"/>
       </defs>
       <use xlink:href="#DejaVuSans-30"/>
       <use xlink:href="#DejaVuSans-2e" x="63.623047"/>
       <use xlink:href="#DejaVuSans-30" x="95.410156"/>
      </g>
     </g>
    </g>
    <g id="xtick_2">
     <g id="line2d_2">
      <g>
       <use xlink:href="#m24f4475357" x="126.126515" y="245.32" style="stroke: #000000; stroke-width: 0.8"/>
      </g>
     </g>
     <g id="text_2">
      <!-- 0.5 -->
      <g transform="translate(118.174953 259.918437) scale(0.1 -0.1)">
       <defs>
        <path id="DejaVuSans-35" d="M 691 4666 
L 3169 4666 
L 3169 4134 
L 1269 4134 
L 1269 2991 
Q 1406 3038 1543 3061 
Q 1681 3084 1819 3084 
Q 2600 3084 3056 2656 
Q 3513 2228 3513 1497 
Q 3513 744 3044 326 
Q 2575 -91 1722 -91 
Q 1428 -91 1123 -41 
Q 819 9 494 109 
L 494 744 
Q 775 591 1075 516 
Q 1375 441 1709 441 
Q 2250 441 2565 725 
Q 2881 1009 2881 1497 
Q 2881 1984 2565 2268 
Q 2250 2553 1709 2553 
Q 1456 2553 1204 2497 
Q 953 2441 691 2322 
L 691 4666 
z
" transform="scale(0.015625)"/>
       </defs>
       <use xlink:href="#DejaVuSans-30"/>
       <use xlink:href="#DejaVuSans-2e" x="63.623047"/>
       <use xlink:href="#DejaVuSans-35" x="95.410156"/>
      </g>
     </g>
    </g>
    <g id="xtick_3">
     <g id="line2d_3">
      <g>
       <use xlink:href="#m24f4475357" x="181.800758" y="245.32" style="stroke: #000000; stroke-width: 0.8"/>
      </g>
     </g>
     <g id="text_3">
      <!-- 1.0 -->
      <g transform="translate(173.849195 259.918437) scale(0.1 -0.1)">
       <defs>
        <path id="DejaVuSans-31" d="M 794 531 
L 1825 531 
L 1825 4091 
L 703 3866 
L 703 4441 
L 1819 4666 
L 2450 4666 
L 2450 531 
L 3481 531 
L 3481 0 
L 794 0 
L 794 531 
z
" transform="scale(0.015625)"/>
       </defs>
       <use xlink:href="#DejaVuSans-31"/>
       <use xlink:href="#DejaVuSans-2e" x="63.623047"/>
       <use xlink:href="#DejaVuSans-30" x="95.410156"/>
      </g>
     </g>
    </g>
    <g id="xtick_4">
     <g id="line2d_4">
      <g>
       <use xlink:href="#m24f4475357" x="237.475" y="245.32" style="stroke: #000000; stroke-width: 0.8"/>
      </g>
     </g>
     <g id="text_4">
      <!-- 1.5 -->
      <g transform="translate(229.523438 259.918437) scale(0.1 -0.1)">
       <use xlink:href="#DejaVuSans-31"/>
       <use xlink:href="#DejaVuSans-2e" x="63.623047"/>
       <use xlink:href="#DejaVuSans-35" x="95.410156"/>
      </g>
     </g>
    </g>
    <g id="xtick_5">
     <g id="line2d_5">
      <g>
       <use xlink:href="#m24f4475357" x="293.149242" y="245.32" style="stroke: #000000; stroke-width: 0.8"/>
      </g>
     </g>
     <g id="text_5">
      <!-- 2.0 -->
      <g transform="translate(285.19768 259.918437) scale(0.1 -0.1)">
       <defs>
        <path id="DejaVuSans-32" d="M 1228 531 
L 3431 531 
L 3431 0 
L 469 0 
L 469 531 
Q 828 903 1448 1529 
Q 2069 2156 2228 2338 
Q 2531 2678 2651 2914 
Q 2772 3150 2772 3378 
Q 2772 3750 2511 3984 
Q 2250 4219 1831 4219 
Q 1534 4219 1204 4116 
Q 875 4013 500 3803 
L 500 4441 
Q 881 4594 1212 4672 
Q 1544 4750 1819 4750 
Q 2544 4750 2975 4387 
Q 3406 4025 3406 3419 
Q 3406 3131 3298 2873 
Q 3191 2616 2906 2266 
Q 2828 2175 2409 1742 
Q 1991 1309 1228 531 
z
" transform="scale(0.015625)"/>
       </defs>
       <use xlink:href="#DejaVuSans-32"/>
       <use xlink:href="#DejaVuSans-2e" x="63.623047"/>
       <use xlink:href="#DejaVuSans-30" x="95.410156"/>
      </g>
     </g>
    </g>
    <g id="xtick_6">
     <g id="line2d_6">
      <g>
       <use xlink:href="#m24f4475357" x="348.823485" y="245.32" style="stroke: #000000; stroke-width: 0.8"/>
      </g>
     </g>
     <g id="text_6">
      <!-- 2.5 -->
      <g transform="translate(340.871922 259.918437) scale(0.1 -0.1)">
       <use xlink:href="#DejaVuSans-32"/>
       <use xlink:href="#DejaVuSans-2e" x="63.623047"/>
       <use xlink:href="#DejaVuSans-35" x="95.410156"/>
      </g>
     </g>
    </g>
    <g id="xtick_7">
     <g id="line2d_7">
      <g>
       <use xlink:href="#m24f4475357" x="404.497727" y="245.32" style="stroke: #000000; stroke-width: 0.8"/>
      </g>
     </g>
     <g id="text_7">
      <!-- 3.0 -->
      <g transform="translate(396.546165 259.918437) scale(0.1 -0.1)">
       <defs>
        <path id="DejaVuSans-33" d="M 2597 2516 
Q 3050 2419 3304 2112 
Q 3559 1806 3559 1356 
Q 3559 666 3084 287 
Q 2609 -91 1734 -91 
Q 1441 -91 1130 -33 
Q 819 25 488 141 
L 488 750 
Q 750 597 1062 519 
Q 1375 441 1716 441 
Q 2309 441 2620 675 
Q 2931 909 2931 1356 
Q 2931 1769 2642 2001 
Q 2353 2234 1838 2234 
L 1294 2234 
L 1294 2753 
L 1863 2753 
Q 2328 2753 2575 2939 
Q 2822 3125 2822 3475 
Q 2822 3834 2567 4026 
Q 2313 4219 1838 4219 
Q 1578 4219 1281 4162 
Q 984 4106 628 3988 
L 628 4550 
Q 988 4650 1302 4700 
Q 1616 4750 1894 4750 
Q 2613 4750 3031 4423 
Q 3450 4097 3450 3541 
Q 3450 3153 3228 2886 
Q 3006 2619 2597 2516 
z
" transform="scale(0.015625)"/>
       </defs>
       <use xlink:href="#DejaVuSans-33"/>
       <use xlink:href="#DejaVuSans-2e" x="63.623047"/>
       <use xlink:href="#DejaVuSans-30" x="95.410156"/>
      </g>
     </g>
    </g>
    <g id="text_8">
     <!-- $\omega/T$ -->
     <g transform="translate(228.525 273.596563) scale(0.1 -0.1)">
      <defs>
       <path id="DejaVuSans-Oblique-3c9" d="M 1369 -91 
Q 72 -91 434 1766 
Q 575 2500 1256 3500 
L 1875 3500 
Q 1231 2500 1088 1750 
Q 819 397 1519 397 
Q 2166 397 2478 2078 
L 3009 2078 
Q 2669 388 3316 397 
Q 4013 403 4275 1750 
Q 4419 2500 4169 3500 
L 4788 3500 
Q 5075 2500 4934 1766 
Q 4578 -94 3278 -91 
Q 2428 -88 2503 844 
Q 2194 -91 1369 -91 
z
" transform="scale(0.015625)"/>
       <path id="DejaVuSans-2f" d="M 1625 4666 
L 2156 4666 
L 531 -594 
L 0 -594 
L 1625 4666 
z
" transform="scale(0.015625)"/>
       <path id="DejaVuSans-Oblique-54" d="M 378 4666 
L 4325 4666 
L 4225 4134 
L 2559 4134 
L 1759 0 
L 1125 0 
L 1925 4134 
L 275 4134 
L 378 4666 
z
" transform="scale(0.015625)"/>
      </defs>
      <use xlink:href="#DejaVuSans-Oblique-3c9" transform="translate(0 0.09375)"/>
      <use xlink:href="#DejaVuSans-2f" transform="translate(83.740234 0.09375)"/>
      <use xlink:href="#DejaVuSans-Oblique-54" transform="translate(117.431641 0.09375)"/>
     </g>
    </g>
   </g>
   <g id="matplotlib.axis_2">
    <g id="ytick_1">
     <g id="line2d_8">
      <defs>
       <path id="m16363da17b" d="M 0 0 
L -3.5 0 
" style="stroke: #000000; stroke-width: 0.8"/>
      </defs>
      <g>
       <use xlink:href="#m16363da17b" x="53.75" y="235.390909" style="stroke: #000000; stroke-width: 0.8"/>
      </g>
     </g>
     <g id="text_9">
      <!-- 0 -->
      <g transform="translate(40.3875 239.190128) scale(0.1 -0.1)">
       <use xlink:href="#DejaVuSans-30"/>
      </g>
     </g>
    </g>
    <g id="ytick_2">
     <g id="line2d_9">
      <g>
       <use xlink:href="#m16363da17b" x="53.75" y="189.935393" style="stroke: #000000; stroke-width: 0.8"/>
      </g>
     </g>
     <g id="text_10">
      <!-- 50 -->
      <g transform="translate(34.025 193.734612) scale(0.1 -0.1)">
       <use xlink:href="#DejaVuSans-35"/>
       <use xlink:href="#DejaVuSans-30" x="63.623047"/>
      </g>
     </g>
    </g>
    <g id="ytick_3">
     <g id="line2d_10">
      <g>
       <use xlink:href="#m16363da17b" x="53.75" y="144.479878" style="stroke: #000000; stroke-width: 0.8"/>
      </g>
     </g>
     <g id="text_11">
      <!-- 100 -->
      <g transform="translate(27.6625 148.279096) scale(0.1 -0.1)">
       <use xlink:href="#DejaVuSans-31"/>
       <use xlink:href="#DejaVuSans-30" x="63.623047"/>
       <use xlink:href="#DejaVuSans-30" x="127.246094"/>
      </g>
     </g>
    </g>
    <g id="ytick_4">
     <g id="line2d_11">
      <g>
       <use xlink:href="#m16363da17b" x="53.75" y="99.024362" style="stroke: #000000; stroke-width: 0.8"/>
      </g>
     </g>
     <g id="text_12">
      <!-- 150 -->
      <g transform="translate(27.6625 102.823581) scale(0.1 -0.1)">
       <use xlink:href="#DejaVuSans-31"/>
       <use xlink:href="#DejaVuSans-35" x="63.623047"/>
       <use xlink:href="#DejaVuSans-30" x="127.246094"/>
      </g>
     </g>
    </g>
    <g id="ytick_5">
     <g id="line2d_12">
      <g>
       <use xlink:href="#m16363da17b" x="53.75" y="53.568846" style="stroke: #000000; stroke-width: 0.8"/>
      </g>
     </g>
     <g id="text_13">
      <!-- 200 -->
      <g transform="translate(27.6625 57.368065) scale(0.1 -0.1)">
       <use xlink:href="#DejaVuSans-32"/>
       <use xlink:href="#DejaVuSans-30" x="63.623047"/>
       <use xlink:href="#DejaVuSans-30" x="127.246094"/>
      </g>
     </g>
    </g>
    <g id="text_14">
     <!-- $B(\tau,\omega)\,\rho(\omega)$ -->
     <g transform="translate(21.5625 165.3) rotate(-90) scale(0.1 -0.1)">
      <defs>
       <path id="DejaVuSans-Oblique-42" d="M 1081 4666 
L 2694 4666 
Q 3350 4666 3675 4422 
Q 4000 4178 4000 3688 
Q 4000 3238 3720 2911 
Q 3441 2584 2988 2516 
Q 3375 2428 3569 2181 
Q 3763 1934 3763 1522 
Q 3763 819 3242 409 
Q 2722 0 1819 0 
L 172 0 
L 1081 4666 
z
M 1234 2228 
L 903 519 
L 1919 519 
Q 2491 519 2800 781 
Q 3109 1044 3109 1522 
Q 3109 1891 2904 2059 
Q 2700 2228 2247 2228 
L 1234 2228 
z
M 1606 4147 
L 1331 2741 
L 2272 2741 
Q 2775 2741 3058 2959 
Q 3341 3178 3341 3566 
Q 3341 3869 3150 4008 
Q 2959 4147 2541 4147 
L 1606 4147 
z
" transform="scale(0.015625)"/>
       <path id="DejaVuSans-28" d="M 1984 4856 
Q 1566 4138 1362 3434 
Q 1159 2731 1159 2009 
Q 1159 1288 1364 580 
Q 1569 -128 1984 -844 
L 1484 -844 
Q 1016 -109 783 600 
Q 550 1309 550 2009 
Q 550 2706 781 3412 
Q 1013 4119 1484 4856 
L 1984 4856 
z
" transform="scale(0.015625)"/>
       <path id="DejaVuSans-Oblique-3c4" d="M 2103 638 
Q 2188 488 2525 488 
L 2800 488 
L 2706 0 
L 2363 0 
Q 1800 0 1600 300 
Q 1403 606 1534 1269 
L 1856 2925 
L 541 2925 
L 653 3500 
L 3881 3500 
L 3769 2925 
L 2444 2925 
L 2113 1234 
Q 2025 781 2103 638 
z
" transform="scale(0.015625)"/>
       <path id="DejaVuSans-2c" d="M 750 794 
L 1409 794 
L 1409 256 
L 897 -744 
L 494 -744 
L 750 256 
L 750 794 
z
" transform="scale(0.015625)"/>
       <path id="DejaVuSans-29" d="M 513 4856 
L 1013 4856 
Q 1481 4119 1714 3412 
Q 1947 2706 1947 2009 
Q 1947 1309 1714 600 
Q 1481 -109 1013 -844 
L 513 -844 
Q 928 -128 1133 580 
Q 1338 1288 1338 2009 
Q 1338 2731 1133 3434 
Q 928 4138 513 4856 
z
" transform="scale(0.015625)"/>
       <path id="DejaVuSans-Oblique-3c1" d="M 1203 2875 
Q 1453 3194 1981 3475 
Q 2188 3584 2756 3584 
Q 3394 3584 3694 3078 
Q 3994 2572 3834 1747 
Q 3672 922 3175 415 
Q 2678 -91 2041 -91 
Q 1656 -91 1409 63 
Q 1163 213 1044 525 
L 681 -1331 
L 103 -1331 
L 697 1716 
Q 838 2438 1203 2875 
z
M 3238 1747 
Q 3359 2381 3169 2744 
Q 2978 3103 2522 3103 
Q 2066 3103 1734 2744 
Q 1403 2381 1281 1747 
Q 1156 1113 1347 750 
Q 1538 391 1994 391 
Q 2450 391 2781 750 
Q 3113 1113 3238 1747 
z
" transform="scale(0.015625)"/>
      </defs>
      <use xlink:href="#DejaVuSans-Oblique-42" transform="translate(0 0.125)"/>
      <use xlink:href="#DejaVuSans-28" transform="translate(68.603516 0.125)"/>
      <use xlink:href="#DejaVuSans-Oblique-3c4" transform="translate(107.617188 0.125)"/>
      <use xlink:href="#DejaVuSans-2c" transform="translate(167.822266 0.125)"/>
      <use xlink:href="#DejaVuSans-Oblique-3c9" transform="translate(219.091797 0.125)"/>
      <use xlink:href="#DejaVuSans-29" transform="translate(302.832031 0.125)"/>
      <use xlink:href="#DejaVuSans-Oblique-3c1" transform="translate(358.081379 0.125)"/>
      <use xlink:href="#DejaVuSans-28" transform="translate(421.557942 0.125)"/>
      <use xlink:href="#DejaVuSans-Oblique-3c9" transform="translate(460.571614 0.125)"/>
      <use xlink:href="#DejaVuSans-29" transform="translate(544.311848 0.125)"/>
     </g>
    </g>
   </g>
   <g id="line2d_13">
    <path d="M 70.452273 235.390909 
L 108.331802 235.287626 
L 111.117061 235.060307 
L 112.973901 234.710781 
L 114.459373 234.216967 
L 115.75916 233.540902 
L 116.873264 232.704762 
L 117.987368 231.551187 
L 118.915788 230.280875 
L 119.844208 228.6637 
L 120.772627 226.630323 
L 121.701047 224.105471 
L 122.629467 221.009856 
L 123.743571 216.428376 
L 124.857675 210.775033 
L 125.971779 203.931717 
L 127.271566 194.327254 
L 128.571354 182.918592 
L 130.056826 167.735539 
L 131.727981 148.284593 
L 134.513241 112.637807 
L 136.927132 82.686122 
L 138.412604 66.975258 
L 139.526708 57.408729 
L 140.455128 51.227687 
L 141.197864 47.59516 
L 141.754916 45.685172 
L 142.311968 44.497088 
L 142.683335 44.112468 
L 143.054703 44.055707 
L 143.426071 44.326443 
L 143.797439 44.922523 
L 144.354491 46.417574 
L 144.911543 48.614711 
L 145.654279 52.584588 
L 146.582699 59.085759 
L 147.696803 68.834965 
L 148.99659 82.276745 
L 151.410482 110.214284 
L 153.638689 135.115841 
L 154.938477 147.481758 
L 156.052581 156.145145 
L 156.981001 161.734639 
L 157.723737 165.028071 
L 158.280789 166.772144 
L 158.83784 167.874249 
L 159.209208 168.246455 
L 159.580576 168.326199 
L 159.951944 168.112695 
L 160.323312 167.606311 
L 160.880364 166.301258 
L 161.437416 164.351024 
L 162.180152 160.775538 
L 163.108572 154.818281 
L 164.036992 147.346284 
L 165.151095 136.651049 
L 166.636567 120.142503 
L 171.835718 59.742764 
L 172.949822 50.14251 
L 173.878242 43.923835 
L 174.620978 40.276564 
L 175.178029 38.373032 
L 175.735081 37.211731 
L 176.106449 36.858376 
L 176.477817 36.844971 
L 176.849185 37.172237 
L 177.220553 37.839049 
L 177.777605 39.468957 
L 178.334657 41.838272 
L 179.077393 46.101123 
L 180.005813 53.080974 
L 181.119916 63.590889 
L 182.419704 78.219998 
L 184.276544 101.994987 
L 188.547275 157.805885 
L 190.218431 176.434927 
L 191.703902 190.546793 
L 193.00369 200.889567 
L 194.303478 209.405685 
L 195.417582 215.353127 
L 196.531686 220.178987 
L 197.645789 224.021713 
L 198.759893 227.02551 
L 199.873997 229.33116 
L 200.988101 231.069416 
L 202.102205 232.35685 
L 203.216308 233.29378 
L 204.330412 233.963865 
L 205.6302 234.498006 
L 207.301356 234.917308 
L 209.343879 235.182902 
L 212.500507 235.338314 
L 219.370813 235.389199 
L 346.935698 235.390909 
L 404.497727 235.390909 
L 404.497727 235.390909 
" clip-path="url(#pde91ee56e3)" style="fill: none; stroke: #1f77b4; stroke-opacity: 0.75; stroke-width: 2; stroke-linecap: square"/>
   </g>
   <g id="line2d_14">
    <path d="M 70.452273 235.390909 
L 108.331802 235.287717 
L 111.117061 235.060643 
L 112.973901 234.711534 
L 114.459373 234.218359 
L 115.75916 233.543225 
L 116.873264 232.7083 
L 117.987368 231.556487 
L 118.915788 230.288202 
L 119.844208 228.673713 
L 120.772627 226.64385 
L 121.701047 224.123534 
L 122.629467 221.033699 
L 123.743571 216.461147 
L 124.857675 210.819335 
L 125.971779 203.99063 
L 127.271566 194.407718 
L 128.571354 183.026063 
L 130.056826 167.881113 
L 131.727981 148.482413 
L 134.513241 112.941802 
L 136.927132 83.092486 
L 138.412604 67.443072 
L 139.526708 57.918949 
L 140.455128 51.769457 
L 141.197864 48.159016 
L 141.754916 46.26347 
L 142.311968 45.087829 
L 142.683335 44.710324 
L 143.054703 44.659695 
L 143.426071 44.935548 
L 143.797439 45.535708 
L 144.354491 47.034892 
L 144.911543 49.233753 
L 145.654279 53.202174 
L 146.582699 59.695625 
L 147.696803 69.427437 
L 148.99659 82.83915 
L 151.410482 110.701557 
L 153.638689 135.526996 
L 154.938477 147.853043 
L 156.052581 156.488309 
L 156.981001 162.060223 
L 157.723737 165.344199 
L 158.280789 167.084191 
L 158.83784 168.184997 
L 159.209208 168.557961 
L 159.580576 168.639813 
L 159.951944 168.429801 
L 160.323312 167.928325 
L 160.880364 166.633341 
L 161.437416 164.696479 
L 162.180152 161.144013 
L 163.108572 155.22383 
L 164.036992 147.797875 
L 165.151095 137.168942 
L 166.636567 120.764985 
L 171.835718 60.790067 
L 172.949822 51.269871 
L 173.878242 45.108838 
L 174.620978 41.500377 
L 175.178029 39.621136 
L 175.735081 38.479666 
L 176.106449 38.136929 
L 176.477817 38.13199 
L 176.849185 38.465522 
L 177.220553 39.136363 
L 177.777605 40.768073 
L 178.334657 43.134079 
L 179.077393 47.384631 
L 180.005813 54.336812 
L 181.119916 64.796709 
L 182.419704 79.347209 
L 184.276544 102.981158 
L 188.547275 158.419612 
L 190.218431 176.913436 
L 191.703902 190.919049 
L 193.00369 201.181585 
L 194.303478 209.629884 
L 195.417582 215.528846 
L 196.531686 220.31455 
L 197.645789 224.124657 
L 198.759893 227.102459 
L 199.873997 229.387776 
L 200.988101 231.110421 
L 202.102205 232.386082 
L 203.216308 233.314293 
L 204.330412 233.978034 
L 205.6302 234.507026 
L 207.301356 234.922199 
L 209.343879 235.185108 
L 212.500507 235.338894 
L 219.556497 235.389382 
L 361.604731 235.390909 
L 404.497727 235.390909 
L 404.497727 235.390909 
" clip-path="url(#pde91ee56e3)" style="fill: none; stroke: #ff7f0e; stroke-opacity: 0.75; stroke-width: 2; stroke-linecap: square"/>
   </g>
   <g id="line2d_15">
    <path d="M 70.452273 235.390909 
L 108.331802 235.287972 
L 111.117061 235.061584 
L 112.973901 234.71365 
L 114.459373 234.222266 
L 115.75916 233.549747 
L 116.873264 232.718233 
L 117.987368 231.571365 
L 118.915788 230.30877 
L 119.844208 228.701819 
L 120.772627 226.681815 
L 121.701047 224.174228 
L 122.629467 221.100616 
L 123.743571 216.553114 
L 124.857675 210.943659 
L 125.971779 204.155948 
L 127.271566 194.633499 
L 128.571354 183.327607 
L 130.056826 168.289538 
L 131.727981 149.037375 
L 134.513241 113.794508 
L 136.927132 84.232201 
L 138.412604 68.755031 
L 139.526708 59.349749 
L 140.455128 53.288653 
L 141.197864 49.740084 
L 141.754916 47.884982 
L 142.311968 46.744179 
L 142.683335 46.386591 
L 143.054703 46.353118 
L 143.426071 46.643282 
L 143.797439 47.254842 
L 144.354491 48.765561 
L 144.911543 50.969197 
L 145.654279 54.933465 
L 146.582699 61.405177 
L 147.696803 71.088123 
L 149.182274 86.451334 
L 154.752793 147.283199 
L 155.866897 156.162907 
L 156.795317 161.993288 
L 157.538053 165.515945 
L 158.280789 167.958259 
L 158.83784 169.055393 
L 159.209208 169.430462 
L 159.580576 169.518194 
L 159.951944 169.31794 
L 160.323312 168.830186 
L 160.880364 167.563367 
L 161.437416 165.663918 
L 162.180152 162.17586 
L 163.108572 156.359425 
L 164.036992 149.062308 
L 165.151095 138.6189 
L 166.636567 122.507576 
L 171.835718 63.720754 
L 172.949822 54.424307 
L 173.878242 48.424318 
L 174.620978 44.924238 
L 175.178029 43.112804 
L 175.735081 42.026652 
L 176.106449 41.713512 
L 176.477817 41.732147 
L 176.849185 42.083097 
L 177.220553 42.765099 
L 177.777605 44.401684 
L 178.334657 46.758265 
L 179.077393 50.974197 
L 180.005813 57.848726 
L 181.119916 68.168431 
L 182.419704 82.498776 
L 184.276544 105.737951 
L 188.547275 160.134607 
L 190.218431 178.250379 
L 191.703902 191.95898 
L 193.00369 201.997267 
L 194.303478 210.256053 
L 195.417582 216.019562 
L 196.531686 220.693085 
L 197.645789 224.412079 
L 198.759893 227.317279 
L 199.873997 229.545817 
L 200.988101 231.224868 
L 202.102205 232.467662 
L 203.216308 233.371534 
L 204.516096 234.104996 
L 206.001568 234.642932 
L 207.672723 234.997613 
L 209.900931 235.232883 
L 213.428926 235.358085 
L 223.084493 235.39071 
L 404.497727 235.390909 
L 404.497727 235.390909 
" clip-path="url(#pde91ee56e3)" style="fill: none; stroke: #2ca02c; stroke-opacity: 0.75; stroke-width: 2; stroke-linecap: square"/>
   </g>
   <g id="line2d_16">
    <path d="M 70.452273 235.390909 
L 108.331802 235.288273 
L 111.117061 235.062689 
L 112.973901 234.716133 
L 114.459373 234.226852 
L 115.75916 233.5574 
L 116.873264 232.72989 
L 117.987368 231.588823 
L 118.915788 230.332904 
L 119.844208 228.734796 
L 120.772627 226.726358 
L 121.701047 224.233703 
L 122.629467 221.179117 
L 123.743571 216.660995 
L 124.857675 211.089486 
L 125.971779 204.349844 
L 127.271566 194.898284 
L 128.571354 183.68121 
L 130.056826 168.768422 
L 131.727981 149.687995 
L 134.513241 114.793975 
L 136.927132 85.56781 
L 138.412604 70.292298 
L 139.526708 61.026105 
L 140.455128 55.068433 
L 141.197864 51.592226 
L 141.754916 49.784409 
L 142.311968 48.684318 
L 142.683335 48.349994 
L 143.054703 48.336548 
L 143.426071 48.643407 
L 143.797439 49.26825 
L 144.354491 50.792375 
L 144.911543 53.001499 
L 145.654279 56.960761 
L 146.582699 63.406843 
L 147.696803 73.032366 
L 149.182274 88.279985 
L 154.752793 148.517569 
L 155.866897 157.301281 
L 156.795317 163.070042 
L 157.538053 166.558033 
L 158.280789 168.980458 
L 158.83784 170.073237 
L 159.209208 170.450724 
L 159.580576 170.54529 
L 159.951944 170.356403 
L 160.323312 169.884649 
L 160.880364 168.650694 
L 161.437416 166.794915 
L 162.180152 163.382053 
L 162.922888 158.947154 
L 163.851308 152.077168 
L 164.965411 142.128228 
L 166.450883 126.615692 
L 169.60751 90.153085 
L 171.278666 72.374714 
L 172.578454 60.886976 
L 173.506874 54.415779 
L 174.24961 50.459242 
L 174.992345 47.687528 
L 175.549397 46.426672 
L 175.920765 45.986199 
L 176.292133 45.86961 
L 176.663501 46.078177 
L 177.034869 46.611403 
L 177.591921 48.014572 
L 178.148973 50.127893 
L 178.891709 54.009012 
L 179.820129 60.457514 
L 180.934232 70.271306 
L 182.23402 84.042976 
L 184.09086 106.588314 
L 188.547275 162.132536 
L 190.218431 179.807505 
L 191.703902 193.169914 
L 193.00369 202.946891 
L 194.303478 210.984902 
L 195.417582 216.59065 
L 196.531686 221.133543 
L 197.645789 224.746462 
L 198.759893 227.567154 
L 199.873997 229.729615 
L 200.988101 231.357944 
L 202.102205 232.562505 
L 203.216308 233.438068 
L 204.516096 234.148125 
L 206.001568 234.668528 
L 207.672723 235.011375 
L 210.086615 235.250134 
L 213.985978 235.366621 
L 226.055436 235.390878 
L 404.497727 235.390909 
L 404.497727 235.390909 
" clip-path="url(#pde91ee56e3)" style="fill: none; stroke: #d62728; stroke-opacity: 0.75; stroke-width: 2; stroke-linecap: square"/>
   </g>
   <g id="line2d_17">
    <path d="M 70.452273 235.390909 
L 108.517486 235.280169 
L 111.302745 235.039316 
L 113.159585 234.671562 
L 114.645057 234.154765 
L 115.944844 233.450472 
L 117.058948 232.58293 
L 118.173052 231.390596 
L 119.101472 230.082221 
L 120.029892 228.422041 
L 120.958311 226.341525 
L 121.886731 223.766858 
L 123.000835 219.916445 
L 124.114939 215.110372 
L 125.229043 209.224206 
L 126.343146 202.153718 
L 127.642934 192.315934 
L 128.942722 180.742419 
L 130.428194 165.507735 
L 132.285033 144.004589 
L 137.669868 79.772486 
L 138.969656 67.855973 
L 139.898076 61.071518 
L 140.826496 55.965049 
L 141.569232 53.195583 
L 142.126284 51.923511 
L 142.497651 51.466991 
L 142.869019 51.326101 
L 143.240387 51.500983 
L 143.611755 51.990058 
L 144.168807 53.3051 
L 144.725859 55.300975 
L 145.468595 58.974058 
L 146.397015 65.068317 
L 147.511119 74.295905 
L 148.810906 87.11677 
L 151.039114 111.892829 
L 153.453005 138.233105 
L 154.938477 151.970992 
L 156.052581 160.293478 
L 156.981001 165.669737 
L 157.723737 168.848323 
L 158.280789 170.542656 
L 158.83784 171.628647 
L 159.209208 172.009742 
L 159.580576 172.114663 
L 159.951944 171.943053 
L 160.323312 171.495654 
L 160.880364 170.311766 
L 161.437416 168.522549 
L 162.180152 165.224338 
L 162.922888 160.933578 
L 163.851308 154.284227 
L 164.965411 144.655951 
L 166.450883 129.653707 
L 171.835718 72.360813 
L 172.949822 63.721618 
L 173.878242 58.194168 
L 174.620978 55.011696 
L 175.178029 53.398678 
L 175.735081 52.474101 
L 176.106449 52.247203 
L 176.477817 52.334323 
L 176.849185 52.735615 
L 177.220553 53.449525 
L 177.777605 55.099019 
L 178.334657 57.42641 
L 179.077393 61.538513 
L 180.005813 68.182138 
L 181.119916 78.086591 
L 182.419704 91.766306 
L 184.276544 113.840768 
L 188.361591 163.129873 
L 190.032747 180.413308 
L 191.518218 193.528408 
L 192.818006 203.15414 
L 194.117794 211.089572 
L 195.231898 216.637509 
L 196.346002 221.14351 
L 197.460105 224.734843 
L 198.574209 227.544626 
L 199.688313 229.703209 
L 200.802417 231.331945 
L 201.916521 232.539238 
L 203.030624 233.418535 
L 204.330412 234.133122 
L 205.815884 234.658103 
L 207.48704 235.004892 
L 209.715247 235.235438 
L 213.428926 235.361193 
L 223.827229 235.390795 
L 404.497727 235.390909 
L 404.497727 235.390909 
" clip-path="url(#pde91ee56e3)" style="fill: none; stroke: #9467bd; stroke-opacity: 0.75; stroke-width: 2; stroke-linecap: square"/>
   </g>
   <g id="line2d_18">
    <path d="M 70.452273 235.390909 
L 108.517486 235.280572 
L 111.302745 235.04079 
L 113.159585 234.674856 
L 114.645057 234.160826 
L 115.944844 233.46055 
L 117.058948 232.598233 
L 118.173052 231.413448 
L 119.101472 230.113732 
L 120.029892 228.464992 
L 120.958311 226.399397 
L 121.886731 223.843938 
L 123.000835 220.023524 
L 124.114939 215.256686 
L 125.229043 209.420856 
L 126.343146 202.413702 
L 127.642934 192.668615 
L 128.942722 181.210283 
L 130.428194 166.136573 
L 132.285033 144.878215 
L 137.484184 83.395811 
L 138.783972 71.331347 
L 139.712392 64.372024 
L 140.640812 59.038063 
L 141.383548 56.053351 
L 141.9406 54.603359 
L 142.311968 54.021563 
L 142.683335 53.750869 
L 143.054703 53.792138 
L 143.426071 54.144537 
L 143.797439 54.805531 
L 144.354491 56.365942 
L 144.911543 58.589567 
L 145.654279 62.534274 
L 146.582699 68.908906 
L 147.696803 78.375422 
L 149.182274 93.303894 
L 154.567109 150.313874 
L 155.681213 159.134255 
L 156.609633 165.021117 
L 157.352369 168.662138 
L 158.095105 171.289873 
L 158.652157 172.57071 
L 159.209208 173.247729 
L 159.580576 173.360795 
L 159.951944 173.202826 
L 160.323312 172.774685 
L 160.880364 171.63042 
L 161.437416 169.893916 
L 162.180152 166.686526 
L 162.922888 162.509964 
L 163.851308 156.035421 
L 164.965411 146.66118 
L 166.450883 132.063109 
L 171.835718 76.495116 
L 172.949822 68.169129 
L 173.878242 62.866585 
L 174.620978 59.83506 
L 175.178029 58.316184 
L 175.735081 57.468109 
L 176.106449 57.281933 
L 176.477817 57.401278 
L 176.849185 57.826117 
L 177.220553 58.554759 
L 177.777605 60.209643 
L 178.520341 63.435158 
L 179.263077 67.765689 
L 180.191497 74.600867 
L 181.3056 84.609807 
L 182.791072 100.316578 
L 185.204964 128.930688 
L 188.175907 163.58591 
L 189.847063 180.59969 
L 191.332534 193.561796 
L 192.632322 203.106816 
L 193.93211 210.998908 
L 195.046214 216.531212 
L 196.160318 221.035181 
L 197.274421 224.633221 
L 198.388525 227.454649 
L 199.502629 229.627014 
L 200.616733 231.26975 
L 201.730837 232.490054 
L 202.84494 233.380725 
L 204.144728 234.106194 
L 205.6302 234.640541 
L 207.301356 234.994533 
L 209.529563 235.230672 
L 213.057558 235.357307 
L 222.527441 235.390676 
L 404.497727 235.390909 
L 404.497727 235.390909 
" clip-path="url(#pde91ee56e3)" style="fill: none; stroke: #8c564b; stroke-opacity: 0.75; stroke-width: 2; stroke-linecap: square"/>
   </g>
   <g id="patch_3">
    <path d="M 53.75 245.32 
L 53.75 26.88 
" style="fill: none; stroke: #000000; stroke-width: 0.8; stroke-linejoin: miter; stroke-linecap: square"/>
   </g>
   <g id="patch_4">
    <path d="M 421.2 245.32 
L 421.2 26.88 
" style="fill: none; stroke: #000000; stroke-width: 0.8; stroke-linejoin: miter; stroke-linecap: square"/>
   </g>
   <g id="patch_5">
    <path d="M 53.75 245.32 
L 421.2 245.32 
" style="fill: none; stroke: #000000; stroke-width: 0.8; stroke-linejoin: miter; stroke-linecap: square"/>
   </g>
   <g id="patch_6">
    <path d="M 53.75 26.88 
L 421.2 26.88 
" style="fill: none; stroke: #000000; stroke-width: 0.8; stroke-linejoin: miter; stroke-linecap: square"/>
   </g>
   <g id="text_15">
    <!-- Kernel-weighted integrand (single peak) -->
    <g transform="translate(116.835625 20.88) scale(0.12 -0.12)">
     <defs>
      <path id="DejaVuSans-4b" d="M 628 4666 
L 1259 4666 
L 1259 2694 
L 3353 4666 
L 4166 4666 
L 1850 2491 
L 4331 0 
L 3500 0 
L 1259 2247 
L 1259 0 
L 628 0 
L 628 4666 
z
" transform="scale(0.015625)"/>
      <path id="DejaVuSans-65" d="M 3597 1894 
L 3597 1613 
L 953 1613 
Q 991 1019 1311 708 
Q 1631 397 2203 397 
Q 2534 397 2845 478 
Q 3156 559 3463 722 
L 3463 178 
Q 3153 47 2828 -22 
Q 2503 -91 2169 -91 
Q 1331 -91 842 396 
Q 353 884 353 1716 
Q 353 2575 817 3079 
Q 1281 3584 2069 3584 
Q 2775 3584 3186 3129 
Q 3597 2675 3597 1894 
z
M 3022 2063 
Q 3016 2534 2758 2815 
Q 2500 3097 2075 3097 
Q 1594 3097 1305 2825 
Q 1016 2553 972 2059 
L 3022 2063 
z
" transform="scale(0.015625)"/>
      <path id="DejaVuSans-72" d="M 2631 2963 
Q 2534 3019 2420 3045 
Q 2306 3072 2169 3072 
Q 1681 3072 1420 2755 
Q 1159 2438 1159 1844 
L 1159 0 
L 581 0 
L 581 3500 
L 1159 3500 
L 1159 2956 
Q 1341 3275 1631 3429 
Q 1922 3584 2338 3584 
Q 2397 3584 2469 3576 
Q 2541 3569 2628 3553 
L 2631 2963 
z
" transform="scale(0.015625)"/>
      <path id="DejaVuSans-6e" d="M 3513 2113 
L 3513 0 
L 2938 0 
L 2938 2094 
Q 2938 2591 2744 2837 
Q 2550 3084 2163 3084 
Q 1697 3084 1428 2787 
Q 1159 2491 1159 1978 
L 1159 0 
L 581 0 
L 581 3500 
L 1159 3500 
L 1159 2956 
Q 1366 3272 1645 3428 
Q 1925 3584 2291 3584 
Q 2894 3584 3203 3211 
Q 3513 2838 3513 2113 
z
" transform="scale(0.015625)"/>
      <path id="DejaVuSans-6c" d="M 603 4863 
L 1178 4863 
L 1178 0 
L 603 0 
L 603 4863 
z
" transform="scale(0.015625)"/>
      <path id="DejaVuSans-2d" d="M 313 2009 
L 1997 2009 
L 1997 1497 
L 313 1497 
L 313 2009 
z
" transform="scale(0.015625)"/>
      <path id="DejaVuSans-77" d="M 269 3500 
L 844 3500 
L 1563 769 
L 2278 3500 
L 2956 3500 
L 3675 769 
L 4391 3500 
L 4966 3500 
L 4050 0 
L 3372 0 
L 2619 2869 
L 1863 0 
L 1184 0 
L 269 3500 
z
" transform="scale(0.015625)"/>
      <path id="DejaVuSans-69" d="M 603 3500 
L 1178 3500 
L 1178 0 
L 603 0 
L 603 3500 
z
M 603 4863 
L 1178 4863 
L 1178 4134 
L 603 4134 
L 603 4863 
z
" transform="scale(0.015625)"/>
      <path id="DejaVuSans-67" d="M 2906 1791 
Q 2906 2416 2648 2759 
Q 2391 3103 1925 3103 
Q 1463 3103 1205 2759 
Q 947 2416 947 1791 
Q 947 1169 1205 825 
Q 1463 481 1925 481 
Q 2391 481 2648 825 
Q 2906 1169 2906 1791 
z
M 3481 434 
Q 3481 -459 3084 -895 
Q 2688 -1331 1869 -1331 
Q 1566 -1331 1297 -1286 
Q 1028 -1241 775 -1147 
L 775 -588 
Q 1028 -725 1275 -790 
Q 1522 -856 1778 -856 
Q 2344 -856 2625 -561 
Q 2906 -266 2906 331 
L 2906 616 
Q 2728 306 2450 153 
Q 2172 0 1784 0 
Q 1141 0 747 490 
Q 353 981 353 1791 
Q 353 2603 747 3093 
Q 1141 3584 1784 3584 
Q 2172 3584 2450 3431 
Q 2728 3278 2906 2969 
L 2906 3500 
L 3481 3500 
L 3481 434 
z
" transform="scale(0.015625)"/>
      <path id="DejaVuSans-68" d="M 3513 2113 
L 3513 0 
L 2938 0 
L 2938 2094 
Q 2938 2591 2744 2837 
Q 2550 3084 2163 3084 
Q 1697 3084 1428 2787 
Q 1159 2491 1159 1978 
L 1159 0 
L 581 0 
L 581 4863 
L 1159 4863 
L 1159 2956 
Q 1366 3272 1645 3428 
Q 1925 3584 2291 3584 
Q 2894 3584 3203 3211 
Q 3513 2838 3513 2113 
z
" transform="scale(0.015625)"/>
      <path id="DejaVuSans-74" d="M 1172 4494 
L 1172 3500 
L 2356 3500 
L 2356 3053 
L 1172 3053 
L 1172 1153 
Q 1172 725 1289 603 
Q 1406 481 1766 481 
L 2356 481 
L 2356 0 
L 1766 0 
Q 1100 0 847 248 
Q 594 497 594 1153 
L 594 3053 
L 172 3053 
L 172 3500 
L 594 3500 
L 594 4494 
L 1172 4494 
z
" transform="scale(0.015625)"/>
      <path id="DejaVuSans-64" d="M 2906 2969 
L 2906 4863 
L 3481 4863 
L 3481 0 
L 2906 0 
L 2906 525 
Q 2725 213 2448 61 
Q 2172 -91 1784 -91 
Q 1150 -91 751 415 
Q 353 922 353 1747 
Q 353 2572 751 3078 
Q 1150 3584 1784 3584 
Q 2172 3584 2448 3432 
Q 2725 3281 2906 2969 
z
M 947 1747 
Q 947 1113 1208 752 
Q 1469 391 1925 391 
Q 2381 391 2643 752 
Q 2906 1113 2906 1747 
Q 2906 2381 2643 2742 
Q 2381 3103 1925 3103 
Q 1469 3103 1208 2742 
Q 947 2381 947 1747 
z
" transform="scale(0.015625)"/>
      <path id="DejaVuSans-20" transform="scale(0.015625)"/>
      <path id="DejaVuSans-61" d="M 2194 1759 
Q 1497 1759 1228 1600 
Q 959 1441 959 1056 
Q 959 750 1161 570 
Q 1363 391 1709 391 
Q 2188 391 2477 730 
Q 2766 1069 2766 1631 
L 2766 1759 
L 2194 1759 
z
M 3341 1997 
L 3341 0 
L 2766 0 
L 2766 531 
Q 2569 213 2275 61 
Q 1981 -91 1556 -91 
Q 1019 -91 701 211 
Q 384 513 384 1019 
Q 384 1609 779 1909 
Q 1175 2209 1959 2209 
L 2766 2209 
L 2766 2266 
Q 2766 2663 2505 2880 
Q 2244 3097 1772 3097 
Q 1472 3097 1187 3025 
Q 903 2953 641 2809 
L 641 3341 
Q 956 3463 1253 3523 
Q 1550 3584 1831 3584 
Q 2591 3584 2966 3190 
Q 3341 2797 3341 1997 
z
" transform="scale(0.015625)"/>
      <path id="DejaVuSans-73" d="M 2834 3397 
L 2834 2853 
Q 2591 2978 2328 3040 
Q 2066 3103 1784 3103 
Q 1356 3103 1142 2972 
Q 928 2841 928 2578 
Q 928 2378 1081 2264 
Q 1234 2150 1697 2047 
L 1894 2003 
Q 2506 1872 2764 1633 
Q 3022 1394 3022 966 
Q 3022 478 2636 193 
Q 2250 -91 1575 -91 
Q 1294 -91 989 -36 
Q 684 19 347 128 
L 347 722 
Q 666 556 975 473 
Q 1284 391 1588 391 
Q 1994 391 2212 530 
Q 2431 669 2431 922 
Q 2431 1156 2273 1281 
Q 2116 1406 1581 1522 
L 1381 1569 
Q 847 1681 609 1914 
Q 372 2147 372 2553 
Q 372 3047 722 3315 
Q 1072 3584 1716 3584 
Q 2034 3584 2315 3537 
Q 2597 3491 2834 3397 
z
" transform="scale(0.015625)"/>
      <path id="DejaVuSans-70" d="M 1159 525 
L 1159 -1331 
L 581 -1331 
L 581 3500 
L 1159 3500 
L 1159 2969 
Q 1341 3281 1617 3432 
Q 1894 3584 2278 3584 
Q 2916 3584 3314 3078 
Q 3713 2572 3713 1747 
Q 3713 922 3314 415 
Q 2916 -91 2278 -91 
Q 1894 -91 1617 61 
Q 1341 213 1159 525 
z
M 3116 1747 
Q 3116 2381 2855 2742 
Q 2594 3103 2138 3103 
Q 1681 3103 1420 2742 
Q 1159 2381 1159 1747 
Q 1159 1113 1420 752 
Q 1681 391 2138 391 
Q 2594 391 2855 752 
Q 3116 1113 3116 1747 
z
" transform="scale(0.015625)"/>
      <path id="DejaVuSans-6b" d="M 581 4863 
L 1159 4863 
L 1159 1991 
L 2875 3500 
L 3609 3500 
L 1753 1863 
L 3688 0 
L 2938 0 
L 1159 1709 
L 1159 0 
L 581 0 
L 581 4863 
z
" transform="scale(0.015625)"/>
     </defs>
     <use xlink:href="#DejaVuSans-4b"/>
     <use xlink:href="#DejaVuSans-65" x="60.576172"/>
     <use xlink:href="#DejaVuSans-72" x="122.099609"/>
     <use xlink:href="#DejaVuSans-6e" x="161.462891"/>
     <use xlink:href="#DejaVuSans-65" x="224.841797"/>
     <use xlink:href="#DejaVuSans-6c" x="286.365234"/>
     <use xlink:href="#DejaVuSans-2d" x="314.148438"/>
     <use xlink:href="#DejaVuSans-77" x="350.232422"/>
     <use xlink:href="#DejaVuSans-65" x="432.019531"/>
     <use xlink:href="#DejaVuSans-69" x="493.542969"/>
     <use xlink:href="#DejaVuSans-67" x="521.326172"/>
     <use xlink:href="#DejaVuSans-68" x="584.802734"/>
     <use xlink:href="#DejaVuSans-74" x="648.181641"/>
     <use xlink:href="#DejaVuSans-65" x="687.390625"/>
     <use xlink:href="#DejaVuSans-64" x="748.914062"/>
     <use xlink:href="#DejaVuSans-20" x="812.390625"/>
     <use xlink:href="#DejaVuSans-69" x="844.177734"/>
     <use xlink:href="#DejaVuSans-6e" x="871.960938"/>
     <use xlink:href="#DejaVuSans-74" x="935.339844"/>
     <use xlink:href="#DejaVuSans-65" x="974.548828"/>
     <use xlink:href="#DejaVuSans-67" x="1036.072266"/>
     <use xlink:href="#DejaVuSans-72" x="1099.548828"/>
     <use xlink:href="#DejaVuSans-61" x="1140.662109"/>
     <use xlink:href="#DejaVuSans-6e" x="1201.941406"/>
     <use xlink:href="#DejaVuSans-64" x="1265.320312"/>
     <use xlink:href="#DejaVuSans-20" x="1328.796875"/>
     <use xlink:href="#DejaVuSans-28" x="1360.583984"/>
     <use xlink:href="#DejaVuSans-73" x="1399.597656"/>
     <use xlink:href="#DejaVuSans-69" x="1451.697266"/>
     <use xlink:href="#DejaVuSans-6e" x="1479.480469"/>
     <use xlink:href="#DejaVuSans-67" x="1542.859375"/>
     <use xlink:href="#DejaVuSans-6c" x="1606.335938"/>
     <use xlink:href="#DejaVuSans-65" x="1634.119141"/>
     <use xlink:href="#DejaVuSans-20" x="1695.642578"/>
     <use xlink:href="#DejaVuSans-70" x="1727.429688"/>
     <use xlink:href="#DejaVuSans-65" x="1790.90625"/>
     <use xlink:href="#DejaVuSans-61" x="1852.429688"/>
     <use xlink:href="#DejaVuSans-6b" x="1913.708984"/>
     <use xlink:href="#DejaVuSans-29" x="1971.619141"/>
    </g>
   </g>
   <g id="legend_1">
    <g id="line2d_19">
     <path d="M 298.4 37.35875 
L 306.4 37.35875 
L 314.4 37.35875 
" style="fill: none; stroke: #1f77b4; stroke-opacity: 0.75; stroke-width: 2; stroke-linecap: square"/>
    </g>
    <g id="text_16">
     <!-- $\tau=0$ -->
     <g transform="translate(320.8 40.15875) scale(0.08 -0.08)">
      <defs>
       <path id="DejaVuSans-3d" d="M 678 2906 
L 4684 2906 
L 4684 2381 
L 678 2381 
L 678 2906 
z
M 678 1631 
L 4684 1631 
L 4684 1100 
L 678 1100 
L 678 1631 
z
" transform="scale(0.015625)"/>
      </defs>
      <use xlink:href="#DejaVuSans-Oblique-3c4" transform="translate(0 0.78125)"/>
      <use xlink:href="#DejaVuSans-3d" transform="translate(79.6875 0.78125)"/>
      <use xlink:href="#DejaVuSans-30" transform="translate(182.958984 0.78125)"/>
     </g>
    </g>
    <g id="line2d_20">
     <path d="M 298.4 49.10125 
L 306.4 49.10125 
L 314.4 49.10125 
" style="fill: none; stroke: #ff7f0e; stroke-opacity: 0.75; stroke-width: 2; stroke-linecap: square"/>
    </g>
    <g id="text_17">
     <!-- $\tau=4$ -->
     <g transform="translate(320.8 51.90125) scale(0.08 -0.08)">
      <defs>
       <path id="DejaVuSans-34" d="M 2419 4116 
L 825 1625 
L 2419 1625 
L 2419 4116 
z
M 2253 4666 
L 3047 4666 
L 3047 1625 
L 3713 1625 
L 3713 1100 
L 3047 1100 
L 3047 0 
L 2419 0 
L 2419 1100 
L 313 1100 
L 313 1709 
L 2253 4666 
z
" transform="scale(0.015625)"/>
      </defs>
      <use xlink:href="#DejaVuSans-Oblique-3c4" transform="translate(0 0.09375)"/>
      <use xlink:href="#DejaVuSans-3d" transform="translate(79.6875 0.09375)"/>
      <use xlink:href="#DejaVuSans-34" transform="translate(182.958984 0.09375)"/>
     </g>
    </g>
    <g id="line2d_21">
     <path d="M 298.4 60.84375 
L 306.4 60.84375 
L 314.4 60.84375 
" style="fill: none; stroke: #2ca02c; stroke-opacity: 0.75; stroke-width: 2; stroke-linecap: square"/>
    </g>
    <g id="text_18">
     <!-- $\tau=16$ -->
     <g transform="translate(320.8 63.64375) scale(0.08 -0.08)">
      <defs>
       <path id="DejaVuSans-36" d="M 2113 2584 
Q 1688 2584 1439 2293 
Q 1191 2003 1191 1497 
Q 1191 994 1439 701 
Q 1688 409 2113 409 
Q 2538 409 2786 701 
Q 3034 994 3034 1497 
Q 3034 2003 2786 2293 
Q 2538 2584 2113 2584 
z
M 3366 4563 
L 3366 3988 
Q 3128 4100 2886 4159 
Q 2644 4219 2406 4219 
Q 1781 4219 1451 3797 
Q 1122 3375 1075 2522 
Q 1259 2794 1537 2939 
Q 1816 3084 2150 3084 
Q 2853 3084 3261 2657 
Q 3669 2231 3669 1497 
Q 3669 778 3244 343 
Q 2819 -91 2113 -91 
Q 1303 -91 875 529 
Q 447 1150 447 2328 
Q 447 3434 972 4092 
Q 1497 4750 2381 4750 
Q 2619 4750 2861 4703 
Q 3103 4656 3366 4563 
z
" transform="scale(0.015625)"/>
      </defs>
      <use xlink:href="#DejaVuSans-Oblique-3c4" transform="translate(0 0.78125)"/>
      <use xlink:href="#DejaVuSans-3d" transform="translate(79.6875 0.78125)"/>
      <use xlink:href="#DejaVuSans-31" transform="translate(182.958984 0.78125)"/>
      <use xlink:href="#DejaVuSans-36" transform="translate(246.582031 0.78125)"/>
     </g>
    </g>
    <g id="line2d_22">
     <path d="M 361.68 37.35875 
L 369.68 37.35875 
L 377.68 37.35875 
" style="fill: none; stroke: #d62728; stroke-opacity: 0.75; stroke-width: 2; stroke-linecap: square"/>
    </g>
    <g id="text_19">
     <!-- $\tau=32$ -->
     <g transform="translate(384.08 40.15875) scale(0.08 -0.08)">
      <use xlink:href="#DejaVuSans-Oblique-3c4" transform="translate(0 0.78125)"/>
      <use xlink:href="#DejaVuSans-3d" transform="translate(79.6875 0.78125)"/>
      <use xlink:href="#DejaVuSans-33" transform="translate(182.958984 0.78125)"/>
      <use xlink:href="#DejaVuSans-32" transform="translate(246.582031 0.78125)"/>
     </g>
    </g>
    <g id="line2d_23">
     <path d="M 361.68 49.10125 
L 369.68 49.10125 
L 377.68 49.10125 
" style="fill: none; stroke: #9467bd; stroke-opacity: 0.75; stroke-width: 2; stroke-linecap: square"/>
    </g>
    <g id="text_20">
     <!-- $\tau=64$ -->
     <g transform="translate(384.08 51.90125) scale(0.08 -0.08)">
      <use xlink:href="#DejaVuSans-Oblique-3c4" transform="translate(0 0.78125)"/>
      <use xlink:href="#DejaVuSans-3d" transform="translate(79.6875 0.78125)"/>
      <use xlink:href="#DejaVuSans-36" transform="translate(182.958984 0.78125)"/>
      <use xlink:href="#DejaVuSans-34" transform="translate(246.582031 0.78125)"/>
     </g>
    </g>
    <g id="line2d_24">
     <path d="M 361.68 60.84375 
L 369.68 60.84375 
L 377.68 60.84375 
" style="fill: none; stroke: #8c564b; stroke-opacity: 0.75; stroke-width: 2; stroke-linecap: square"/>
    </g>
    <g id="text_21">
     <!-- $\tau=128$ -->
     <g transform="translate(384.08 63.64375) scale(0.08 -0.08)">
      <defs>
       <path id="DejaVuSans-38" d="M 2034 2216 
Q 1584 2216 1326 1975 
Q 1069 1734 1069 1313 
Q 1069 891 1326 650 
Q 1584 409 2034 409 
Q 2484 409 2743 651 
Q 3003 894 3003 1313 
Q 3003 1734 2745 1975 
Q 2488 2216 2034 2216 
z
M 1403 2484 
Q 997 2584 770 2862 
Q 544 3141 544 3541 
Q 544 4100 942 4425 
Q 1341 4750 2034 4750 
Q 2731 4750 3128 4425 
Q 3525 4100 3525 3541 
Q 3525 3141 3298 2862 
Q 3072 2584 2669 2484 
Q 3125 2378 3379 2068 
Q 3634 1759 3634 1313 
Q 3634 634 3220 271 
Q 2806 -91 2034 -91 
Q 1263 -91 848 271 
Q 434 634 434 1313 
Q 434 1759 690 2068 
Q 947 2378 1403 2484 
z
M 1172 3481 
Q 1172 3119 1398 2916 
Q 1625 2713 2034 2713 
Q 2441 2713 2670 2916 
Q 2900 3119 2900 3481 
Q 2900 3844 2670 4047 
Q 2441 4250 2034 4250 
Q 1625 4250 1398 4047 
Q 1172 3844 1172 3481 
z
" transform="scale(0.015625)"/>
      </defs>
      <use xlink:href="#DejaVuSans-Oblique-3c4" transform="translate(0 0.78125)"/>
      <use xlink:href="#DejaVuSans-3d" transform="translate(79.6875 0.78125)"/>
      <use xlink:href="#DejaVuSans-31" transform="translate(182.958984 0.78125)"/>
      <use xlink:href="#DejaVuSans-32" transform="translate(246.582031 0.78125)"/>
      <use xlink:href="#DejaVuSans-38" transform="translate(310.205078 0.78125)"/>
     </g>
    </g>
   </g>
  </g>
 </g>
 <defs>
  <clipPath id="pde91ee56e3">
   <rect x="53.75" y="26.88" width="367.45" height="218.44"/>
  </clipPath>
 </defs>
</svg>
