<?xml version="1.0" encoding="utf-8" standalone="no"?>
<!DOCTYPE svg PUBLIC "-//W3C//DTD SVG 1.1//EN"
  "http://www.w3.org/Graphics/SVG/1.1/DTD/svg11.dtd">
<svg xmlns:xlink="http://www.w3.org/1999/xlink" width="1008pt" height="338.4pt" viewBox="0 0 1008 338.4" xmlns="http://www.w3.org/2000/svg" version="1.1">
 <metadata>
  <rdf:RDF xmlns:dc="http://purl.org/dc/elements/1.1/" xmlns:cc="http://creativecommons.org/ns#" xmlns:rdf="http://www.w3.org/1999/02/22-rdf-syntax-ns#">
   <cc:Work>
    <dc:type rdf:resource="http://purl.org/dc/dcmitype/StillImage"/>
    <dc:date>2025-11-23T15:35:02.861056</dc:date>
    <dc:format>image/svg+xml</dc:format>
    <dc:creator>
     <cc:Agent>
      <dc:title>Matplotlib v3.7.2, https://matplotlib.org/</dc:title>
     </cc:Agent>
    </dc:creator>
   </cc:Work>
  </rdf:RDF>
 </metadata>
 <defs>
  <style type="text/css">*{stroke-linejoin: round; stroke-linecap: butt}</style>
 </defs>
 <g id="figure_1">
  <g id="patch_1">
   <path d="M 0 338.4 
L 1008 338.4 
L 1008 0 
L 0 0 
L 0 338.4 
z
" style="fill: none"/>
  </g>
  <g id="axes_1">
   <g id="patch_2">
    <path d="M 69.68 284.92 
L 494.91 284.92 
L 494.91 21.72 
L 69.68 21.72 
L 69.68 284.92 
z
" style="fill: none"/>
   </g>
   <g id="matplotlib.axis_1">
    <g id="xtick_1">
     <g id="line2d_1">
      <defs>
       <path id="m1b214c60da" d="M 0 0 
L 0 3.5 
" style="stroke: #000000; stroke-width: 0.8"/>
      </defs>
      <g>
       <use xlink:href="#m1b214c60da" x="88.975646" y="284.92" style="stroke: #000000; stroke-width: 0.8"/>
      </g>
     </g>
     <g id="text_1">
      <!-- 0.0 -->
      <g transform="translate(79.433771 301.038125) scale(0.12 -0.12)">
       <defs>
        <path id="DejaVuSans-30" d="M 2034 4250 
Q 1547 4250 1301 3770 
Q 1056 3291 1056 2328 
Q 1056 1369 1301 889 
Q 1547 409 2034 409 
Q 2525 409 2770 889 
Q 3016 1369 3016 2328 
Q 3016 3291 2770 3770 
Q 2525 4250 2034 4250 
z
M 2034 4750 
Q 2819 4750 3233 4129 
Q 3647 3509 3647 2328 
Q 3647 1150 3233 529 
Q 2819 -91 2034 -91 
Q 1250 -91 836 529 
Q 422 1150 422 2328 
Q 422 3509 836 4129 
Q 1250 4750 2034 4750 
z
" transform="scale(0.015625)"/>
        <path id="DejaVuSans-2e" d="M 684 794 
L 1344 794 
L 1344 0 
L 684 0 
L 684 794 
z
" transform="scale(0.015625)"/>
       </defs>
       <use xlink:href="#DejaVuSans-30"/>
       <use xlink:href="#DejaVuSans-2e" x="63.623047"/>
       <use xlink:href="#DejaVuSans-30" x="95.410156"/>
      </g>
     </g>
    </g>
    <g id="xtick_2">
     <g id="line2d_2">
      <g>
       <use xlink:href="#m1b214c60da" x="153.409932" y="284.92" style="stroke: #000000; stroke-width: 0.8"/>
      </g>
     </g>
     <g id="text_2">
      <!-- 0.5 -->
      <g transform="translate(143.868057 301.038125) scale(0.12 -0.12)">
       <defs>
        <path id="DejaVuSans-35" d="M 691 4666 
L 3169 4666 
L 3169 4134 
L 1269 4134 
L 1269 2991 
Q 1406 3038 1543 3061 
Q 1681 3084 1819 3084 
Q 2600 3084 3056 2656 
Q 3513 2228 3513 1497 
Q 3513 744 3044 326 
Q 2575 -91 1722 -91 
Q 1428 -91 1123 -41 
Q 819 9 494 109 
L 494 744 
Q 775 591 1075 516 
Q 1375 441 1709 441 
Q 2250 441 2565 725 
Q 2881 1009 2881 1497 
Q 2881 1984 2565 2268 
Q 2250 2553 1709 2553 
Q 1456 2553 1204 2497 
Q 953 2441 691 2322 
L 691 4666 
z
" transform="scale(0.015625)"/>
       </defs>
       <use xlink:href="#DejaVuSans-30"/>
       <use xlink:href="#DejaVuSans-2e" x="63.623047"/>
       <use xlink:href="#DejaVuSans-35" x="95.410156"/>
      </g>
     </g>
    </g>
    <g id="xtick_3">
     <g id="line2d_3">
      <g>
       <use xlink:href="#m1b214c60da" x="217.844219" y="284.92" style="stroke: #000000; stroke-width: 0.8"/>
      </g>
     </g>
     <g id="text_3">
      <!-- 1.0 -->
      <g transform="translate(208.302344 301.038125) scale(0.12 -0.12)">
       <defs>
        <path id="DejaVuSans-31" d="M 794 531 
L 1825 531 
L 1825 4091 
L 703 3866 
L 703 4441 
L 1819 4666 
L 2450 4666 
L 2450 531 
L 3481 531 
L 3481 0 
L 794 0 
L 794 531 
z
" transform="scale(0.015625)"/>
       </defs>
       <use xlink:href="#DejaVuSans-31"/>
       <use xlink:href="#DejaVuSans-2e" x="63.623047"/>
       <use xlink:href="#DejaVuSans-30" x="95.410156"/>
      </g>
     </g>
    </g>
    <g id="xtick_4">
     <g id="line2d_4">
      <g>
       <use xlink:href="#m1b214c60da" x="282.278505" y="284.92" style="stroke: #000000; stroke-width: 0.8"/>
      </g>
     </g>
     <g id="text_4">
      <!-- 1.5 -->
      <g transform="translate(272.73663 301.038125) scale(0.12 -0.12)">
       <use xlink:href="#DejaVuSans-31"/>
       <use xlink:href="#DejaVuSans-2e" x="63.623047"/>
       <use xlink:href="#DejaVuSans-35" x="95.410156"/>
      </g>
     </g>
    </g>
    <g id="xtick_5">
     <g id="line2d_5">
      <g>
       <use xlink:href="#m1b214c60da" x="346.712791" y="284.92" style="stroke: #000000; stroke-width: 0.8"/>
      </g>
     </g>
     <g id="text_5">
      <!-- 2.0 -->
      <g transform="translate(337.170916 301.038125) scale(0.12 -0.12)">
       <defs>
        <path id="DejaVuSans-32" d="M 1228 531 
L 3431 531 
L 3431 0 
L 469 0 
L 469 531 
Q 828 903 1448 1529 
Q 2069 2156 2228 2338 
Q 2531 2678 2651 2914 
Q 2772 3150 2772 3378 
Q 2772 3750 2511 3984 
Q 2250 4219 1831 4219 
Q 1534 4219 1204 4116 
Q 875 4013 500 3803 
L 500 4441 
Q 881 4594 1212 4672 
Q 1544 4750 1819 4750 
Q 2544 4750 2975 4387 
Q 3406 4025 3406 3419 
Q 3406 3131 3298 2873 
Q 3191 2616 2906 2266 
Q 2828 2175 2409 1742 
Q 1991 1309 1228 531 
z
" transform="scale(0.015625)"/>
       </defs>
       <use xlink:href="#DejaVuSans-32"/>
       <use xlink:href="#DejaVuSans-2e" x="63.623047"/>
       <use xlink:href="#DejaVuSans-30" x="95.410156"/>
      </g>
     </g>
    </g>
    <g id="xtick_6">
     <g id="line2d_6">
      <g>
       <use xlink:href="#m1b214c60da" x="411.147077" y="284.92" style="stroke: #000000; stroke-width: 0.8"/>
      </g>
     </g>
     <g id="text_6">
      <!-- 2.5 -->
      <g transform="translate(401.605202 301.038125) scale(0.12 -0.12)">
       <use xlink:href="#DejaVuSans-32"/>
       <use xlink:href="#DejaVuSans-2e" x="63.623047"/>
       <use xlink:href="#DejaVuSans-35" x="95.410156"/>
      </g>
     </g>
    </g>
    <g id="xtick_7">
     <g id="line2d_7">
      <g>
       <use xlink:href="#m1b214c60da" x="475.581364" y="284.92" style="stroke: #000000; stroke-width: 0.8"/>
      </g>
     </g>
     <g id="text_7">
      <!-- 3.0 -->
      <g transform="translate(466.039489 301.038125) scale(0.12 -0.12)">
       <defs>
        <path id="DejaVuSans-33" d="M 2597 2516 
Q 3050 2419 3304 2112 
Q 3559 1806 3559 1356 
Q 3559 666 3084 287 
Q 2609 -91 1734 -91 
Q 1441 -91 1130 -33 
Q 819 25 488 141 
L 488 750 
Q 750 597 1062 519 
Q 1375 441 1716 441 
Q 2309 441 2620 675 
Q 2931 909 2931 1356 
Q 2931 1769 2642 2001 
Q 2353 2234 1838 2234 
L 1294 2234 
L 1294 2753 
L 1863 2753 
Q 2328 2753 2575 2939 
Q 2822 3125 2822 3475 
Q 2822 3834 2567 4026 
Q 2313 4219 1838 4219 
Q 1578 4219 1281 4162 
Q 984 4106 628 3988 
L 628 4550 
Q 988 4650 1302 4700 
Q 1616 4750 1894 4750 
Q 2613 4750 3031 4423 
Q 3450 4097 3450 3541 
Q 3450 3153 3228 2886 
Q 3006 2619 2597 2516 
z
" transform="scale(0.015625)"/>
       </defs>
       <use xlink:href="#DejaVuSans-33"/>
       <use xlink:href="#DejaVuSans-2e" x="63.623047"/>
       <use xlink:href="#DejaVuSans-30" x="95.410156"/>
      </g>
     </g>
    </g>
    <g id="text_8">
     <!-- $\omega/T$ -->
     <g transform="translate(267.855 321.970781) scale(0.19 -0.19)">
      <defs>
       <path id="STIXGeneral-Italic-3c9" d="M 3021 2810 
L 3136 2810 
Q 3648 2810 3898 2598 
Q 4186 2355 4186 1824 
Q 4186 1357 3910 838 
Q 3667 390 3334 160 
Q 3002 -70 2669 -70 
Q 2438 -70 2281 3 
Q 2125 77 2064 160 
Q 2003 243 1939 384 
Q 1741 147 1533 38 
Q 1325 -70 998 -70 
Q 659 -70 416 160 
Q 173 390 173 832 
Q 173 1101 237 1350 
Q 403 1965 883 2387 
Q 1363 2810 2010 2810 
L 2125 2810 
L 2125 2707 
Q 1606 2707 1267 2291 
Q 1024 1990 867 1526 
Q 710 1062 710 666 
Q 710 64 1075 64 
Q 1286 64 1523 285 
Q 1760 506 1856 774 
Q 1837 915 1837 1101 
Q 1837 1363 1914 1651 
Q 1984 1920 2125 2105 
Q 2266 2291 2432 2291 
Q 2656 2291 2656 1997 
Q 2656 1530 2387 1062 
Q 2272 864 2189 736 
Q 2176 691 2176 602 
Q 2176 384 2288 224 
Q 2400 64 2592 64 
Q 3040 64 3341 627 
Q 3482 896 3565 1270 
Q 3648 1645 3648 1971 
Q 3648 2240 3616 2362 
Q 3565 2566 3411 2636 
Q 3258 2707 3021 2707 
L 3021 2810 
z
" transform="scale(0.015625)"/>
       <path id="STIXGeneral-Regular-2f" d="M 1837 4326 
L 378 -90 
L -58 -90 
L 1408 4326 
L 1837 4326 
z
" transform="scale(0.015625)"/>
       <path id="STIXGeneral-Italic-54" d="M 4051 4179 
L 3770 3130 
L 3661 3142 
Q 3680 3302 3680 3437 
Q 3680 3955 3034 3955 
L 2662 3955 
L 1786 819 
Q 1696 506 1696 397 
Q 1696 250 1766 195 
Q 1837 141 2035 122 
L 2259 102 
L 2259 0 
L 416 0 
L 416 102 
Q 749 134 889 230 
Q 1030 326 1101 582 
L 2016 3955 
Q 1254 3955 988 3817 
Q 723 3680 493 3162 
L 378 3187 
L 646 4179 
L 4051 4179 
z
" transform="scale(0.015625)"/>
      </defs>
      <use xlink:href="#STIXGeneral-Italic-3c9" transform="translate(0 0.40625)"/>
      <use xlink:href="#STIXGeneral-Regular-2f" transform="translate(68.599991 0.40625)"/>
      <use xlink:href="#STIXGeneral-Italic-54" transform="translate(96.399979 0.40625)"/>
     </g>
    </g>
   </g>
   <g id="matplotlib.axis_2">
    <g id="ytick_1">
     <g id="line2d_8">
      <defs>
       <path id="m64440b4c73" d="M 0 0 
L -3.5 0 
" style="stroke: #000000; stroke-width: 0.8"/>
      </defs>
      <g>
       <use xlink:href="#m64440b4c73" x="69.68" y="271.448758" style="stroke: #000000; stroke-width: 0.8"/>
      </g>
     </g>
     <g id="text_9">
      <!-- −0.6 -->
      <g transform="translate(33.540625 276.007821) scale(0.12 -0.12)">
       <defs>
        <path id="DejaVuSans-2212" d="M 678 2272 
L 4684 2272 
L 4684 1741 
L 678 1741 
L 678 2272 
z
" transform="scale(0.015625)"/>
        <path id="DejaVuSans-36" d="M 2113 2584 
Q 1688 2584 1439 2293 
Q 1191 2003 1191 1497 
Q 1191 994 1439 701 
Q 1688 409 2113 409 
Q 2538 409 2786 701 
Q 3034 994 3034 1497 
Q 3034 2003 2786 2293 
Q 2538 2584 2113 2584 
z
M 3366 4563 
L 3366 3988 
Q 3128 4100 2886 4159 
Q 2644 4219 2406 4219 
Q 1781 4219 1451 3797 
Q 1122 3375 1075 2522 
Q 1259 2794 1537 2939 
Q 1816 3084 2150 3084 
Q 2853 3084 3261 2657 
Q 3669 2231 3669 1497 
Q 3669 778 3244 343 
Q 2819 -91 2113 -91 
Q 1303 -91 875 529 
Q 447 1150 447 2328 
Q 447 3434 972 4092 
Q 1497 4750 2381 4750 
Q 2619 4750 2861 4703 
Q 3103 4656 3366 4563 
z
" transform="scale(0.015625)"/>
       </defs>
       <use xlink:href="#DejaVuSans-2212"/>
       <use xlink:href="#DejaVuSans-30" x="83.789062"/>
       <use xlink:href="#DejaVuSans-2e" x="147.412109"/>
       <use xlink:href="#DejaVuSans-36" x="179.199219"/>
      </g>
     </g>
    </g>
    <g id="ytick_2">
     <g id="line2d_9">
      <g>
       <use xlink:href="#m64440b4c73" x="69.68" y="239.983268" style="stroke: #000000; stroke-width: 0.8"/>
      </g>
     </g>
     <g id="text_10">
      <!-- −0.4 -->
      <g transform="translate(33.540625 244.542331) scale(0.12 -0.12)">
       <defs>
        <path id="DejaVuSans-34" d="M 2419 4116 
L 825 1625 
L 2419 1625 
L 2419 4116 
z
M 2253 4666 
L 3047 4666 
L 3047 1625 
L 3713 1625 
L 3713 1100 
L 3047 1100 
L 3047 0 
L 2419 0 
L 2419 1100 
L 313 1100 
L 313 1709 
L 2253 4666 
z
" transform="scale(0.015625)"/>
       </defs>
       <use xlink:href="#DejaVuSans-2212"/>
       <use xlink:href="#DejaVuSans-30" x="83.789062"/>
       <use xlink:href="#DejaVuSans-2e" x="147.412109"/>
       <use xlink:href="#DejaVuSans-34" x="179.199219"/>
      </g>
     </g>
    </g>
    <g id="ytick_3">
     <g id="line2d_10">
      <g>
       <use xlink:href="#m64440b4c73" x="69.68" y="208.517778" style="stroke: #000000; stroke-width: 0.8"/>
      </g>
     </g>
     <g id="text_11">
      <!-- −0.2 -->
      <g transform="translate(33.540625 213.07684) scale(0.12 -0.12)">
       <use xlink:href="#DejaVuSans-2212"/>
       <use xlink:href="#DejaVuSans-30" x="83.789062"/>
       <use xlink:href="#DejaVuSans-2e" x="147.412109"/>
       <use xlink:href="#DejaVuSans-32" x="179.199219"/>
      </g>
     </g>
    </g>
    <g id="ytick_4">
     <g id="line2d_11">
      <g>
       <use xlink:href="#m64440b4c73" x="69.68" y="177.052288" style="stroke: #000000; stroke-width: 0.8"/>
      </g>
     </g>
     <g id="text_12">
      <!-- 0.0 -->
      <g transform="translate(43.59625 181.61135) scale(0.12 -0.12)">
       <use xlink:href="#DejaVuSans-30"/>
       <use xlink:href="#DejaVuSans-2e" x="63.623047"/>
       <use xlink:href="#DejaVuSans-30" x="95.410156"/>
      </g>
     </g>
    </g>
    <g id="ytick_5">
     <g id="line2d_12">
      <g>
       <use xlink:href="#m64440b4c73" x="69.68" y="145.586798" style="stroke: #000000; stroke-width: 0.8"/>
      </g>
     </g>
     <g id="text_13">
      <!-- 0.2 -->
      <g transform="translate(43.59625 150.14586) scale(0.12 -0.12)">
       <use xlink:href="#DejaVuSans-30"/>
       <use xlink:href="#DejaVuSans-2e" x="63.623047"/>
       <use xlink:href="#DejaVuSans-32" x="95.410156"/>
      </g>
     </g>
    </g>
    <g id="ytick_6">
     <g id="line2d_13">
      <g>
       <use xlink:href="#m64440b4c73" x="69.68" y="114.121308" style="stroke: #000000; stroke-width: 0.8"/>
      </g>
     </g>
     <g id="text_14">
      <!-- 0.4 -->
      <g transform="translate(43.59625 118.68037) scale(0.12 -0.12)">
       <use xlink:href="#DejaVuSans-30"/>
       <use xlink:href="#DejaVuSans-2e" x="63.623047"/>
       <use xlink:href="#DejaVuSans-34" x="95.410156"/>
      </g>
     </g>
    </g>
    <g id="ytick_7">
     <g id="line2d_14">
      <g>
       <use xlink:href="#m64440b4c73" x="69.68" y="82.655817" style="stroke: #000000; stroke-width: 0.8"/>
      </g>
     </g>
     <g id="text_15">
      <!-- 0.6 -->
      <g transform="translate(43.59625 87.21488) scale(0.12 -0.12)">
       <use xlink:href="#DejaVuSans-30"/>
       <use xlink:href="#DejaVuSans-2e" x="63.623047"/>
       <use xlink:href="#DejaVuSans-36" x="95.410156"/>
      </g>
     </g>
    </g>
    <g id="ytick_8">
     <g id="line2d_15">
      <g>
       <use xlink:href="#m64440b4c73" x="69.68" y="51.190327" style="stroke: #000000; stroke-width: 0.8"/>
      </g>
     </g>
     <g id="text_16">
      <!-- 0.8 -->
      <g transform="translate(43.59625 55.74939) scale(0.12 -0.12)">
       <defs>
        <path id="DejaVuSans-38" d="M 2034 2216 
Q 1584 2216 1326 1975 
Q 1069 1734 1069 1313 
Q 1069 891 1326 650 
Q 1584 409 2034 409 
Q 2484 409 2743 651 
Q 3003 894 3003 1313 
Q 3003 1734 2745 1975 
Q 2488 2216 2034 2216 
z
M 1403 2484 
Q 997 2584 770 2862 
Q 544 3141 544 3541 
Q 544 4100 942 4425 
Q 1341 4750 2034 4750 
Q 2731 4750 3128 4425 
Q 3525 4100 3525 3541 
Q 3525 3141 3298 2862 
Q 3072 2584 2669 2484 
Q 3125 2378 3379 2068 
Q 3634 1759 3634 1313 
Q 3634 634 3220 271 
Q 2806 -91 2034 -91 
Q 1263 -91 848 271 
Q 434 634 434 1313 
Q 434 1759 690 2068 
Q 947 2378 1403 2484 
z
M 1172 3481 
Q 1172 3119 1398 2916 
Q 1625 2713 2034 2713 
Q 2441 2713 2670 2916 
Q 2900 3119 2900 3481 
Q 2900 3844 2670 4047 
Q 2441 4250 2034 4250 
Q 1625 4250 1398 4047 
Q 1172 3844 1172 3481 
z
" transform="scale(0.015625)"/>
       </defs>
       <use xlink:href="#DejaVuSans-30"/>
       <use xlink:href="#DejaVuSans-2e" x="63.623047"/>
       <use xlink:href="#DejaVuSans-38" x="95.410156"/>
      </g>
     </g>
    </g>
    <g id="text_17">
     <!-- $\Delta_\sigma(\omega, \bar{\omega})$ -->
     <g transform="translate(25.589219 187.235) rotate(-90) scale(0.19 -0.19)">
      <defs>
       <path id="STIXGeneral-Regular-394" d="M 4320 0 
L 307 0 
L 2221 4314 
L 2349 4314 
L 4320 0 
z
M 3354 589 
L 2118 3405 
L 870 589 
L 3354 589 
z
" transform="scale(0.015625)"/>
       <path id="STIXGeneral-Italic-3c3" d="M 3398 2739 
L 3283 2266 
L 2195 2266 
Q 2291 2112 2457 1981 
Q 2624 1850 2717 1725 
Q 2810 1600 2810 1389 
Q 2810 851 2288 390 
Q 1766 -70 1107 -70 
Q 659 -70 416 170 
Q 173 410 173 832 
Q 173 1274 409 1706 
Q 646 2138 1113 2438 
Q 1581 2739 2157 2739 
L 3398 2739 
z
M 2272 1414 
Q 2272 1709 2166 1939 
Q 2061 2170 1901 2266 
Q 1530 2266 1120 1770 
Q 710 1274 710 640 
Q 710 358 844 211 
Q 979 64 1210 64 
Q 1638 64 1955 525 
Q 2272 986 2272 1414 
z
" transform="scale(0.015625)"/>
       <path id="STIXGeneral-Regular-28" d="M 1946 -1030 
L 1869 -1133 
Q 1126 -710 716 32 
Q 307 774 307 1613 
Q 307 3386 1888 4326 
L 1946 4224 
Q 1293 3667 1075 3126 
Q 858 2586 858 1632 
Q 858 685 1082 96 
Q 1306 -493 1946 -1030 
z
" transform="scale(0.015625)"/>
       <path id="STIXGeneral-Regular-2c" d="M 531 -902 
L 467 -781 
Q 998 -422 998 -96 
Q 998 -13 909 -13 
Q 883 -13 822 -25 
Q 762 -38 723 -38 
Q 352 -38 352 288 
Q 352 454 457 553 
Q 563 653 736 653 
Q 954 653 1101 496 
Q 1248 339 1248 96 
Q 1248 -198 1053 -473 
Q 858 -749 531 -902 
z
" transform="scale(0.015625)"/>
       <path id="STIXGeneral-Regular-304" d="M -474 3501 
L -2464 3501 
L -2464 3846 
L -474 3846 
L -474 3501 
z
" transform="scale(0.015625)"/>
       <path id="STIXGeneral-Regular-29" d="M 186 4224 
L 262 4326 
Q 992 3891 1408 3148 
Q 1824 2406 1824 1581 
Q 1824 -166 243 -1133 
L 186 -1030 
Q 845 -486 1059 54 
Q 1274 595 1274 1562 
Q 1274 2534 1059 3120 
Q 845 3706 186 4224 
z
" transform="scale(0.015625)"/>
      </defs>
      <use xlink:href="#STIXGeneral-Regular-394" transform="translate(0 0.40625)"/>
      <use xlink:href="#STIXGeneral-Italic-3c3" transform="translate(73.743263 -12.821875) scale(0.7)"/>
      <use xlink:href="#STIXGeneral-Regular-28" transform="translate(113.012629 0.40625)"/>
      <use xlink:href="#STIXGeneral-Italic-3c9" transform="translate(146.312617 0.40625)"/>
      <use xlink:href="#STIXGeneral-Regular-2c" transform="translate(214.912608 0.40625)"/>
      <use xlink:href="#STIXGeneral-Regular-304" transform="translate(320.002587 2.109375)"/>
      <use xlink:href="#STIXGeneral-Italic-3c9" transform="translate(254.352589 0.40625)"/>
      <use xlink:href="#STIXGeneral-Regular-29" transform="translate(322.95258 0.40625)"/>
     </g>
    </g>
   </g>
   <g id="line2d_16">
    <path d="M 89.008636 115.296267 
L 103.839617 115.185077 
L 119.637835 114.837488 
L 137.692941 114.208883 
L 195.727212 111.996635 
L 208.94613 111.836194 
L 220.875397 111.915265 
L 231.837426 112.209321 
L 242.477042 112.720573 
L 252.794246 113.443339 
L 262.789037 114.363845 
L 272.783828 115.501915 
L 283.101032 116.898935 
L 293.740648 118.562158 
L 305.347502 120.608241 
L 318.244007 123.119016 
L 333.719812 126.371691 
L 389.497195 138.323936 
L 404.650588 141.199519 
L 422.383282 144.323307 
L 445.919403 148.476472 
L 455.269369 150.36135 
L 462.684859 152.067374 
L 469.133111 153.767021 
L 474.936538 155.519662 
L 475.581364 155.729616 
L 475.581364 155.729616 
" clip-path="url(#p3867e1a841)" style="fill: none; stroke: #440154; stroke-opacity: 0.85; stroke-width: 1.9; stroke-linecap: square"/>
   </g>
   <g id="line2d_17">
    <path d="M 89.008636 107.464344 
L 98.358602 107.351891 
L 108.030981 107.006129 
L 118.025772 106.421887 
L 128.987801 105.553021 
L 142.206718 104.268463 
L 183.15312 100.103196 
L 192.825499 99.442782 
L 201.53064 99.067586 
L 209.590955 98.944715 
L 217.006445 99.050085 
L 224.099523 99.367094 
L 231.1926 99.911549 
L 237.963265 100.654947 
L 244.73393 101.624794 
L 251.504595 102.825643 
L 258.27526 104.258601 
L 265.045925 105.921177 
L 271.81659 107.807178 
L 278.909668 110.011752 
L 286.325158 112.549806 
L 294.385473 115.55216 
L 303.090614 119.038507 
L 313.407817 123.42489 
L 327.916385 129.867385 
L 347.905967 138.719942 
L 357.900759 142.892525 
L 366.283487 146.160345 
L 374.021389 148.941547 
L 381.114467 151.264206 
L 388.207545 153.352277 
L 394.978209 155.119215 
L 402.071287 156.735879 
L 409.486777 158.186074 
L 417.547093 159.524659 
L 427.864296 160.992705 
L 443.340102 163.185326 
L 449.788354 164.33774 
L 454.946956 165.473633 
L 459.460733 166.683403 
L 463.652097 168.03566 
L 467.521048 169.521052 
L 471.067587 171.117888 
L 474.614126 172.974121 
L 475.581364 173.530043 
L 475.581364 173.530043 
" clip-path="url(#p3867e1a841)" style="fill: none; stroke: #3b528b; stroke-opacity: 0.85; stroke-width: 1.65; stroke-linecap: square"/>
   </g>
   <g id="line2d_18">
    <path d="M 89.008636 96.439418 
L 93.844826 96.332672 
L 99.003427 95.988284 
L 104.162029 95.411026 
L 109.320631 94.609545 
L 114.801646 93.525848 
L 120.605073 92.138083 
L 126.730913 90.434371 
L 133.501577 88.310306 
L 141.561893 85.5301 
L 153.49116 81.140615 
L 166.710077 76.32925 
L 174.125567 73.863191 
L 180.251407 72.047018 
L 185.732421 70.642349 
L 190.891023 69.547827 
L 195.727212 68.751188 
L 200.240989 68.230543 
L 204.432353 67.956768 
L 208.623717 67.899299 
L 212.815081 68.070899 
L 216.684033 68.442496 
L 220.552984 69.026837 
L 224.421935 69.830597 
L 228.290887 70.85921 
L 232.159838 72.11681 
L 236.02879 73.606159 
L 239.897741 75.328597 
L 243.766692 77.283988 
L 247.958056 79.663253 
L 252.14942 82.309786 
L 256.340784 85.217246 
L 260.854561 88.630309 
L 265.368338 92.322485 
L 270.204527 96.569278 
L 275.363129 101.404185 
L 280.844143 106.848828 
L 286.969983 113.252426 
L 294.385473 121.351083 
L 305.025089 133.352322 
L 318.244007 148.219175 
L 325.337084 155.850667 
L 331.140511 161.767508 
L 336.299113 166.703188 
L 340.81289 170.722663 
L 345.004254 174.169568 
L 348.873205 177.081402 
L 352.742157 179.712093 
L 356.288696 181.85981 
L 359.835234 183.741246 
L 363.05936 185.210568 
L 366.283487 186.442477 
L 369.507613 187.430902 
L 372.731739 188.171373 
L 375.633452 188.623519 
L 378.535166 188.871948 
L 381.43688 188.917359 
L 384.661006 188.732371 
L 387.885132 188.304636 
L 391.109258 187.641895 
L 394.333384 186.754609 
L 397.879923 185.535287 
L 401.426462 184.082628 
L 405.295413 182.263604 
L 409.80919 179.887607 
L 415.612617 176.557152 
L 427.541884 169.63466 
L 431.410835 167.680303 
L 434.634961 166.284415 
L 437.536675 165.267757 
L 440.115976 164.598779 
L 442.372864 164.227053 
L 444.629752 164.084171 
L 446.564228 164.166312 
L 448.498704 164.457996 
L 450.43318 164.979711 
L 452.367655 165.752829 
L 454.302131 166.799631 
L 456.236607 168.143322 
L 458.171082 169.808052 
L 460.105558 171.818941 
L 462.040034 174.202091 
L 463.974509 176.984611 
L 465.908985 180.194638 
L 467.843461 183.861352 
L 469.777937 188.015004 
L 471.712412 192.686931 
L 473.646888 197.909578 
L 475.581364 203.71652 
L 475.581364 203.71652 
" clip-path="url(#p3867e1a841)" style="fill: none; stroke: #21918c; stroke-opacity: 0.85; stroke-width: 1.4; stroke-linecap: square"/>
   </g>
   <g id="line2d_19">
    <path d="M 89.008636 109.450886 
L 92.232763 109.336608 
L 95.456889 108.99899 
L 98.681015 108.439897 
L 101.905141 107.662426 
L 105.129267 106.670885 
L 108.675806 105.339548 
L 112.222345 103.764848 
L 115.768884 101.957433 
L 119.637835 99.734762 
L 123.829199 97.051845 
L 128.020563 94.108033 
L 132.856752 90.424449 
L 138.015354 86.208331 
L 144.141194 80.90276 
L 152.523922 73.315855 
L 167.03249 60.157879 
L 173.158329 54.935914 
L 178.316931 50.834471 
L 182.830708 47.532057 
L 187.022072 44.750771 
L 190.891023 42.461611 
L 194.437562 40.623492 
L 197.661688 39.187144 
L 200.885814 37.990093 
L 204.10994 37.046735 
L 207.011654 36.425751 
L 209.913368 36.030236 
L 212.815081 35.868542 
L 215.716795 35.948246 
L 218.618508 36.276101 
L 221.197809 36.780643 
L 223.77711 37.489474 
L 226.356411 38.405558 
L 229.258125 39.686796 
L 232.159838 41.235726 
L 235.061552 43.05374 
L 237.963265 45.141174 
L 240.864979 47.497286 
L 243.766692 50.120232 
L 246.990818 53.343924 
L 250.214945 56.887636 
L 253.439071 60.743904 
L 256.98561 65.335725 
L 260.532148 70.279766 
L 264.4011 76.054516 
L 268.592464 82.729908 
L 273.10624 90.364097 
L 277.94243 98.996435 
L 283.423444 109.254466 
L 289.871696 121.811446 
L 300.1889 142.477637 
L 310.183691 162.355642 
L 316.309531 174.048566 
L 321.14572 182.830506 
L 325.337084 190.024067 
L 329.206036 196.252986 
L 332.752574 201.565949 
L 335.976701 206.02949 
L 339.200827 210.112145 
L 342.10254 213.436468 
L 345.004254 216.407979 
L 347.583555 218.737617 
L 350.162856 220.760813 
L 352.419744 222.270626 
L 354.676632 223.529901 
L 356.933521 224.532264 
L 359.190409 225.272085 
L 361.124885 225.693571 
L 363.05936 225.916066 
L 364.993836 225.937517 
L 366.928312 225.756395 
L 368.862788 225.371714 
L 370.797263 224.783071 
L 372.731739 223.990668 
L 374.988627 222.809821 
L 377.245516 221.355294 
L 379.502404 219.63088 
L 381.759292 217.641749 
L 384.338593 215.052878 
L 386.917894 212.139277 
L 389.819608 208.492179 
L 392.721321 204.479049 
L 395.945447 199.628233 
L 399.491986 193.873788 
L 403.68335 186.612188 
L 409.164365 176.608648 
L 419.481568 157.651275 
L 423.35052 151.080789 
L 426.252233 146.560421 
L 428.831534 142.932583 
L 431.088423 140.126541 
L 433.022898 138.041331 
L 434.957374 136.292375 
L 436.569437 135.121079 
L 438.1815 134.236102 
L 439.471151 133.751392 
L 440.760801 133.479757 
L 442.050452 133.435115 
L 443.340102 133.631794 
L 444.629752 134.084533 
L 445.919403 134.808492 
L 447.209053 135.819265 
L 448.498704 137.132871 
L 449.788354 138.765778 
L 451.078005 140.734892 
L 452.367655 143.057581 
L 453.979718 146.485348 
L 455.591781 150.529289 
L 457.203844 155.226397 
L 458.815908 160.614841 
L 460.427971 166.73399 
L 462.040034 173.624423 
L 463.974509 182.970013 
L 465.908985 193.561205 
L 467.843461 205.475312 
L 469.777937 218.792363 
L 471.712412 233.595144 
L 473.646888 249.969252 
L 475.581364 268.003146 
L 475.581364 268.003146 
" clip-path="url(#p3867e1a841)" style="fill: none; stroke: #5ec962; stroke-opacity: 0.85; stroke-width: 1.15; stroke-linecap: square"/>
   </g>
   <g id="line2d_20">
    <path d="M 89.008636 111.032143 
L 92.232763 110.912655 
L 95.456889 110.559637 
L 98.681015 109.975036 
L 101.905141 109.162074 
L 105.129267 108.125237 
L 108.353393 106.870264 
L 111.899932 105.246184 
L 115.446471 103.37754 
L 119.315422 101.074972 
L 123.184374 98.515024 
L 127.375738 95.475489 
L 131.889514 91.925259 
L 137.048116 87.56654 
L 142.851543 82.356614 
L 150.267034 75.381273 
L 168.644553 57.947206 
L 174.44798 52.82995 
L 179.284169 48.855063 
L 183.475533 45.677271 
L 187.344484 43.00188 
L 190.891023 40.794718 
L 194.437562 38.846245 
L 197.661688 37.318167 
L 200.885814 36.038207 
L 203.787528 35.110786 
L 206.689241 34.406715 
L 209.590955 33.935521 
L 212.492669 33.705976 
L 215.071969 33.711261 
L 217.65127 33.918821 
L 220.230571 34.333138 
L 222.809872 34.958117 
L 225.389173 35.797065 
L 227.968474 36.852664 
L 230.547775 38.126962 
L 233.449489 39.823659 
L 236.351202 41.799832 
L 239.252916 44.055318 
L 242.154629 46.588823 
L 245.056343 49.397895 
L 248.280469 52.837827 
L 251.504595 56.60676 
L 255.051134 61.122342 
L 258.597673 66.011729 
L 262.466624 71.752322 
L 266.335575 77.892712 
L 270.526939 84.962249 
L 275.040716 93.014219 
L 280.199318 102.699614 
L 286.002745 114.094303 
L 293.418235 129.183327 
L 312.44058 168.151051 
L 317.921594 178.73986 
L 322.435371 187.018271 
L 326.626735 194.25743 
L 330.495686 200.489138 
L 334.042225 205.770035 
L 337.266351 210.174761 
L 340.168065 213.789512 
L 343.069778 217.05042 
L 345.649079 219.635176 
L 348.22838 221.910308 
L 350.807681 223.863101 
L 353.064569 225.29818 
L 355.321458 226.470433 
L 357.578346 227.373506 
L 359.512822 227.929088 
L 361.447297 228.279805 
L 363.381773 228.423144 
L 365.316249 228.35711 
L 367.250724 228.080257 
L 369.1852 227.591719 
L 371.119676 226.891235 
L 373.054152 225.979189 
L 375.31104 224.649188 
L 377.567928 223.035579 
L 379.824817 221.142633 
L 382.081705 218.976066 
L 384.661006 216.174303 
L 387.240307 213.038047 
L 390.14202 209.130289 
L 393.043734 204.847591 
L 396.26786 199.689477 
L 399.814399 193.59147 
L 404.005763 185.923186 
L 409.80919 174.773873 
L 418.836743 157.38417 
L 422.705695 150.439027 
L 425.607408 145.635882 
L 428.186709 141.758159 
L 430.443597 138.736541 
L 432.378073 136.470196 
L 434.312549 134.544677 
L 435.924612 133.230618 
L 437.536675 132.207642 
L 438.826325 131.616483 
L 440.115976 131.24236 
L 441.405626 131.099615 
L 442.695277 131.20302 
L 443.984927 131.567773 
L 445.274578 132.209509 
L 446.564228 133.144305 
L 447.853879 134.388691 
L 449.143529 135.959652 
L 450.43318 137.874635 
L 451.72283 140.151557 
L 453.01248 142.80881 
L 454.624544 146.694025 
L 456.236607 151.240986 
L 457.84867 156.488854 
L 459.460733 162.478031 
L 461.072796 169.250176 
L 463.007272 178.470811 
L 464.941747 188.957486 
L 466.876223 200.789619 
L 468.810699 214.049429 
L 470.745174 228.821991 
L 472.67965 245.195286 
L 474.614126 263.260257 
L 475.581364 272.956364 
L 475.581364 272.956364 
" clip-path="url(#p3867e1a841)" style="fill: none; stroke: #fde725; stroke-opacity: 0.85; stroke-width: 0.9; stroke-linecap: square"/>
   </g>
   <g id="patch_3">
    <path d="M 69.68 284.92 
L 69.68 21.72 
" style="fill: none; stroke: #000000; stroke-width: 0.8; stroke-linejoin: miter; stroke-linecap: square"/>
   </g>
   <g id="patch_4">
    <path d="M 494.91 284.92 
L 494.91 21.72 
" style="fill: none; stroke: #000000; stroke-width: 0.8; stroke-linejoin: miter; stroke-linecap: square"/>
   </g>
   <g id="patch_5">
    <path d="M 69.68 284.92 
L 494.91 284.92 
" style="fill: none; stroke: #000000; stroke-width: 0.8; stroke-linejoin: miter; stroke-linecap: square"/>
   </g>
   <g id="patch_6">
    <path d="M 69.68 21.72 
L 494.91 21.72 
" style="fill: none; stroke: #000000; stroke-width: 0.8; stroke-linejoin: miter; stroke-linecap: square"/>
   </g>
   <g id="legend_1">
    <g id="line2d_21">
     <path d="M 394.03 38.747969 
L 407.03 38.747969 
L 420.03 38.747969 
" style="fill: none; stroke: #440154; stroke-opacity: 0.85; stroke-width: 1.9; stroke-linecap: square"/>
    </g>
    <g id="text_18">
     <!-- $\sigma/T=1.50$ -->
     <g transform="translate(430.43 43.297969) scale(0.13 -0.13)">
      <defs>
       <path id="STIXGeneral-Regular-3d" d="M 4077 2048 
L 307 2048 
L 307 2470 
L 4077 2470 
L 4077 2048 
z
M 4077 768 
L 307 768 
L 307 1190 
L 4077 1190 
L 4077 768 
z
" transform="scale(0.015625)"/>
       <path id="STIXGeneral-Regular-31" d="M 2522 0 
L 755 0 
L 755 96 
Q 1107 115 1235 227 
Q 1363 339 1363 608 
L 1363 3482 
Q 1363 3795 1171 3795 
Q 1082 3795 883 3718 
L 710 3654 
L 710 3744 
L 1856 4326 
L 1914 4307 
L 1914 486 
Q 1914 275 2042 185 
Q 2170 96 2522 96 
L 2522 0 
z
" transform="scale(0.015625)"/>
       <path id="STIXGeneral-Regular-2e" d="M 1158 275 
Q 1158 134 1052 32 
Q 947 -70 800 -70 
Q 653 -70 550 32 
Q 448 134 448 281 
Q 448 429 553 534 
Q 659 640 806 640 
Q 947 640 1052 531 
Q 1158 422 1158 275 
z
" transform="scale(0.015625)"/>
       <path id="STIXGeneral-Regular-35" d="M 2803 4358 
L 2573 3814 
Q 2534 3731 2400 3731 
L 1158 3731 
L 902 3187 
Q 1606 3053 1920 2896 
Q 2234 2739 2502 2368 
Q 2726 2061 2726 1555 
Q 2726 1094 2576 780 
Q 2426 467 2099 224 
Q 1664 -90 1011 -90 
Q 646 -90 422 19 
Q 198 128 198 307 
Q 198 550 486 550 
Q 717 550 960 352 
Q 1210 147 1414 147 
Q 1747 147 2012 480 
Q 2278 813 2278 1229 
Q 2278 1843 1850 2189 
Q 1293 2637 486 2637 
Q 410 2637 410 2688 
L 416 2720 
L 1114 4237 
L 2438 4237 
Q 2547 4237 2608 4269 
Q 2669 4301 2746 4403 
L 2803 4358 
z
" transform="scale(0.015625)"/>
       <path id="STIXGeneral-Regular-30" d="M 3046 2112 
Q 3046 1683 2963 1302 
Q 2880 922 2717 602 
Q 2554 282 2266 96 
Q 1978 -90 1600 -90 
Q 1210 -90 915 108 
Q 621 307 461 640 
Q 301 973 227 1350 
Q 154 1728 154 2150 
Q 154 2746 301 3222 
Q 448 3699 790 4012 
Q 1133 4326 1626 4326 
Q 2253 4326 2649 3712 
Q 3046 3098 3046 2112 
z
M 2432 2080 
Q 2432 3091 2217 3625 
Q 2003 4160 1587 4160 
Q 1190 4160 979 3622 
Q 768 3085 768 2106 
Q 768 1120 979 598 
Q 1190 77 1600 77 
Q 2003 77 2217 598 
Q 2432 1120 2432 2080 
z
" transform="scale(0.015625)"/>
      </defs>
      <use xlink:href="#STIXGeneral-Italic-3c3" transform="translate(0 0.203125)"/>
      <use xlink:href="#STIXGeneral-Regular-2f" transform="translate(49.799988 0.203125)"/>
      <use xlink:href="#STIXGeneral-Italic-54" transform="translate(77.599976 0.203125)"/>
      <use xlink:href="#STIXGeneral-Regular-3d" transform="translate(147.639963 0.203125)"/>
      <use xlink:href="#STIXGeneral-Regular-31" transform="translate(230.579944 0.203125)"/>
      <use xlink:href="#STIXGeneral-Regular-2e" transform="translate(280.579929 0.203125)"/>
      <use xlink:href="#STIXGeneral-Regular-35" transform="translate(305.579913 0.203125)"/>
      <use xlink:href="#STIXGeneral-Regular-30" transform="translate(355.579898 0.203125)"/>
     </g>
    </g>
    <g id="line2d_22">
     <path d="M 394.03 57.829531 
L 407.03 57.829531 
L 420.03 57.829531 
" style="fill: none; stroke: #3b528b; stroke-opacity: 0.85; stroke-width: 1.65; stroke-linecap: square"/>
    </g>
    <g id="text_19">
     <!-- $\sigma/T=1.00$ -->
     <g transform="translate(430.43 62.379531) scale(0.13 -0.13)">
      <use xlink:href="#STIXGeneral-Italic-3c3" transform="translate(0 0.40625)"/>
      <use xlink:href="#STIXGeneral-Regular-2f" transform="translate(49.799988 0.40625)"/>
      <use xlink:href="#STIXGeneral-Italic-54" transform="translate(77.599976 0.40625)"/>
      <use xlink:href="#STIXGeneral-Regular-3d" transform="translate(147.639963 0.40625)"/>
      <use xlink:href="#STIXGeneral-Regular-31" transform="translate(230.579944 0.40625)"/>
      <use xlink:href="#STIXGeneral-Regular-2e" transform="translate(280.579929 0.40625)"/>
      <use xlink:href="#STIXGeneral-Regular-30" transform="translate(305.579913 0.40625)"/>
      <use xlink:href="#STIXGeneral-Regular-30" transform="translate(355.579898 0.40625)"/>
     </g>
    </g>
    <g id="line2d_23">
     <path d="M 394.03 76.911094 
L 407.03 76.911094 
L 420.03 76.911094 
" style="fill: none; stroke: #21918c; stroke-opacity: 0.85; stroke-width: 1.4; stroke-linecap: square"/>
    </g>
    <g id="text_20">
     <!-- $\sigma/T=0.50$ -->
     <g transform="translate(430.43 81.461094) scale(0.13 -0.13)">
      <use xlink:href="#STIXGeneral-Italic-3c3" transform="translate(0 0.203125)"/>
      <use xlink:href="#STIXGeneral-Regular-2f" transform="translate(49.799988 0.203125)"/>
      <use xlink:href="#STIXGeneral-Italic-54" transform="translate(77.599976 0.203125)"/>
      <use xlink:href="#STIXGeneral-Regular-3d" transform="translate(147.639963 0.203125)"/>
      <use xlink:href="#STIXGeneral-Regular-30" transform="translate(230.579944 0.203125)"/>
      <use xlink:href="#STIXGeneral-Regular-2e" transform="translate(280.579929 0.203125)"/>
      <use xlink:href="#STIXGeneral-Regular-35" transform="translate(305.579913 0.203125)"/>
      <use xlink:href="#STIXGeneral-Regular-30" transform="translate(355.579898 0.203125)"/>
     </g>
    </g>
    <g id="line2d_24">
     <path d="M 394.03 95.992656 
L 407.03 95.992656 
L 420.03 95.992656 
" style="fill: none; stroke: #5ec962; stroke-opacity: 0.85; stroke-width: 1.15; stroke-linecap: square"/>
    </g>
    <g id="text_21">
     <!-- $\sigma/T=0.10$ -->
     <g transform="translate(430.43 100.542656) scale(0.13 -0.13)">
      <use xlink:href="#STIXGeneral-Italic-3c3" transform="translate(0 0.40625)"/>
      <use xlink:href="#STIXGeneral-Regular-2f" transform="translate(49.799988 0.40625)"/>
      <use xlink:href="#STIXGeneral-Italic-54" transform="translate(77.599976 0.40625)"/>
      <use xlink:href="#STIXGeneral-Regular-3d" transform="translate(147.639963 0.40625)"/>
      <use xlink:href="#STIXGeneral-Regular-30" transform="translate(230.579944 0.40625)"/>
      <use xlink:href="#STIXGeneral-Regular-2e" transform="translate(280.579929 0.40625)"/>
      <use xlink:href="#STIXGeneral-Regular-31" transform="translate(305.579913 0.40625)"/>
      <use xlink:href="#STIXGeneral-Regular-30" transform="translate(355.579898 0.40625)"/>
     </g>
    </g>
    <g id="line2d_25">
     <path d="M 394.03 115.074219 
L 407.03 115.074219 
L 420.03 115.074219 
" style="fill: none; stroke: #fde725; stroke-opacity: 0.85; stroke-width: 0.9; stroke-linecap: square"/>
    </g>
    <g id="text_22">
     <!-- $\sigma/T=0.01$ -->
     <g transform="translate(430.43 119.624219) scale(0.13 -0.13)">
      <use xlink:href="#STIXGeneral-Italic-3c3" transform="translate(0 0.40625)"/>
      <use xlink:href="#STIXGeneral-Regular-2f" transform="translate(49.799988 0.40625)"/>
      <use xlink:href="#STIXGeneral-Italic-54" transform="translate(77.599976 0.40625)"/>
      <use xlink:href="#STIXGeneral-Regular-3d" transform="translate(147.639963 0.40625)"/>
      <use xlink:href="#STIXGeneral-Regular-30" transform="translate(230.579944 0.40625)"/>
      <use xlink:href="#STIXGeneral-Regular-2e" transform="translate(280.579929 0.40625)"/>
      <use xlink:href="#STIXGeneral-Regular-30" transform="translate(305.579913 0.40625)"/>
      <use xlink:href="#STIXGeneral-Regular-31" transform="translate(355.579898 0.40625)"/>
     </g>
    </g>
   </g>
  </g>
  <g id="axes_2">
   <g id="patch_7">
    <path d="M 564.41 284.92 
L 989.64 284.92 
L 989.64 21.72 
L 564.41 21.72 
L 564.41 284.92 
z
" style="fill: none"/>
   </g>
   <g id="matplotlib.axis_3">
    <g id="xtick_8">
     <g id="line2d_26">
      <g>
       <use xlink:href="#m1b214c60da" x="564.41" y="284.92" style="stroke: #000000; stroke-width: 0.8"/>
      </g>
     </g>
     <g id="text_23">
      <!-- 0 -->
      <g transform="translate(560.5925 301.038125) scale(0.12 -0.12)">
       <use xlink:href="#DejaVuSans-30"/>
      </g>
     </g>
    </g>
    <g id="xtick_9">
     <g id="line2d_27">
      <g>
       <use xlink:href="#m1b214c60da" x="617.56375" y="284.92" style="stroke: #000000; stroke-width: 0.8"/>
      </g>
     </g>
     <g id="text_24">
      <!-- 5 -->
      <g transform="translate(613.74625 301.038125) scale(0.12 -0.12)">
       <use xlink:href="#DejaVuSans-35"/>
      </g>
     </g>
    </g>
    <g id="xtick_10">
     <g id="line2d_28">
      <g>
       <use xlink:href="#m1b214c60da" x="670.7175" y="284.92" style="stroke: #000000; stroke-width: 0.8"/>
      </g>
     </g>
     <g id="text_25">
      <!-- 10 -->
      <g transform="translate(663.0825 301.038125) scale(0.12 -0.12)">
       <use xlink:href="#DejaVuSans-31"/>
       <use xlink:href="#DejaVuSans-30" x="63.623047"/>
      </g>
     </g>
    </g>
    <g id="xtick_11">
     <g id="line2d_29">
      <g>
       <use xlink:href="#m1b214c60da" x="723.87125" y="284.92" style="stroke: #000000; stroke-width: 0.8"/>
      </g>
     </g>
     <g id="text_26">
      <!-- 15 -->
      <g transform="translate(716.23625 301.038125) scale(0.12 -0.12)">
       <use xlink:href="#DejaVuSans-31"/>
       <use xlink:href="#DejaVuSans-35" x="63.623047"/>
      </g>
     </g>
    </g>
    <g id="xtick_12">
     <g id="line2d_30">
      <g>
       <use xlink:href="#m1b214c60da" x="777.025" y="284.92" style="stroke: #000000; stroke-width: 0.8"/>
      </g>
     </g>
     <g id="text_27">
      <!-- 20 -->
      <g transform="translate(769.39 301.038125) scale(0.12 -0.12)">
       <use xlink:href="#DejaVuSans-32"/>
       <use xlink:href="#DejaVuSans-30" x="63.623047"/>
      </g>
     </g>
    </g>
    <g id="xtick_13">
     <g id="line2d_31">
      <g>
       <use xlink:href="#m1b214c60da" x="830.17875" y="284.92" style="stroke: #000000; stroke-width: 0.8"/>
      </g>
     </g>
     <g id="text_28">
      <!-- 25 -->
      <g transform="translate(822.54375 301.038125) scale(0.12 -0.12)">
       <use xlink:href="#DejaVuSans-32"/>
       <use xlink:href="#DejaVuSans-35" x="63.623047"/>
      </g>
     </g>
    </g>
    <g id="xtick_14">
     <g id="line2d_32">
      <g>
       <use xlink:href="#m1b214c60da" x="883.3325" y="284.92" style="stroke: #000000; stroke-width: 0.8"/>
      </g>
     </g>
     <g id="text_29">
      <!-- 30 -->
      <g transform="translate(875.6975 301.038125) scale(0.12 -0.12)">
       <use xlink:href="#DejaVuSans-33"/>
       <use xlink:href="#DejaVuSans-30" x="63.623047"/>
      </g>
     </g>
    </g>
    <g id="xtick_15">
     <g id="line2d_33">
      <g>
       <use xlink:href="#m1b214c60da" x="936.48625" y="284.92" style="stroke: #000000; stroke-width: 0.8"/>
      </g>
     </g>
     <g id="text_30">
      <!-- 35 -->
      <g transform="translate(928.85125 301.038125) scale(0.12 -0.12)">
       <use xlink:href="#DejaVuSans-33"/>
       <use xlink:href="#DejaVuSans-35" x="63.623047"/>
      </g>
     </g>
    </g>
    <g id="xtick_16">
     <g id="line2d_34">
      <g>
       <use xlink:href="#m1b214c60da" x="989.64" y="284.92" style="stroke: #000000; stroke-width: 0.8"/>
      </g>
     </g>
     <g id="text_31">
      <!-- 40 -->
      <g transform="translate(982.005 301.038125) scale(0.12 -0.12)">
       <use xlink:href="#DejaVuSans-34"/>
       <use xlink:href="#DejaVuSans-30" x="63.623047"/>
      </g>
     </g>
    </g>
    <g id="text_32">
     <!-- $\tau$ -->
     <g transform="translate(773.13 321.970781) scale(0.19 -0.19)">
      <defs>
       <path id="STIXGeneral-Italic-3c4" d="M 2726 2739 
L 2592 2266 
L 1741 2266 
Q 1293 1248 1293 742 
Q 1293 416 1523 416 
Q 1638 416 1779 547 
Q 1920 678 2003 858 
L 2106 858 
Q 1990 467 1731 198 
Q 1472 -70 1178 -70 
Q 768 -70 768 384 
Q 768 890 1395 2266 
L 1005 2266 
Q 493 2266 179 1702 
L 77 1702 
Q 237 2093 569 2416 
Q 902 2739 1331 2739 
L 2726 2739 
z
" transform="scale(0.015625)"/>
      </defs>
      <use xlink:href="#STIXGeneral-Italic-3c4" transform="translate(0 0.203125)"/>
     </g>
    </g>
   </g>
   <g id="matplotlib.axis_4">
    <g id="ytick_9">
     <g id="line2d_35">
      <g>
       <use xlink:href="#m64440b4c73" x="564.41" y="284.92" style="stroke: #000000; stroke-width: 0.8"/>
      </g>
     </g>
     <g id="text_33">
      <!-- −1.5 -->
      <g transform="translate(528.270625 289.479062) scale(0.12 -0.12)">
       <use xlink:href="#DejaVuSans-2212"/>
       <use xlink:href="#DejaVuSans-31" x="83.789062"/>
       <use xlink:href="#DejaVuSans-2e" x="147.412109"/>
       <use xlink:href="#DejaVuSans-35" x="179.199219"/>
      </g>
     </g>
    </g>
    <g id="ytick_10">
     <g id="line2d_36">
      <g>
       <use xlink:href="#m64440b4c73" x="564.41" y="241.053333" style="stroke: #000000; stroke-width: 0.8"/>
      </g>
     </g>
     <g id="text_34">
      <!-- −1.0 -->
      <g transform="translate(528.270625 245.612396) scale(0.12 -0.12)">
       <use xlink:href="#DejaVuSans-2212"/>
       <use xlink:href="#DejaVuSans-31" x="83.789062"/>
       <use xlink:href="#DejaVuSans-2e" x="147.412109"/>
       <use xlink:href="#DejaVuSans-30" x="179.199219"/>
      </g>
     </g>
    </g>
    <g id="ytick_11">
     <g id="line2d_37">
      <g>
       <use xlink:href="#m64440b4c73" x="564.41" y="197.186667" style="stroke: #000000; stroke-width: 0.8"/>
      </g>
     </g>
     <g id="text_35">
      <!-- −0.5 -->
      <g transform="translate(528.270625 201.745729) scale(0.12 -0.12)">
       <use xlink:href="#DejaVuSans-2212"/>
       <use xlink:href="#DejaVuSans-30" x="83.789062"/>
       <use xlink:href="#DejaVuSans-2e" x="147.412109"/>
       <use xlink:href="#DejaVuSans-35" x="179.199219"/>
      </g>
     </g>
    </g>
    <g id="ytick_12">
     <g id="line2d_38">
      <g>
       <use xlink:href="#m64440b4c73" x="564.41" y="153.32" style="stroke: #000000; stroke-width: 0.8"/>
      </g>
     </g>
     <g id="text_36">
      <!-- 0.0 -->
      <g transform="translate(538.32625 157.879063) scale(0.12 -0.12)">
       <use xlink:href="#DejaVuSans-30"/>
       <use xlink:href="#DejaVuSans-2e" x="63.623047"/>
       <use xlink:href="#DejaVuSans-30" x="95.410156"/>
      </g>
     </g>
    </g>
    <g id="ytick_13">
     <g id="line2d_39">
      <g>
       <use xlink:href="#m64440b4c73" x="564.41" y="109.453333" style="stroke: #000000; stroke-width: 0.8"/>
      </g>
     </g>
     <g id="text_37">
      <!-- 0.5 -->
      <g transform="translate(538.32625 114.012396) scale(0.12 -0.12)">
       <use xlink:href="#DejaVuSans-30"/>
       <use xlink:href="#DejaVuSans-2e" x="63.623047"/>
       <use xlink:href="#DejaVuSans-35" x="95.410156"/>
      </g>
     </g>
    </g>
    <g id="ytick_14">
     <g id="line2d_40">
      <g>
       <use xlink:href="#m64440b4c73" x="564.41" y="65.586667" style="stroke: #000000; stroke-width: 0.8"/>
      </g>
     </g>
     <g id="text_38">
      <!-- 1.0 -->
      <g transform="translate(538.32625 70.145729) scale(0.12 -0.12)">
       <use xlink:href="#DejaVuSans-31"/>
       <use xlink:href="#DejaVuSans-2e" x="63.623047"/>
       <use xlink:href="#DejaVuSans-30" x="95.410156"/>
      </g>
     </g>
    </g>
    <g id="ytick_15">
     <g id="line2d_41">
      <g>
       <use xlink:href="#m64440b4c73" x="564.41" y="21.72" style="stroke: #000000; stroke-width: 0.8"/>
      </g>
     </g>
     <g id="text_39">
      <!-- 1.5 -->
      <g transform="translate(538.32625 26.279063) scale(0.12 -0.12)">
       <use xlink:href="#DejaVuSans-31"/>
       <use xlink:href="#DejaVuSans-2e" x="63.623047"/>
       <use xlink:href="#DejaVuSans-35" x="95.410156"/>
      </g>
     </g>
    </g>
    <g id="text_40">
     <!-- $g_\tau$ -->
     <g transform="translate(520.280625 161.3) rotate(-90) scale(0.19 -0.19)">
      <defs>
       <path id="STIXGeneral-Italic-67" d="M 3014 2342 
L 2701 2342 
Q 2758 2227 2758 2016 
Q 2758 1613 2390 1289 
Q 2022 966 1574 966 
Q 1459 966 1376 986 
Q 1357 992 1331 992 
Q 1248 992 1174 909 
Q 1101 826 1101 730 
Q 1101 576 1555 461 
Q 2464 243 2464 -352 
Q 2464 -781 2105 -1049 
Q 1747 -1318 1120 -1318 
Q 621 -1318 336 -1142 
Q 51 -966 51 -627 
Q 51 -378 195 -202 
Q 339 -26 800 250 
Q 627 352 627 499 
Q 627 806 1120 1037 
Q 614 1216 614 1728 
Q 614 2202 1004 2512 
Q 1395 2822 1901 2822 
Q 2272 2822 2528 2643 
Q 2598 2592 2630 2592 
L 3014 2592 
L 3014 2342 
z
M 2253 2227 
Q 2253 2477 2166 2579 
Q 2080 2682 1894 2682 
Q 1587 2682 1350 2362 
Q 1114 2042 1114 1581 
Q 1114 1357 1216 1229 
Q 1318 1101 1498 1101 
Q 1818 1101 2042 1478 
Q 2253 1837 2253 2227 
z
M 2080 -576 
Q 2080 -352 1878 -201 
Q 1677 -51 1165 109 
Q 1011 154 947 179 
Q 902 179 752 57 
Q 602 -64 531 -154 
Q 403 -314 403 -525 
Q 403 -1178 1216 -1178 
Q 1594 -1178 1837 -1002 
Q 2080 -826 2080 -576 
z
" transform="scale(0.015625)"/>
      </defs>
      <use xlink:href="#STIXGeneral-Italic-67" transform="translate(0 0.90625)"/>
      <use xlink:href="#STIXGeneral-Italic-3c4" transform="translate(49.999985 -12.321875) scale(0.7)"/>
     </g>
    </g>
    <g id="text_41">
     <!-- 1e14 -->
     <g transform="translate(564.41 18.72) scale(0.1 -0.1)">
      <defs>
       <path id="DejaVuSans-65" d="M 3597 1894 
L 3597 1613 
L 953 1613 
Q 991 1019 1311 708 
Q 1631 397 2203 397 
Q 2534 397 2845 478 
Q 3156 559 3463 722 
L 3463 178 
Q 3153 47 2828 -22 
Q 2503 -91 2169 -91 
Q 1331 -91 842 396 
Q 353 884 353 1716 
Q 353 2575 817 3079 
Q 1281 3584 2069 3584 
Q 2775 3584 3186 3129 
Q 3597 2675 3597 1894 
z
M 3022 2063 
Q 3016 2534 2758 2815 
Q 2500 3097 2075 3097 
Q 1594 3097 1305 2825 
Q 1016 2553 972 2059 
L 3022 2063 
z
" transform="scale(0.015625)"/>
      </defs>
      <use xlink:href="#DejaVuSans-31"/>
      <use xlink:href="#DejaVuSans-65" x="63.623047"/>
      <use xlink:href="#DejaVuSans-31" x="125.146484"/>
      <use xlink:href="#DejaVuSans-34" x="188.769531"/>
     </g>
    </g>
   </g>
   <g id="line2d_42">
    <path d="M 564.41 146.025674 
L 575.04075 154.812123 
L 585.6715 162.066156 
L 596.30225 156.137583 
L 606.933 158.341692 
L 617.56375 153.14845 
L 628.1945 144.948138 
L 638.82525 147.528849 
L 649.456 156.011174 
L 660.08675 152.747441 
L 670.7175 148.721959 
L 681.34825 161.358932 
L 691.979 154.253222 
L 702.60975 154.92377 
L 713.2405 157.070441 
L 723.87125 149.453833 
L 734.502 151.110276 
L 745.13275 151.113308 
L 755.7635 152.569644 
L 766.39425 151.901185 
L 777.025 154.522302 
L 787.65575 149.305733 
L 798.2865 155.288887 
L 808.91725 143.940479 
L 819.548 159.896139 
L 830.17875 156.877134 
L 840.8095 156.090608 
L 851.44025 152.786329 
L 862.071 150.194717 
L 872.70175 149.289849 
L 883.3325 151.500796 
L 893.96325 155.359703 
L 904.594 152.890256 
L 915.22475 153.761588 
L 925.8555 153.142839 
L 936.48625 151.502601 
L 947.117 164.271619 
L 957.74775 152.812844 
L 968.3785 153.510406 
L 979.00925 151.169762 
L 989.64 150.082987 
L 1000.27075 154.773835 
L 1009 153.466787 
L 1009 153.466787 
" clip-path="url(#p8be002f076)" style="fill: none; stroke: #440154; stroke-opacity: 0.85; stroke-width: 2.1; stroke-linecap: square"/>
   </g>
   <g id="line2d_43">
    <path d="M 564.41 131.606683 
L 575.04075 157.770508 
L 585.6715 179.350775 
L 596.30225 161.711251 
L 606.933 168.275574 
L 617.56375 152.806176 
L 628.1945 128.403899 
L 638.82525 136.088965 
L 649.456 161.336093 
L 660.08675 151.618711 
L 670.7175 139.62708 
L 681.34825 177.234147 
L 691.979 156.095412 
L 702.60975 158.087142 
L 713.2405 164.479833 
L 723.87125 141.806478 
L 734.502 146.737724 
L 745.13275 146.748461 
L 755.7635 151.085018 
L 766.39425 149.094959 
L 777.025 156.905371 
L 787.65575 141.378302 
L 798.2865 159.178032 
L 808.91725 125.393883 
L 819.548 172.888647 
L 830.17875 163.906115 
L 840.8095 161.568028 
L 851.44025 151.725428 
L 862.071 144.018869 
L 872.70175 141.325495 
L 883.3325 147.900822 
L 893.96325 159.389835 
L 904.594 152.039526 
L 915.22475 154.63829 
L 925.8555 152.801306 
L 936.48625 147.910576 
L 947.117 185.925427 
L 957.74775 151.811091 
L 968.3785 153.888741 
L 979.00925 146.915507 
L 989.64 143.684294 
L 1000.27075 157.64968 
L 1009 153.753455 
L 1009 153.753455 
" clip-path="url(#p8be002f076)" style="fill: none; stroke: #3b528b; stroke-opacity: 0.85; stroke-width: 1.8; stroke-linecap: square"/>
   </g>
   <g id="line2d_44">
    <path d="M 564.41 46.305731 
L 575.04075 175.433397 
L 585.6715 281.388405 
L 596.30225 194.625756 
L 606.933 226.984284 
L 617.56375 150.815142 
L 628.1945 31.094558 
L 638.82525 68.59978 
L 649.456 192.769176 
L 660.08675 145.20044 
L 670.7175 85.640256 
L 681.34825 270.59843 
L 691.979 166.852947 
L 702.60975 176.573152 
L 713.2405 208.300247 
L 723.87125 96.650707 
L 734.502 120.752529 
L 745.13275 120.898463 
L 755.7635 142.272242 
L 766.39425 132.509592 
L 777.025 171.30101 
L 787.65575 94.564351 
L 798.2865 182.089259 
L 808.91725 16.097875 
L 819.548 249.103194 
L 830.17875 205.679651 
L 840.8095 194.008595 
L 851.44025 145.195909 
L 862.071 107.446917 
L 872.70175 94.474483 
L 883.3325 126.433838 
L 893.96325 183.190982 
L 904.594 147.120485 
L 915.22475 159.910024 
L 925.8555 151.077244 
L 936.48625 126.555327 
L 947.117 313.731622 
L 957.74775 145.964484 
L 968.3785 156.4471 
L 979.00925 122.083194 
L 989.64 106.179416 
L 1000.27075 174.628745 
L 1009 155.400548 
L 1009 155.400548 
" clip-path="url(#p8be002f076)" style="fill: none; stroke: #21918c; stroke-opacity: 0.85; stroke-width: 1.5; stroke-linecap: square"/>
   </g>
   <g id="line2d_45">
    <path d="M 568.138153 -1 
L 575.04075 209.045803 
L 580.292902 339.4 
M 592.221106 339.4 
L 596.30225 256.219102 
L 606.933 337.046057 
L 617.56375 147.354162 
L 622.867581 -1 
M 640.785392 -1 
L 649.456 251.473982 
L 660.08675 134.115496 
L 669.613775 -1 
M 671.078132 -1 
L 678.920469 339.4 
M 685.687597 339.4 
L 691.979 186.616429 
L 702.60975 210.691069 
L 713.2405 291.005972 
L 723.87125 12.15286 
L 734.502 71.462727 
L 745.13275 72.186755 
L 755.7635 125.594054 
L 766.39425 101.394147 
L 777.025 199.461683 
L 787.65575 6.385051 
L 798.2865 224.956094 
L 804.106885 -1 
M 812.352536 -1 
L 818.614378 339.4 
M 824.696672 339.4 
L 830.17875 285.360837 
L 840.8095 255.272027 
L 851.44025 132.028554 
L 862.071 38.28614 
L 872.70175 7.266045 
L 883.3325 85.399692 
L 893.96325 227.937416 
L 904.594 138.411492 
L 915.22475 170.058766 
L 925.8555 148.757794 
L 936.48625 85.83009 
L 942.255825 339.4 
M 952.55343 339.4 
L 957.74775 135.268531 
L 968.3785 162.594965 
L 979.00925 76.936058 
L 989.64 37.044817 
L 1000.27075 206.392466 
L 1009 158.442426 
L 1009 158.442426 
" clip-path="url(#p8be002f076)" style="fill: none; stroke: #5ec962; stroke-opacity: 0.85; stroke-width: 1.2; stroke-linecap: square"/>
   </g>
   <g id="line2d_46">
    <path d="M 568.351291 -1 
L 575.04075 211.513838 
L 579.97796 339.4 
M 592.603475 339.4 
L 596.30225 260.708948 
L 606.217778 339.4 
M 607.237809 339.4 
L 617.56375 147.112019 
L 622.638293 -1 
M 641.007765 -1 
L 649.456 255.748817 
L 660.08675 133.338987 
L 669.15454 -1 
M 671.228602 -1 
L 678.742214 339.4 
M 686.006852 339.4 
L 691.979 188.045228 
L 702.60975 213.163968 
L 713.2405 297.062567 
L 723.87125 5.993306 
L 734.502 67.846644 
L 745.13275 68.623878 
L 755.7635 124.37174 
L 766.39425 99.123086 
L 777.025 201.556274 
L 787.65575 -0.067143 
L 798.2865 228.082307 
L 803.941279 -1 
M 812.471307 -1 
L 818.472812 339.4 
M 825.487078 339.4 
L 830.17875 291.224933 
L 840.8095 259.758477 
L 851.44025 131.036735 
L 862.071 33.217155 
L 872.70175 0.923029 
L 883.3325 82.378325 
L 893.96325 231.20793 
L 904.594 137.794413 
L 915.22475 170.807691 
L 925.8555 148.618129 
L 936.48625 82.833534 
L 942.079205 339.4 
M 952.751742 339.4 
L 957.74775 134.497111 
L 968.3785 163.090712 
L 979.00925 73.69196 
L 989.64 32.040906 
L 1000.27075 208.707558 
L 1009 158.66382 
L 1009 158.66382 
" clip-path="url(#p8be002f076)" style="fill: none; stroke: #fde725; stroke-opacity: 0.85; stroke-width: 0.9; stroke-linecap: square"/>
   </g>
   <g id="patch_8">
    <path d="M 564.41 284.92 
L 564.41 21.72 
" style="fill: none; stroke: #000000; stroke-width: 0.8; stroke-linejoin: miter; stroke-linecap: square"/>
   </g>
   <g id="patch_9">
    <path d="M 989.64 284.92 
L 989.64 21.72 
" style="fill: none; stroke: #000000; stroke-width: 0.8; stroke-linejoin: miter; stroke-linecap: square"/>
   </g>
   <g id="patch_10">
    <path d="M 564.41 284.92 
L 989.64 284.92 
" style="fill: none; stroke: #000000; stroke-width: 0.8; stroke-linejoin: miter; stroke-linecap: square"/>
   </g>
   <g id="patch_11">
    <path d="M 564.41 21.72 
L 989.64 21.72 
" style="fill: none; stroke: #000000; stroke-width: 0.8; stroke-linejoin: miter; stroke-linecap: square"/>
   </g>
  </g>
 </g>
 <defs>
  <clipPath id="p3867e1a841">
   <rect x="69.68" y="21.72" width="425.23" height="263.2"/>
  </clipPath>
  <clipPath id="p8be002f076">
   <rect x="564.41" y="21.72" width="425.23" height="263.2"/>
  </clipPath>
 </defs>
</svg>
